STARTFONT 2.1
FONT -FontForge-Ostrich Sans-Heavy-R-Normal-Sans-60-450-96-96--219--
SIZE 45 96 96
FONTBOUNDINGBOX 45 65 -7 -13
COMMENT "Generated by fontforge, http://fontforge.sourceforge.net"
COMMENT "Copyright (c) 2013 by The League of Moveable Type. All rights reserved."
STARTPROPERTIES 39
FOUNDRY "FontForge"
FAMILY_NAME "Ostrich Sans"
WEIGHT_NAME "Heavy"
SLANT "R"
SETWIDTH_NAME "Normal"
ADD_STYLE_NAME "Sans"
PIXEL_SIZE 60
POINT_SIZE 450
RESOLUTION_X 96
RESOLUTION_Y 96
SPACING ""
AVERAGE_WIDTH 0
CHARSET_REGISTRY ""
CHARSET_ENCODING ""
FONTNAME_REGISTRY ""
CHARSET_COLLECTIONS "ISO10646-1"
FONT_NAME "OstrichSans-Heavy"
FACE_NAME "Ostrich Sans Heavy"
COPYRIGHT "Copyright (c) 2013 by The League of Moveable Type. All rights reserved."
FONT_VERSION "001.001"
FONT_ASCENT 48
FONT_DESCENT 12
UNDERLINE_POSITION -4
UNDERLINE_THICKNESS 3
X_HEIGHT 39
CAP_HEIGHT 39
RAW_ASCENT 800
RAW_DESCENT 200
NORM_SPACE 13
RELATIVE_WEIGHT 90
RELATIVE_SETWIDTH 50
SUPERSCRIPT_X 0
SUPERSCRIPT_Y 21
SUPERSCRIPT_SIZE 36
SUBSCRIPT_X 0
SUBSCRIPT_Y 4
SUBSCRIPT_SIZE 36
AVG_LOWERCASE_WIDTH 235
AVG_UPPERCASE_WIDTH 236
ENDPROPERTIES
CHARS 310
STARTCHAR CR
ENCODING 13
SWIDTH 210 0
DWIDTH 13 0
BBX 1 1 0 0
BITMAP
00
ENDCHAR
STARTCHAR space
ENCODING 32
SWIDTH 210 0
DWIDTH 13 0
BBX 1 1 0 0
BITMAP
00
ENDCHAR
STARTCHAR exclam
ENCODING 33
SWIDTH 143 0
DWIDTH 9 0
BBX 6 40 0 0
BITMAP
F8
FC
FC
FC
FC
FC
FC
FC
FC
FC
FC
FC
FC
FC
FC
FC
FC
FC
FC
FC
FC
FC
FC
FC
FC
FC
FC
FC
FC
FC
F8
F8
00
00
F8
FC
FC
FC
FC
F8
ENDCHAR
STARTCHAR quotedbl
ENCODING 34
SWIDTH 212 0
DWIDTH 13 0
BBX 9 9 0 31
BITMAP
7F00
FF80
FF80
FF80
FF80
FF80
FF80
FF80
7F00
ENDCHAR
STARTCHAR numbersign
ENCODING 35
SWIDTH 592 0
DWIDTH 36 0
BBX 31 41 -1 0
BITMAP
00070180
000FC7E0
000FC7E0
000FC7E0
001FC7E0
001F87E0
001F8FC0
001F8FC0
001F8FC0
001F8FC0
003F0FC0
003F1F80
003F1F80
3FFFFFFE
7FFFFFFE
7FFFFFFE
7FFFFFFE
3FFFFFFE
1FFFFFFC
007E3F00
00FC3F00
00FC7F00
00FC7E00
FFFFFFF8
FFFFFFFC
FFFFFFFC
FFFFFFFC
FFFFFFF8
7FFFFFF0
01F8FC00
03F0FC00
03F0FC00
03F1F800
03F1F800
03F1F800
07E1F800
07E1F800
07E3F000
07E3F000
07E3F000
03C1E000
ENDCHAR
STARTCHAR dollar
ENCODING 36
SWIDTH 398 0
DWIDTH 24 0
BBX 20 49 0 -4
BITMAP
00E000
01F800
01F800
01F800
01F800
07FE00
1FFF00
3FFF80
3FFFC0
7FFFE0
7FFFE0
FE07E0
FC07F0
FC03F0
FC03F0
FC03F0
FC03F0
FE03F0
FE03E0
7F0000
7F8000
3FC000
1FF000
0FF800
07FC00
03FE00
01FF00
00FF80
003FC0
001FE0
780FE0
FC07E0
FC07F0
FC03F0
FC03F0
FC03F0
FC03F0
FE07F0
7F0FE0
7FFFE0
7FFFE0
3FFFC0
1FFF80
0FFF00
03F800
01F800
01F800
01F800
00F000
ENDCHAR
STARTCHAR percent
ENCODING 37
SWIDTH 554 0
DWIDTH 33 0
BBX 32 40 0 0
BITMAP
1FC00FC0
3FF00FC0
7FF01FC0
7FF81FC0
7FF81F80
FFF83F80
FDF83F00
FCF87F00
FCF87F00
FCF87E00
FCF8FE00
FDF8FC00
FFF9FC00
7FF9FC00
7FF9F800
7FF3F800
3FE3F000
0FC3F000
0007F000
0007E000
000FE000
000FC060
000FC7F8
001FCFFC
001F8FFE
003F9FFE
003F1FFF
003F1FFF
007F1FBF
007E1FBF
00FE1FBF
00FC1FBF
00FC1FBF
01FC1FBF
01F81FFF
03F81FFE
03F00FFE
03F00FFE
03F007FC
03E003F0
ENDCHAR
STARTCHAR ampersand
ENCODING 38
SWIDTH 479 0
DWIDTH 29 0
BBX 24 40 0 0
BITMAP
03FC00
07FF00
0FFF00
0FFF80
0FFF80
1FFFC0
1F8FC0
1F8FC0
1F8FC0
1F8FC0
0FCFC0
0FDFC0
0FDF80
0FFF80
07FF80
07FF00
07FF00
03FE00
07FC00
0FFC00
1FFE7C
3FFE7E
7FFF7E
7F7F7E
FE3FFE
FE1FFE
FC1FFE
FC0FFE
FC0FFC
FC07FC
FC03FC
FC03FC
FE03FC
FF07FC
7FFFFE
7FFFFE
3FFFFF
1FFFFF
0FFF3F
01FC1F
ENDCHAR
STARTCHAR quotesingle
ENCODING 39
SWIDTH 131 0
DWIDTH 8 0
BBX 6 9 0 31
BITMAP
F8
FC
FC
FC
FC
FC
FC
FC
78
ENDCHAR
STARTCHAR parenleft
ENCODING 40
SWIDTH 216 0
DWIDTH 13 0
BBX 10 40 0 0
BITMAP
0700
0F80
1FC0
1FC0
3FC0
3F80
3F00
7F00
7E00
7E00
FE00
FC00
FC00
FC00
FC00
FC00
FC00
FC00
FC00
FC00
FC00
FC00
FC00
FC00
FC00
FC00
FC00
FC00
FC00
FE00
7E00
7E00
7F00
3F00
3F80
3FC0
1FC0
0FC0
0F80
0300
ENDCHAR
STARTCHAR parenright
ENCODING 41
SWIDTH 208 0
DWIDTH 12 0
BBX 10 40 0 0
BITMAP
7800
7C00
FE00
FE00
FF00
7F00
3F00
3F80
1F80
1F80
1FC0
0FC0
0FC0
0FC0
0FC0
0FC0
0FC0
0FC0
0FC0
0FC0
0FC0
0FC0
0FC0
0FC0
0FC0
0FC0
0FC0
0FC0
1FC0
1F80
1F80
1F80
3F80
3F00
7F00
FE00
FE00
FC00
7C00
3000
ENDCHAR
STARTCHAR asterisk
ENCODING 42
SWIDTH 345 0
DWIDTH 21 0
BBX 18 17 0 23
BITMAP
01E000
03F000
03F000
03F000
7FFF80
7FFF80
FFFF80
FFFFC0
FFFF80
3FFF00
1FFC00
3FFE00
3FFF00
7FFF00
7F3F00
3E1E00
1C0C00
ENDCHAR
STARTCHAR plus
ENCODING 43
SWIDTH 434 0
DWIDTH 26 0
BBX 22 22 0 9
BITMAP
007800
00FC00
00FC00
00FC00
00FC00
00FC00
00FC00
00FC00
7FFFF8
FFFFFC
FFFFFC
FFFFFC
FFFFFC
7FFFF8
00FC00
00FC00
00FC00
00FC00
00FC00
00FC00
00FC00
007800
ENDCHAR
STARTCHAR comma
ENCODING 44
SWIDTH 135 0
DWIDTH 8 0
BBX 6 9 0 -2
BITMAP
78
FC
FC
FC
FC
FC
FC
FC
78
ENDCHAR
STARTCHAR hyphen
ENCODING 45
SWIDTH 349 0
DWIDTH 21 0
BBX 18 6 0 17
BITMAP
7FFF80
FFFF80
FFFFC0
FFFFC0
FFFF80
7FFF80
ENDCHAR
STARTCHAR period
ENCODING 46
SWIDTH 131 0
DWIDTH 8 0
BBX 6 7 0 0
BITMAP
70
F8
FC
FC
FC
FC
78
ENDCHAR
STARTCHAR slash
ENCODING 47
SWIDTH 434 0
DWIDTH 26 0
BBX 20 40 1 0
BITMAP
0001F0
0003F0
0003F0
0007F0
0007E0
0007E0
000FE0
000FC0
001FC0
001F80
001F80
003F80
003F00
007F00
007E00
007E00
00FE00
00FC00
01FC00
01F800
01F800
03F800
03F000
07F000
07E000
07E000
0FE000
0FC000
1FC000
1F8000
1F8000
3F8000
3F0000
7F0000
7E0000
7E0000
FE0000
FC0000
FC0000
F80000
ENDCHAR
STARTCHAR zero
ENCODING 48
SWIDTH 370 0
DWIDTH 22 0
BBX 18 40 0 0
BITMAP
07F800
1FFC00
3FFE00
3FFF00
7FFF00
7FFF80
FE1F80
FC1F80
FC1F80
FC0FC0
FC0FC0
FC0FC0
FC0FC0
FC0FC0
FC0FC0
FC0FC0
FC0FC0
FC0FC0
FC0FC0
FC0FC0
FC0FC0
FC0FC0
FC0FC0
FC0FC0
FC0FC0
FC0FC0
FC0FC0
FC0FC0
FC0FC0
FC0FC0
FC0FC0
FC1F80
FC1F80
7E3F80
7FFF80
7FFF00
3FFF00
1FFE00
0FFC00
03F000
ENDCHAR
STARTCHAR one
ENCODING 49
SWIDTH 244 0
DWIDTH 15 0
BBX 11 40 0 0
BITMAP
03E0
07E0
0FE0
1FE0
3FE0
3FE0
7FE0
FFE0
FFE0
FFE0
7FE0
3FE0
07E0
07E0
07E0
07E0
07E0
07E0
07E0
07E0
07E0
07E0
07E0
07E0
07E0
07E0
07E0
07E0
07E0
07E0
07E0
07E0
07E0
07E0
07E0
07E0
07E0
07E0
07E0
03C0
ENDCHAR
STARTCHAR two
ENCODING 50
SWIDTH 370 0
DWIDTH 22 0
BBX 18 40 0 0
BITMAP
07F800
1FFC00
3FFE00
3FFF00
7FFF80
7FFF80
FE1F80
FC1FC0
FC0FC0
FC0FC0
FC0FC0
FC0FC0
780FC0
001FC0
001F80
001F80
003F80
007F00
007F00
00FE00
01FE00
03FC00
07F800
0FF000
1FE000
1FC000
3F8000
3F8000
7F0000
7E0000
7E0000
7E0000
FE0000
FC0000
FFFF80
FFFFC0
FFFFC0
FFFFC0
FFFFC0
7FFF80
ENDCHAR
STARTCHAR three
ENCODING 51
SWIDTH 353 0
DWIDTH 21 0
BBX 18 40 0 0
BITMAP
07F800
1FFC00
3FFE00
3FFF00
7FFF00
7FFF80
7E1F80
FC1F80
FC1FC0
FC0FC0
FC0FC0
FC0FC0
FC0FC0
781F80
001F80
003F80
007F80
07FF00
07FE00
07FE00
07FE00
07FF00
03FF00
007F80
003F80
001F80
781FC0
FC0FC0
FC0FC0
FC0FC0
FC0FC0
FC1F80
FE1F80
7E3F80
7FFF80
7FFF00
3FFF00
1FFE00
0FFC00
03F000
ENDCHAR
STARTCHAR four
ENCODING 52
SWIDTH 374 0
DWIDTH 22 0
BBX 19 40 0 0
BITMAP
0007C0
0007E0
000FE0
001FE0
001FE0
003FE0
003FE0
007FE0
007FE0
00FFE0
00FFE0
01FFE0
01FFE0
03FFE0
03F7E0
07E7E0
07E7E0
0FC7E0
1FC7E0
1F87E0
3F87E0
3F07E0
7E07E0
7FFFE0
FFFFE0
FFFFE0
FFFFE0
FFFFE0
7FFFE0
0007E0
0007E0
0007E0
0007E0
0007E0
0007E0
0007E0
0007E0
0007E0
0007E0
0007C0
ENDCHAR
STARTCHAR five
ENCODING 53
SWIDTH 360 0
DWIDTH 22 0
BBX 18 41 0 0
BITMAP
7FFF00
FFFF80
FFFFC0
FFFFC0
FFFFC0
FFFF80
FC0000
FC0000
FC0000
FC0000
FC0000
FC0000
FC0000
FC0000
FDF800
FFFC00
FFFE00
FFFF00
FFFF80
FFFF80
FE3F80
FC1F80
FC1F80
FC1FC0
F80FC0
000FC0
000FC0
000FC0
780FC0
FC0FC0
FC0FC0
FC1FC0
FC1F80
FC1F80
FE3F80
7FFF80
7FFF00
7FFE00
3FFE00
1FFC00
07F000
ENDCHAR
STARTCHAR six
ENCODING 54
SWIDTH 362 0
DWIDTH 22 0
BBX 18 40 0 0
BITMAP
07F800
0FFE00
1FFF00
3FFF00
3FFF80
7FFF80
7E1F80
7E1F80
FC0FC0
FC0FC0
FC0FC0
FC0F80
FC0000
FCF000
FFFC00
FFFE00
FFFF00
FFFF00
FFFF80
FF3F80
FE1F80
FC1F80
FC1FC0
FC0FC0
FC0FC0
FC0FC0
FC0FC0
FC0FC0
FC0FC0
FC0FC0
FC1F80
FC1F80
FE1F80
FE3F80
7FFF00
7FFF00
3FFE00
1FFE00
0FF800
03F000
ENDCHAR
STARTCHAR seven
ENCODING 55
SWIDTH 426 0
DWIDTH 26 0
BBX 22 40 0 0
BITMAP
FFFFFC
FFFFFC
FFFFFC
FFFFFC
FFFFFC
3FFFF8
0003F8
0003F8
0003F0
0007F0
0007E0
000FE0
000FC0
000FC0
001FC0
001F80
003F80
003F00
007F00
007F00
007E00
00FE00
00FC00
01FC00
01F800
01F800
03F800
03F000
07F000
07E000
0FE000
0FC000
0FC000
1FC000
1F8000
3F8000
3F0000
3F0000
3F0000
3E0000
ENDCHAR
STARTCHAR eight
ENCODING 56
SWIDTH 382 0
DWIDTH 23 0
BBX 19 40 0 0
BITMAP
07FC00
1FFF00
3FFF80
7FFF80
7FFFC0
7FFFC0
FE0FC0
FC0FC0
FC0FE0
FC07E0
FC07E0
FC07E0
FC07E0
FC07E0
FC0FC0
FE0FC0
7F1FC0
7FFFC0
7FFF80
3FFF80
3FFF80
7FFF80
7FFFC0
FE1FC0
FE0FC0
FC0FE0
FC07E0
FC07E0
FC07E0
FC07E0
FC07E0
FC0FE0
FE0FC0
FE1FC0
7FFFC0
7FFF80
3FFF80
3FFF00
0FFE00
03F800
ENDCHAR
STARTCHAR nine
ENCODING 57
SWIDTH 358 0
DWIDTH 21 0
BBX 18 40 0 0
BITMAP
03F000
0FFC00
1FFE00
3FFF00
3FFF00
7FFF80
7E3F80
FE1F80
FC1F80
FC0FC0
FC0FC0
FC0FC0
FC0FC0
FC0FC0
FC0FC0
FC0FC0
FC0FC0
FC1FC0
FC1FC0
FE1FC0
7F3FC0
7FFFC0
7FFFC0
3FFFC0
1FFFC0
0FEFC0
038FC0
000FC0
780FC0
FC1F80
FC1F80
FC1F80
FC1F80
FE3F80
7FFF00
7FFF00
7FFE00
3FFE00
1FFC00
07F000
ENDCHAR
STARTCHAR colon
ENCODING 58
SWIDTH 163 0
DWIDTH 10 0
BBX 6 23 0 9
BITMAP
78
FC
FC
FC
FC
FC
FC
F8
00
00
00
00
00
00
00
F8
FC
FC
FC
FC
FC
FC
78
ENDCHAR
STARTCHAR semicolon
ENCODING 59
SWIDTH 147 0
DWIDTH 9 0
BBX 6 25 0 7
BITMAP
78
FC
FC
FC
FC
FC
FC
F8
00
00
00
00
00
00
00
F8
FC
FC
FC
FC
FC
FC
FC
FC
78
ENDCHAR
STARTCHAR less
ENCODING 60
SWIDTH 292 0
DWIDTH 18 0
BBX 15 20 -1 12
BITMAP
003C
00FE
01FE
03FC
07F8
0FF0
1FE0
3FC0
7F80
FF00
FF00
7F80
3FC0
1FE0
0FF0
07F8
03FC
01FE
00FE
007E
ENDCHAR
STARTCHAR equal
ENCODING 61
SWIDTH 362 0
DWIDTH 22 0
BBX 18 18 0 10
BITMAP
7FFF00
FFFF80
FFFFC0
FFFFC0
FFFFC0
7FFF80
000000
000000
000000
000000
000000
000000
7FFF80
FFFFC0
FFFFC0
FFFFC0
FFFF80
3FFF00
ENDCHAR
STARTCHAR greater
ENCODING 62
SWIDTH 292 0
DWIDTH 18 0
BBX 14 20 0 12
BITMAP
F800
FC00
FE00
FF80
7FC0
3FE0
1FF0
0FF8
07FC
03FC
01FC
03FC
07F8
0FF0
1FE0
3FC0
7F80
FF00
FE00
FC00
ENDCHAR
STARTCHAR question
ENCODING 63
SWIDTH 353 0
DWIDTH 21 0
BBX 18 40 0 0
BITMAP
03F000
0FFC00
1FFE00
3FFF00
7FFF00
7FFF80
7E1F80
7E1FC0
FE0FC0
FC0FC0
FC0FC0
FC0FC0
FC0FC0
7C0FC0
001F80
001F80
003F80
007F00
007F00
00FE00
01FC00
01FC00
03F800
03F000
07F000
07E000
07E000
07E000
07E000
07E000
07E000
07C000
000000
000000
07C000
07E000
07E000
07E000
07E000
07C000
ENDCHAR
STARTCHAR at
ENCODING 64
SWIDTH 697 0
DWIDTH 42 0
BBX 36 39 0 0
BITMAP
00003E0000
0007FFC000
001FFFF000
007FFFFC00
00FFFFFE00
01FFFFFF00
03FFC3FF80
07FC007FC0
0FF8001FC0
0FE0000FE0
1FC3FF07E0
3F8FFF87E0
3F9FFFC7F0
3F1FFFC3F0
7F3FFFC3F0
7E3FFFC3F0
7E7F0FC3F0
7E7E1FC3F0
7E7E1F83F0
FC7E1F83F0
FC7E1F87F0
FC7FFF87E0
FC7FFF8FE0
FE7FFFBFE0
7E3FFFFFC0
7E1FFFFF80
7E0FFFFF00
7F00DFFE00
3F800FFC00
3FC007E3C0
1FE00007C0
0FF8003FE0
0FFF83FFE0
07FFFFFFE0
03FFFFFF80
00FFFFFF00
003FFFFC00
000FFFF000
0000FE0000
ENDCHAR
STARTCHAR A
ENCODING 65
SWIDTH 442 0
DWIDTH 27 0
BBX 22 40 0 0
BITMAP
007C00
00FC00
00FC00
00FE00
00FE00
00FE00
01FE00
01FE00
01FF00
01FF00
03FF00
03FF00
03FF80
03FF80
07FF80
07EF80
07EFC0
07EFC0
0FCFC0
0FCFC0
0FCFC0
0FC7E0
0FC7E0
1FFFE0
1FFFE0
1FFFF0
1FFFF0
3FFFF0
3FFFF0
3F03F8
3F01F8
3F01F8
7E01F8
7E01F8
7E00FC
7E00FC
FE00FC
FC00FC
FC00FC
78007C
ENDCHAR
STARTCHAR B
ENCODING 66
SWIDTH 386 0
DWIDTH 23 0
BBX 19 40 0 0
BITMAP
7FF800
FFFE00
FFFF00
FFFF80
FFFF80
FFFFC0
FC1FC0
FC0FC0
FC0FE0
FC07E0
FC07E0
FC07E0
FC07E0
FC0FC0
FC0FC0
FC0FC0
FC3FC0
FFFF80
FFFF80
FFFF00
FFFF80
FFFF80
FFFFC0
FC1FC0
FC0FC0
FC0FC0
FC07E0
FC07E0
FC07E0
FC07E0
FC0FE0
FC0FC0
FC0FC0
FC1FC0
FFFFC0
FFFF80
FFFF80
FFFF00
FFFE00
7FF800
ENDCHAR
STARTCHAR C
ENCODING 67
SWIDTH 394 0
DWIDTH 24 0
BBX 20 40 0 0
BITMAP
07FC00
0FFF00
1FFF80
3FFFC0
7FFFC0
7FFFE0
7E0FE0
FE07E0
FC07E0
FC07F0
FC03F0
FC03F0
FC03F0
FC03E0
FC0000
FC0000
FC0000
FC0000
FC0000
FC0000
FC0000
FC0000
FC0000
FC0000
FC0000
FC01C0
FC03E0
FC03F0
FC03F0
FC03F0
FC07E0
FC07E0
FE07E0
7F0FE0
7FFFE0
7FFFC0
3FFF80
1FFF80
0FFE00
03F800
ENDCHAR
STARTCHAR D
ENCODING 68
SWIDTH 398 0
DWIDTH 24 0
BBX 19 40 0 0
BITMAP
7FFC00
FFFE00
FFFF00
FFFF80
FFFFC0
FFFFC0
FC1FC0
FC0FE0
FC07E0
FC07E0
FC07E0
FC07E0
FC07E0
FC07E0
FC07E0
FC07E0
FC07E0
FC07E0
FC07E0
FC07E0
FC07E0
FC07E0
FC07E0
FC07E0
FC07E0
FC07E0
FC07E0
FC07E0
FC07E0
FC07E0
FC07E0
FC0FE0
FC0FE0
FC1FC0
FFFFC0
FFFF80
FFFF80
FFFF00
FFFE00
7FF000
ENDCHAR
STARTCHAR E
ENCODING 69
SWIDTH 353 0
DWIDTH 21 0
BBX 17 40 0 0
BITMAP
FFFF80
FFFF80
FFFF80
FFFF80
FFFF80
FFFF00
FC0000
FC0000
FC0000
FC0000
FC0000
FC0000
FC0000
FC0000
FC0000
FC0000
FC0000
FFFE00
FFFF00
FFFF00
FFFF00
FFFE00
FFFC00
FC0000
FC0000
FC0000
FC0000
FC0000
FC0000
FC0000
FC0000
FC0000
FC0000
FC0000
FFFF00
FFFF80
FFFF80
FFFF80
FFFF80
7FFF00
ENDCHAR
STARTCHAR F
ENCODING 70
SWIDTH 358 0
DWIDTH 21 0
BBX 17 40 0 0
BITMAP
FFFF80
FFFF80
FFFF80
FFFF80
FFFF80
FC0000
FC0000
FC0000
FC0000
FC0000
FC0000
FC0000
FC0000
FC0000
FC0000
FC0000
FC0000
FFFC00
FFFE00
FFFE00
FFFE00
FFFC00
FFF800
FC0000
FC0000
FC0000
FC0000
FC0000
FC0000
FC0000
FC0000
FC0000
FC0000
FC0000
FC0000
FC0000
FC0000
FC0000
FC0000
780000
ENDCHAR
STARTCHAR G
ENCODING 71
SWIDTH 402 0
DWIDTH 24 0
BBX 20 40 0 0
BITMAP
07FE00
0FFF00
1FFF80
3FFFC0
7FFFE0
7FFFE0
7E07E0
FE07E0
FC03F0
FC03F0
FC03F0
FC03F0
FC03F0
FC03E0
FC0000
FC0000
FC0000
FC0000
FC0000
FC0000
FC3FE0
FC7FF0
FC7FF0
FC7FF0
FC3FF0
FC1FF0
FC03F0
FC03F0
FC03F0
FC03F0
FC03F0
FC07F0
FE07E0
7F0FE0
7FFFE0
7FFFC0
3FFFC0
1FFF80
0FFF00
03FC00
ENDCHAR
STARTCHAR H
ENCODING 72
SWIDTH 394 0
DWIDTH 24 0
BBX 19 40 0 0
BITMAP
FC07C0
FC07E0
FC07E0
FC07E0
FC07E0
FC07E0
FC07E0
FC07E0
FC07E0
FC07E0
FC07E0
FC07E0
FC07E0
FC07E0
FC07E0
FC07E0
FC07E0
FFFFE0
FFFFE0
FFFFE0
FFFFE0
FFFFE0
FFFFE0
FC07E0
FC07E0
FC07E0
FC07E0
FC07E0
FC07E0
FC07E0
FC07E0
FC07E0
FC07E0
FC07E0
FC07E0
FC07E0
FC07E0
FC07E0
FC07E0
7803C0
ENDCHAR
STARTCHAR I
ENCODING 73
SWIDTH 164 0
DWIDTH 10 0
BBX 6 40 0 0
BITMAP
F8
FC
FC
FC
FC
FC
FC
FC
FC
FC
FC
FC
FC
FC
FC
FC
FC
FC
FC
FC
FC
FC
FC
FC
FC
FC
FC
FC
FC
FC
FC
FC
FC
FC
FC
FC
FC
FC
FC
78
ENDCHAR
STARTCHAR J
ENCODING 74
SWIDTH 374 0
DWIDTH 22 0
BBX 19 40 -1 0
BITMAP
0007E0
0007E0
0007E0
0007E0
0007E0
0007E0
0007E0
0007E0
0007E0
0007E0
0007E0
0007E0
0007E0
0007E0
0007E0
0007E0
0007E0
0007E0
0007E0
0007E0
0007E0
0007E0
0007E0
0007E0
0007E0
0007E0
7807E0
7C07E0
FC07E0
FC07E0
FE07E0
7E07E0
7E0FE0
7F0FE0
7FFFC0
3FFFC0
3FFF80
1FFF80
0FFE00
03F800
ENDCHAR
STARTCHAR K
ENCODING 75
SWIDTH 388 0
DWIDTH 23 0
BBX 21 40 0 0
BITMAP
FC01F0
FC03F8
FC07F8
FC07F0
FC0FE0
FC0FE0
FC1FC0
FC3FC0
FC3F80
FC7F00
FC7F00
FCFE00
FDFC00
FDFC00
FFF800
FFF800
FFF000
FFE000
FFE000
FFE000
FFE000
FFF000
FFF000
FFF800
FFF800
FDFC00
FCFE00
FCFE00
FC7F00
FC7F00
FC3F80
FC3F80
FC1FC0
FC0FE0
FC0FE0
FC07F0
FC07F0
FC03F8
FC03F8
7801F0
ENDCHAR
STARTCHAR L
ENCODING 76
SWIDTH 335 0
DWIDTH 20 0
BBX 17 40 0 0
BITMAP
F80000
FC0000
FC0000
FC0000
FC0000
FC0000
FC0000
FC0000
FC0000
FC0000
FC0000
FC0000
FC0000
FC0000
FC0000
FC0000
FC0000
FC0000
FC0000
FC0000
FC0000
FC0000
FC0000
FC0000
FC0000
FC0000
FC0000
FC0000
FC0000
FC0000
FC0000
FC0000
FC0000
FC0000
FFFF00
FFFF80
FFFF80
FFFF80
FFFF80
FFFF00
ENDCHAR
STARTCHAR M
ENCODING 77
SWIDTH 443 0
DWIDTH 27 0
BBX 21 40 0 0
BITMAP
FC00F8
FC01F8
FC01F8
FC01F8
FE01F8
FE01F8
FE03F8
FE03F8
FE03F8
FF03F8
FF03F8
FF07F8
FF07F8
FF07F8
FF87F8
FF87F8
FF8FF8
FF8FF8
FF8FF8
FFCFF8
FFCFF8
FFDFF8
FFDFF8
FFDFF8
FFDFF8
FFFFF8
FFFFF8
FFFFF8
FFFFF8
FDFFF8
FDFFF8
FDFDF8
FDFDF8
FDFDF8
FDFDF8
FCFDF8
FCFDF8
FCFDF8
FCF9F8
7878F8
ENDCHAR
STARTCHAR N
ENCODING 78
SWIDTH 410 0
DWIDTH 25 0
BBX 20 40 0 0
BITMAP
F803F0
FC03F0
FC03F0
FE03F0
FE03F0
FE03F0
FF03F0
FF03F0
FF83F0
FF83F0
FF83F0
FFC3F0
FFC3F0
FFE3F0
FFE3F0
FFE3F0
FFF3F0
FFF3F0
FFFBF0
FDFBF0
FDFFF0
FDFFF0
FCFFF0
FCFFF0
FC7FF0
FC7FF0
FC7FF0
FC3FF0
FC3FF0
FC1FF0
FC1FF0
FC1FF0
FC0FF0
FC0FF0
FC07F0
FC07F0
FC07F0
FC03F0
FC03F0
7801E0
ENDCHAR
STARTCHAR O
ENCODING 79
SWIDTH 406 0
DWIDTH 24 0
BBX 20 40 0 0
BITMAP
07FE00
0FFF00
1FFF80
3FFFC0
7FFFC0
7FFFE0
7E0FE0
FE07E0
FC07F0
FC03F0
FC03F0
FC03F0
FC03F0
FC03F0
FC03F0
FC03F0
FC03F0
FC03F0
FC03F0
FC03F0
FC03F0
FC03F0
FC03F0
FC03F0
FC03F0
FC03F0
FC03F0
FC03F0
FC03F0
FC03F0
FC03F0
FE07E0
FE07E0
7F0FE0
7FFFE0
3FFFC0
3FFFC0
1FFF80
0FFF00
03F800
ENDCHAR
STARTCHAR P
ENCODING 80
SWIDTH 390 0
DWIDTH 23 0
BBX 19 40 0 0
BITMAP
FFFC00
FFFF00
FFFF80
FFFFC0
FFFFC0
FFFFE0
FC0FE0
FC07E0
FC07E0
FC07E0
FC07E0
FC07E0
FC07E0
FC07E0
FC07E0
FC0FE0
FC3FE0
FFFFC0
FFFFC0
FFFF80
FFFF00
FFFE00
FFF000
FC0000
FC0000
FC0000
FC0000
FC0000
FC0000
FC0000
FC0000
FC0000
FC0000
FC0000
FC0000
FC0000
FC0000
FC0000
FC0000
780000
ENDCHAR
STARTCHAR Q
ENCODING 81
SWIDTH 398 0
DWIDTH 24 0
BBX 21 42 0 -2
BITMAP
03F800
0FFF00
1FFF80
3FFFC0
7FFFC0
7FFFE0
FF0FE0
FE07E0
FC07E0
FC07E0
FC07F0
FC03F0
FC03F0
FC03F0
FC03F0
FC03F0
FC03F0
FC03F0
FC03F0
FC03F0
FC03F0
FC03F0
FC03F0
FC03F0
FC03F0
FC03F0
FC03F0
FC03F0
FC03F0
FC03F0
FC07E0
FC7FE0
FE7FE0
FE7FE0
7FFFE0
7FFFC0
3FFFE0
3FFFF0
1FFFF0
07FFF8
0003F8
0001F8
ENDCHAR
STARTCHAR R
ENCODING 82
SWIDTH 398 0
DWIDTH 24 0
BBX 20 41 0 -1
BITMAP
7FF800
FFFF00
FFFF80
FFFFC0
FFFFC0
FFFFE0
FC0FE0
FC07E0
FC07F0
FC03F0
FC03F0
FC03F0
FC03F0
FC03F0
FC07F0
FC07F0
FC0FE0
FC7FE0
FFFFE0
FFFFC0
FFFF80
FFFF80
FFFFC0
FFFFC0
FC0FE0
FC07E0
FC07E0
FC07E0
FC07E0
FC07E0
FC07E0
FC07E0
FC07E0
FC07E0
FC07E0
FC07E0
FC07E0
FC07E0
FC07E0
FC03E0
380180
ENDCHAR
STARTCHAR S
ENCODING 83
SWIDTH 398 0
DWIDTH 24 0
BBX 20 40 0 0
BITMAP
03F800
0FFF00
1FFF80
3FFFC0
7FFFC0
7FFFE0
7F0FE0
FE07E0
FC07F0
FC03F0
FC03F0
FC03F0
FC03F0
FE03F0
7F01E0
7F8000
3FC000
3FE000
1FF000
0FFC00
07FE00
03FF00
00FF80
007FC0
003FC0
001FE0
780FE0
FC07F0
FC07F0
FC03F0
FC03F0
FC03F0
FE07F0
7E07E0
7FFFE0
7FFFE0
3FFFC0
3FFFC0
1FFF80
07FE00
ENDCHAR
STARTCHAR T
ENCODING 84
SWIDTH 401 0
DWIDTH 24 0
BBX 20 40 0 0
BITMAP
7FFFE0
FFFFF0
FFFFF0
FFFFF0
FFFFF0
7FFFE0
01F800
01F800
01F800
01F800
01F800
01F800
01F800
01F800
01F800
01F800
01F800
01F800
01F800
01F800
01F800
01F800
01F800
01F800
01F800
01F800
01F800
01F800
01F800
01F800
01F800
01F800
01F800
01F800
01F800
01F800
01F800
01F800
01F800
01F000
ENDCHAR
STARTCHAR U
ENCODING 85
SWIDTH 409 0
DWIDTH 25 0
BBX 19 40 0 0
BITMAP
F803E0
F807E0
FC07E0
FC07E0
FC07E0
FC07E0
FC07E0
FC07E0
FC07E0
FC07E0
FC07E0
FC07E0
FC07E0
FC07E0
FC07E0
FC07E0
FC07E0
FC07E0
FC07E0
FC07E0
FC07E0
FC07E0
FC07E0
FC07E0
FC07E0
FC07E0
FC07E0
FC07E0
FC07E0
FC07E0
FC07E0
FC07E0
FC07E0
FE0FE0
FFFFE0
7FFFC0
7FFFC0
3FFF80
1FFF00
07FC00
ENDCHAR
STARTCHAR V
ENCODING 86
SWIDTH 435 0
DWIDTH 26 0
BBX 23 40 0 0
BITMAP
78003C
FC007E
FC007E
FE00FE
7E00FC
7E00FC
7E00FC
7E01FC
3F01F8
3F01F8
3F01F8
3F03F8
1F83F0
1F83F0
1F83F0
1F83F0
1FC7E0
0FC7E0
0FC7E0
0FC7E0
0FEFE0
07EFC0
07EFC0
07EFC0
07FFC0
03FF80
03FF80
03FF80
03FF80
01FF00
01FF00
01FF00
01FF00
01FE00
00FE00
00FE00
00FE00
00FE00
007C00
007C00
ENDCHAR
STARTCHAR W
ENCODING 87
SWIDTH 560 0
DWIDTH 34 0
BBX 29 40 0 0
BITMAP
F80F81F8
FC0F81F8
FC1F81F8
FC1FC1F8
FC1FC3F8
FC1FC3F0
7E1FC3F0
7E1FC3F0
7E3FC3F0
7E3FE3F0
7E3FE3F0
7E3FE7F0
7F3FE7E0
3F3FE7E0
3F7FE7E0
3F7FF7E0
3F7FF7E0
3F7FF7E0
3F7FFFC0
1FFDFFC0
1FFDFFC0
1FFDFFC0
1FFDFFC0
1FFDFFC0
1FFDFF80
0FF9FF80
0FF8FF80
0FF8FF80
0FF8FF80
0FF8FF80
0FF8FF00
07F0FF00
07F07F00
07F07F00
07F07F00
07F07F00
07F07F00
03E07E00
03E03E00
03C03C00
ENDCHAR
STARTCHAR X
ENCODING 88
SWIDTH 442 0
DWIDTH 27 0
BBX 24 40 -1 0
BITMAP
7C003E
FE007F
7E007E
7F00FE
7F00FE
3F81FC
3F81FC
1FC3F8
1FC3F8
0FE3F0
0FE7F0
07E7E0
07FFE0
03FFC0
03FFC0
01FF80
01FF80
00FF00
00FF00
007E00
00FF00
00FF00
01FF80
01FF80
03FFC0
03FFC0
03FFE0
07FFE0
07E7E0
0FE7F0
0FC3F0
1FC3F8
1F81F8
3F81FC
3F00FC
7F00FE
7E007E
FE007F
FC003F
7C003E
ENDCHAR
STARTCHAR Y
ENCODING 89
SWIDTH 406 0
DWIDTH 24 0
BBX 22 40 -1 0
BITMAP
FC00F8
FC01FC
FE01FC
7E01F8
7F03F8
7F03F0
3F87F0
3F87F0
1F8FE0
1FCFE0
0FDFC0
0FFFC0
0FFF80
07FF80
07FF80
03FF00
03FF00
01FE00
01FE00
01FC00
00FC00
00FC00
00FC00
00FC00
00FC00
00FC00
00FC00
00FC00
00FC00
00FC00
00FC00
00FC00
00FC00
00FC00
00FC00
00FC00
00FC00
00FC00
00FC00
007800
ENDCHAR
STARTCHAR Z
ENCODING 90
SWIDTH 411 0
DWIDTH 25 0
BBX 20 40 0 0
BITMAP
FFFFE0
FFFFF0
FFFFF0
FFFFF0
FFFFE0
7FFFE0
000FE0
000FC0
001FC0
001F80
003F80
003F80
003F00
007F00
007E00
00FE00
00FC00
01FC00
01FC00
01F800
03F800
03F000
07F000
07F000
07E000
0FE000
0FC000
1FC000
1F8000
3F8000
3F8000
3F0000
7F0000
7E0000
FFFFE0
FFFFE0
FFFFF0
FFFFF0
FFFFE0
7FFFE0
ENDCHAR
STARTCHAR backslash
ENCODING 92
SWIDTH 430 0
DWIDTH 26 0
BBX 20 40 1 0
BITMAP
F80000
FC0000
FC0000
FE0000
7E0000
7F0000
3F0000
3F0000
3F8000
1F8000
1FC000
0FC000
0FC000
0FE000
07E000
07F000
03F000
03F000
03F800
01F800
01FC00
00FC00
00FC00
00FE00
007E00
007F00
003F00
003F00
003F80
001F80
001FC0
000FC0
000FC0
000FE0
0007E0
0007F0
0003F0
0003F0
0003F0
0001F0
ENDCHAR
STARTCHAR asciicircum
ENCODING 94
SWIDTH 237 0
DWIDTH 14 0
BBX 15 9 -1 43
BITMAP
03C0
0FF0
0FF0
1FF8
3FFC
7FFE
FFFE
FE7E
7C3E
ENDCHAR
STARTCHAR underscore
ENCODING 95
SWIDTH 511 0
DWIDTH 31 0
BBX 26 6 1 -2
BITMAP
7FFFFF80
FFFFFFC0
FFFFFFC0
FFFFFFC0
FFFFFFC0
7FFFFF80
ENDCHAR
STARTCHAR grave
ENCODING 96
SWIDTH 222 0
DWIDTH 13 0
BBX 13 8 0 43
BITMAP
7C00
FF00
FFC0
7FE0
3FF0
0FF8
03F8
00F8
ENDCHAR
STARTCHAR a
ENCODING 97
SWIDTH 442 0
DWIDTH 27 0
BBX 22 40 0 0
BITMAP
007C00
00FC00
00FC00
00FE00
00FE00
00FE00
01FE00
01FE00
01FF00
01FF00
03FF00
03FF00
03FF80
03FF80
07FF80
07EF80
07EFC0
07EFC0
0FCFC0
0FCFC0
0FCFC0
0FC7E0
0FC7E0
1FFFE0
1FFFE0
1FFFF0
1FFFF0
3FFFF0
3FFFF0
3F03F8
3F01F8
3F01F8
7E01F8
7E01F8
7E00FC
7E00FC
FE00FC
FC00FC
FC00FC
78007C
ENDCHAR
STARTCHAR b
ENCODING 98
SWIDTH 386 0
DWIDTH 23 0
BBX 19 40 0 0
BITMAP
7FF800
FFFE00
FFFF00
FFFF80
FFFF80
FFFFC0
FC1FC0
FC0FC0
FC0FE0
FC07E0
FC07E0
FC07E0
FC07E0
FC0FC0
FC0FC0
FC0FC0
FC3FC0
FFFF80
FFFF80
FFFF00
FFFF80
FFFF80
FFFFC0
FC1FC0
FC0FC0
FC0FC0
FC07E0
FC07E0
FC07E0
FC07E0
FC0FE0
FC0FC0
FC0FC0
FC1FC0
FFFFC0
FFFF80
FFFF80
FFFF00
FFFE00
7FF800
ENDCHAR
STARTCHAR c
ENCODING 99
SWIDTH 394 0
DWIDTH 24 0
BBX 20 40 0 0
BITMAP
07FC00
0FFF00
1FFF80
3FFFC0
7FFFC0
7FFFE0
7E0FE0
FE07E0
FC07E0
FC07F0
FC03F0
FC03F0
FC03F0
FC03E0
FC0000
FC0000
FC0000
FC0000
FC0000
FC0000
FC0000
FC0000
FC0000
FC0000
FC0000
FC01C0
FC03E0
FC03F0
FC03F0
FC03F0
FC07E0
FC07E0
FE07E0
7F0FE0
7FFFE0
7FFFC0
3FFF80
1FFF80
0FFE00
03F800
ENDCHAR
STARTCHAR d
ENCODING 100
SWIDTH 398 0
DWIDTH 24 0
BBX 19 40 0 0
BITMAP
7FFC00
FFFE00
FFFF00
FFFF80
FFFFC0
FFFFC0
FC1FC0
FC0FE0
FC07E0
FC07E0
FC07E0
FC07E0
FC07E0
FC07E0
FC07E0
FC07E0
FC07E0
FC07E0
FC07E0
FC07E0
FC07E0
FC07E0
FC07E0
FC07E0
FC07E0
FC07E0
FC07E0
FC07E0
FC07E0
FC07E0
FC07E0
FC0FE0
FC0FE0
FC1FC0
FFFFC0
FFFF80
FFFF80
FFFF00
FFFE00
7FF000
ENDCHAR
STARTCHAR e
ENCODING 101
SWIDTH 353 0
DWIDTH 21 0
BBX 17 40 0 0
BITMAP
FFFF80
FFFF80
FFFF80
FFFF80
FFFF80
FFFF00
FC0000
FC0000
FC0000
FC0000
FC0000
FC0000
FC0000
FC0000
FC0000
FC0000
FC0000
FFFE00
FFFF00
FFFF00
FFFF00
FFFE00
FFFC00
FC0000
FC0000
FC0000
FC0000
FC0000
FC0000
FC0000
FC0000
FC0000
FC0000
FC0000
FFFF00
FFFF80
FFFF80
FFFF80
FFFF80
7FFF00
ENDCHAR
STARTCHAR f
ENCODING 102
SWIDTH 358 0
DWIDTH 21 0
BBX 17 40 0 0
BITMAP
FFFF80
FFFF80
FFFF80
FFFF80
FFFF80
FFFF00
FC0000
FC0000
FC0000
FC0000
FC0000
FC0000
FC0000
FC0000
FC0000
FC0000
FC0000
FFFC00
FFFE00
FFFE00
FFFE00
FFFE00
FFFC00
FC0000
FC0000
FC0000
FC0000
FC0000
FC0000
FC0000
FC0000
FC0000
FC0000
FC0000
FC0000
FC0000
FC0000
FC0000
FC0000
F80000
ENDCHAR
STARTCHAR g
ENCODING 103
SWIDTH 402 0
DWIDTH 24 0
BBX 20 40 0 0
BITMAP
07FE00
0FFF00
1FFF80
3FFFC0
7FFFE0
7FFFE0
7E07E0
FE07E0
FC03F0
FC03F0
FC03F0
FC03F0
FC03F0
FC03E0
FC0000
FC0000
FC0000
FC0000
FC0000
FC0000
FC3FE0
FC7FF0
FC7FF0
FC7FF0
FC3FF0
FC1FF0
FC03F0
FC03F0
FC03F0
FC03F0
FC03F0
FC07F0
FE07E0
7F0FE0
7FFFE0
7FFFC0
3FFFC0
1FFF80
0FFF00
03FC00
ENDCHAR
STARTCHAR h
ENCODING 104
SWIDTH 394 0
DWIDTH 24 0
BBX 19 40 0 0
BITMAP
FC07C0
FC07E0
FC07E0
FC07E0
FC07E0
FC07E0
FC07E0
FC07E0
FC07E0
FC07E0
FC07E0
FC07E0
FC07E0
FC07E0
FC07E0
FC07E0
FC07E0
FFFFE0
FFFFE0
FFFFE0
FFFFE0
FFFFE0
FFFFE0
FC07E0
FC07E0
FC07E0
FC07E0
FC07E0
FC07E0
FC07E0
FC07E0
FC07E0
FC07E0
FC07E0
FC07E0
FC07E0
FC07E0
FC07E0
FC07E0
7803C0
ENDCHAR
STARTCHAR i
ENCODING 105
SWIDTH 164 0
DWIDTH 10 0
BBX 6 40 0 0
BITMAP
F8
FC
FC
FC
FC
FC
FC
FC
FC
FC
FC
FC
FC
FC
FC
FC
FC
FC
FC
FC
FC
FC
FC
FC
FC
FC
FC
FC
FC
FC
FC
FC
FC
FC
FC
FC
FC
FC
FC
78
ENDCHAR
STARTCHAR j
ENCODING 106
SWIDTH 374 0
DWIDTH 22 0
BBX 19 40 -1 0
BITMAP
0007E0
0007E0
0007E0
0007E0
0007E0
0007E0
0007E0
0007E0
0007E0
0007E0
0007E0
0007E0
0007E0
0007E0
0007E0
0007E0
0007E0
0007E0
0007E0
0007E0
0007E0
0007E0
0007E0
0007E0
0007E0
0007E0
7807E0
7C07E0
FC07E0
FC07E0
FE07E0
7E07E0
7E0FE0
7F0FE0
7FFFC0
3FFFC0
3FFF80
1FFF80
0FFE00
03F800
ENDCHAR
STARTCHAR k
ENCODING 107
SWIDTH 410 0
DWIDTH 25 0
BBX 21 40 0 0
BITMAP
FC01F0
FC03F8
FC07F8
FC07F0
FC0FE0
FC0FE0
FC1FC0
FC3FC0
FC3F80
FC7F00
FC7F00
FCFE00
FDFC00
FDFC00
FFF800
FFF800
FFF000
FFE000
FFE000
FFE000
FFE000
FFF000
FFF000
FFF800
FFF800
FDFC00
FCFE00
FCFE00
FC7F00
FC7F00
FC3F80
FC3F80
FC1FC0
FC0FE0
FC0FE0
FC07F0
FC07F0
FC03F8
FC03F8
7801F0
ENDCHAR
STARTCHAR l
ENCODING 108
SWIDTH 335 0
DWIDTH 20 0
BBX 17 40 0 0
BITMAP
F80000
FC0000
FC0000
FC0000
FC0000
FC0000
FC0000
FC0000
FC0000
FC0000
FC0000
FC0000
FC0000
FC0000
FC0000
FC0000
FC0000
FC0000
FC0000
FC0000
FC0000
FC0000
FC0000
FC0000
FC0000
FC0000
FC0000
FC0000
FC0000
FC0000
FC0000
FC0000
FC0000
FC0000
FFFF00
FFFF80
FFFF80
FFFF80
FFFF80
FFFF00
ENDCHAR
STARTCHAR m
ENCODING 109
SWIDTH 443 0
DWIDTH 27 0
BBX 21 40 0 0
BITMAP
FC00F8
FC01F8
FC01F8
FC01F8
FE01F8
FE01F8
FE03F8
FE03F8
FE03F8
FF03F8
FF03F8
FF07F8
FF07F8
FF07F8
FF87F8
FF87F8
FF8FF8
FF8FF8
FF8FF8
FFCFF8
FFCFF8
FFDFF8
FFDFF8
FFDFF8
FFDFF8
FFFFF8
FFFFF8
FFFFF8
FFFFF8
FDFFF8
FDFFF8
FDFDF8
FDFDF8
FDFDF8
FDFDF8
FCFDF8
FCFDF8
FCFDF8
FCF9F8
7878F8
ENDCHAR
STARTCHAR n
ENCODING 110
SWIDTH 410 0
DWIDTH 25 0
BBX 20 40 0 0
BITMAP
F803F0
FC03F0
FC03F0
FE03F0
FE03F0
FE03F0
FF03F0
FF03F0
FF83F0
FF83F0
FF83F0
FFC3F0
FFC3F0
FFE3F0
FFE3F0
FFE3F0
FFF3F0
FFF3F0
FFFBF0
FDFBF0
FDFFF0
FDFFF0
FCFFF0
FCFFF0
FC7FF0
FC7FF0
FC7FF0
FC3FF0
FC3FF0
FC1FF0
FC1FF0
FC1FF0
FC0FF0
FC0FF0
FC07F0
FC07F0
FC07F0
FC03F0
FC03F0
7801E0
ENDCHAR
STARTCHAR o
ENCODING 111
SWIDTH 406 0
DWIDTH 24 0
BBX 20 40 0 0
BITMAP
07FE00
0FFF00
1FFF80
3FFFC0
7FFFC0
7FFFE0
7E0FE0
FE07E0
FC07F0
FC03F0
FC03F0
FC03F0
FC03F0
FC03F0
FC03F0
FC03F0
FC03F0
FC03F0
FC03F0
FC03F0
FC03F0
FC03F0
FC03F0
FC03F0
FC03F0
FC03F0
FC03F0
FC03F0
FC03F0
FC03F0
FC03F0
FE07E0
FE07E0
7F0FE0
7FFFE0
3FFFC0
3FFFC0
1FFF80
0FFF00
03F800
ENDCHAR
STARTCHAR p
ENCODING 112
SWIDTH 390 0
DWIDTH 23 0
BBX 19 40 0 0
BITMAP
7FF800
FFFE00
FFFF80
FFFF80
FFFFC0
FFFFC0
FC0FE0
FC07E0
FC07E0
FC07E0
FC07E0
FC07E0
FC07E0
FC07E0
FC07E0
FC0FE0
FC3FE0
FFFFC0
FFFFC0
FFFF80
FFFF00
FFFE00
FFF800
FC0000
FC0000
FC0000
FC0000
FC0000
FC0000
FC0000
FC0000
FC0000
FC0000
FC0000
FC0000
FC0000
FC0000
FC0000
FC0000
780000
ENDCHAR
STARTCHAR q
ENCODING 113
SWIDTH 398 0
DWIDTH 24 0
BBX 21 42 0 -2
BITMAP
07FC00
1FFF00
3FFF80
3FFFC0
7FFFC0
7FFFE0
FE0FE0
FC07E0
FC07E0
FC07E0
FC03F0
FC03F0
FC03F0
FC03F0
FC03F0
FC03F0
FC03F0
FC03F0
FC03F0
FC03F0
FC03F0
FC03F0
FC03F0
FC03F0
FC03F0
FC03F0
FC03F0
FC03F0
FC03F0
FC07E0
FC3FE0
FC7FE0
FE7FE0
7F7FE0
7FFFC0
7FFFC0
3FFFE0
1FFFF0
0FFFF8
03FBF8
0001F8
0000F0
ENDCHAR
STARTCHAR r
ENCODING 114
SWIDTH 398 0
DWIDTH 24 0
BBX 20 40 0 0
BITMAP
FFFE00
FFFF80
FFFFC0
FFFFC0
FFFFE0
FFFFE0
FC07E0
FC07F0
FC03F0
FC03F0
FC03F0
FC03F0
FC03F0
FC03F0
FC07F0
FC07E0
FC1FE0
FFFFE0
FFFFC0
FFFFC0
FFFF80
FFFFC0
FFFFC0
FC1FE0
FC0FE0
FC07E0
FC07E0
FC07E0
FC07E0
FC07E0
FC07E0
FC07E0
FC07E0
FC07E0
FC07E0
FC07E0
FC07E0
FC07E0
FC07E0
7803E0
ENDCHAR
STARTCHAR s
ENCODING 115
SWIDTH 398 0
DWIDTH 24 0
BBX 20 40 0 0
BITMAP
07FE00
0FFF00
3FFF80
3FFFC0
7FFFE0
7FFFE0
FE0FE0
FE07E0
FC03F0
FC03F0
FC03F0
FC03F0
FE03F0
FE03E0
7F0000
7F8000
3FC000
1FF000
1FF800
07FC00
03FE00
01FF00
00FF80
007FC0
001FE0
780FE0
FC07E0
FC07F0
FC03F0
FC03F0
FC03F0
FC03F0
FE07F0
7F0FE0
7FFFE0
7FFFE0
3FFFC0
1FFF80
0FFF00
03FC00
ENDCHAR
STARTCHAR t
ENCODING 116
SWIDTH 401 0
DWIDTH 24 0
BBX 20 40 0 0
BITMAP
FFFFE0
FFFFF0
FFFFF0
FFFFF0
FFFFF0
3FFFC0
01F800
01F800
01F800
01F800
01F800
01F800
01F800
01F800
01F800
01F800
01F800
01F800
01F800
01F800
01F800
01F800
01F800
01F800
01F800
01F800
01F800
01F800
01F800
01F800
01F800
01F800
01F800
01F800
01F800
01F800
01F800
01F800
01F800
00F000
ENDCHAR
STARTCHAR u
ENCODING 117
SWIDTH 409 0
DWIDTH 25 0
BBX 19 40 0 0
BITMAP
F803E0
FC07E0
FC07E0
FC07E0
FC07E0
FC07E0
FC07E0
FC07E0
FC07E0
FC07E0
FC07E0
FC07E0
FC07E0
FC07E0
FC07E0
FC07E0
FC07E0
FC07E0
FC07E0
FC07E0
FC07E0
FC07E0
FC07E0
FC07E0
FC07E0
FC07E0
FC07E0
FC07E0
FC07E0
FC07E0
FC07E0
FC07E0
FC07E0
FE0FE0
FFFFC0
7FFFC0
3FFF80
3FFF80
0FFE00
03F800
ENDCHAR
STARTCHAR v
ENCODING 118
SWIDTH 435 0
DWIDTH 26 0
BBX 23 40 0 0
BITMAP
FC007C
FC007E
FC007E
7E00FC
7E00FC
7E00FC
7E00FC
7F01F8
3F01F8
3F01F8
3F01F8
3F83F8
1F83F0
1F83F0
1F83F0
1F87F0
0FC7E0
0FC7E0
0FC7E0
0FC7E0
07EFC0
07EFC0
07EFC0
07EFC0
07FF80
03FF80
03FF80
03FF80
03FF80
01FF00
01FF00
01FF00
01FF00
00FE00
00FE00
00FE00
00FE00
007C00
007C00
007800
ENDCHAR
STARTCHAR w
ENCODING 119
SWIDTH 555 0
DWIDTH 33 0
BBX 29 40 0 0
BITMAP
F80F81F8
FC0F81F8
FC1F81F8
FC1FC1F8
FC1FC3F8
FC1FC3F0
7E1FC3F0
7E1FC3F0
7E3FC3F0
7E3FE3F0
7E3FE3F0
7E3FE7F0
7F3FE7E0
3F3FE7E0
3F7FE7E0
3F7FF7E0
3F7FF7E0
3F7FF7E0
3F7FFFC0
1FFDFFC0
1FFDFFC0
1FFDFFC0
1FFDFFC0
1FFDFFC0
1FFDFF80
0FF9FF80
0FF8FF80
0FF8FF80
0FF8FF80
0FF8FF80
0FF8FF00
07F0FF00
07F07F00
07F07F00
07F07F00
07F07F00
07F07F00
03E07E00
03E03E00
03C03C00
ENDCHAR
STARTCHAR x
ENCODING 120
SWIDTH 442 0
DWIDTH 27 0
BBX 24 40 -1 0
BITMAP
7C003E
FE007F
7E007E
7F00FE
7F00FE
3F81FC
3F81FC
1FC3F8
1FC3F8
0FE3F0
0FE7F0
07E7E0
07FFE0
03FFC0
03FFC0
01FF80
01FF80
00FF00
00FF00
007E00
00FF00
00FF00
01FF80
01FF80
03FFC0
03FFC0
03FFE0
07FFE0
07E7E0
0FE7F0
0FC3F0
1FC3F8
1F81F8
3F81FC
3F00FC
7F00FE
7E007E
FE007F
FC003F
7C003E
ENDCHAR
STARTCHAR y
ENCODING 121
SWIDTH 406 0
DWIDTH 24 0
BBX 22 40 -1 0
BITMAP
FC00F8
FC01FC
FE01FC
7E01F8
7F03F8
7F03F0
3F87F0
3F87F0
1F8FE0
1FCFE0
0FDFC0
0FFFC0
0FFF80
07FF80
07FF80
03FF00
03FF00
01FE00
01FE00
01FC00
00FC00
00FC00
00FC00
00FC00
00FC00
00FC00
00FC00
00FC00
00FC00
00FC00
00FC00
00FC00
00FC00
00FC00
00FC00
00FC00
00FC00
00FC00
00FC00
007800
ENDCHAR
STARTCHAR z
ENCODING 122
SWIDTH 411 0
DWIDTH 25 0
BBX 20 40 0 0
BITMAP
FFFFE0
FFFFF0
FFFFF0
FFFFF0
FFFFE0
7FFFE0
000FE0
000FC0
001FC0
001F80
003F80
003F80
003F00
007F00
007E00
00FE00
00FC00
01FC00
01FC00
01F800
03F800
03F000
07F000
07F000
07E000
0FE000
0FC000
1FC000
1F8000
3F8000
3F8000
3F0000
7F0000
7E0000
FFFFE0
FFFFE0
FFFFF0
FFFFF0
FFFFE0
7FFFE0
ENDCHAR
STARTCHAR bar
ENCODING 124
SWIDTH 139 0
DWIDTH 8 0
BBX 6 40 0 0
BITMAP
F8
FC
FC
FC
FC
FC
FC
FC
FC
FC
FC
FC
FC
FC
FC
FC
FC
FC
FC
FC
FC
FC
FC
FC
FC
FC
FC
FC
FC
FC
FC
FC
FC
FC
FC
FC
FC
FC
FC
78
ENDCHAR
STARTCHAR asciitilde
ENCODING 126
SWIDTH 322 0
DWIDTH 19 0
BBX 18 9 0 38
BITMAP
060000
1FC000
7FE7C0
7FFFC0
FFFFC0
FFFFC0
FFFF80
F8FF00
007E00
ENDCHAR
STARTCHAR exclamdown
ENCODING 161
SWIDTH 143 0
DWIDTH 9 0
BBX 6 41 0 0
BITMAP
30
F8
FC
FC
FC
F8
F8
00
00
F8
FC
FC
FC
FC
FC
FC
FC
FC
FC
FC
FC
FC
FC
FC
FC
FC
FC
FC
FC
FC
FC
FC
FC
FC
FC
FC
FC
FC
FC
F8
78
ENDCHAR
STARTCHAR sterling
ENCODING 163
SWIDTH 373 0
DWIDTH 22 0
BBX 20 40 0 0
BITMAP
00FE00
03FF80
07FFC0
0FFFC0
0FFFE0
0FFFE0
1FC7E0
1F83E0
1F8380
1F8000
1F8000
1F8000
1F8000
1F8000
1F8000
1F8000
1F8000
FFFF00
FFFF80
FFFF80
FFFF80
FFFF80
7FFF00
1F8000
1F8000
1F8000
1F8000
1F8000
1F8000
3F0000
3F0000
3F0000
3F0000
7F0000
FFFFE0
FFFFF0
FFFFF0
FFFFF0
FFFFF0
FFFFE0
ENDCHAR
STARTCHAR dieresis
ENCODING 168
SWIDTH 229 0
DWIDTH 14 0
BBX 14 7 -1 43
BITMAP
3838
7C7C
FCFC
FCFC
FCFC
FCFC
7C7C
ENDCHAR
STARTCHAR copyright
ENCODING 169
SWIDTH 709 0
DWIDTH 43 0
BBX 37 41 1 0
BITMAP
0003FC0000
001FFF8000
007FFFE000
00FFFFF800
01FFFFFC00
03FFFFFE00
07FE03FF00
0FF800FF80
1FE0F83F80
1FC7FE1FC0
3F8FFF0FC0
3F0FFF8FE0
7F1FFF87E0
7E1FFF87F0
7E1F9FC3F0
FC1F8FC3F0
FC1F0FC1F0
FC1F0FC1F8
FC1F0FC1F8
FC1F0701F8
FC1F0001F8
FC1F0001F8
FC1F0781F8
FC1F0FC1F8
FC1F0FC1F8
FC1F0FC3F0
FC1F8FC3F0
7E1FFFC3F0
7E1FFF87F0
7F1FFF87E0
3F8FFF0FE0
3F87FE1FC0
1FE3FC3FC0
0FF000FF80
0FFE03FF00
07FFFFFE00
03FFFFFC00
00FFFFF800
007FFFE000
001FFF8000
0000F80000
ENDCHAR
STARTCHAR registered
ENCODING 174
SWIDTH 723 0
DWIDTH 43 0
BBX 37 41 1 0
BITMAP
0003FC0000
001FFF8000
007FFFE000
00FFFFF800
03FFFFFC00
07FFFFFE00
07FE03FF00
0FF800FF80
1FE0003F80
1FC7FC1FC0
3F8FFF0FE0
3F0FFF0FE0
7F0FFF87E0
7E0FFF87F0
7E0FFF83F0
FC0FDF83F0
FC0FDF81F8
FC0FDF81F8
FC0FDF81F8
FC0FFF81F8
FC0FFF81F8
FC0FFF01F8
FC0FFF81F8
FC0FFF81F8
FC0FFF81F8
FC0FDF83F0
FE0FDF83F0
7E0FDF83F0
7E0FDF87F0
7F0FDF87E0
3F8FDF8FE0
3FCFDF9FC0
1FE78F3FC0
0FF000FF80
0FFE03FF00
07FFFFFE00
03FFFFFC00
00FFFFF800
007FFFE000
001FFF8000
0000F80000
ENDCHAR
STARTCHAR macron
ENCODING 175
SWIDTH 231 0
DWIDTH 14 0
BBX 13 6 0 43
BITMAP
7FF0
FFF8
FFF8
FFF8
FFF8
FFF8
ENDCHAR
STARTCHAR degree
ENCODING 176
SWIDTH 142 0
DWIDTH 9 0
BBX 9 9 -1 39
BITMAP
1E00
7F00
7F80
F780
E380
F380
7F80
7F00
3E00
ENDCHAR
STARTCHAR acute
ENCODING 180
SWIDTH 247 0
DWIDTH 15 0
BBX 13 9 0 43
BITMAP
0070
03F8
07F8
1FF8
3FF0
FFC0
FF80
FE00
7000
ENDCHAR
STARTCHAR periodcentered
ENCODING 183
SWIDTH 83 0
DWIDTH 5 0
BBX 6 7 -1 19
BITMAP
78
FC
FC
FC
FC
FC
38
ENDCHAR
STARTCHAR cedilla
ENCODING 184
SWIDTH 201 0
DWIDTH 12 0
BBX 13 14 -1 -13
BITMAP
1F00
1F00
1F00
1F80
1FF0
1FF0
1FF8
1FF8
40F8
FFF8
7FF8
7FF0
3FE0
0700
ENDCHAR
STARTCHAR ordmasculine
ENCODING 186
SWIDTH 140 0
DWIDTH 8 0
BBX 9 9 -1 39
BITMAP
1E00
7F00
7F80
F780
E380
F380
7F80
7F00
3E00
ENDCHAR
STARTCHAR questiondown
ENCODING 191
SWIDTH 353 0
DWIDTH 21 0
BBX 17 41 -1 0
BITMAP
006000
01F800
01F800
01F800
01F800
01F800
00F000
000000
000000
01F000
01F800
01F800
01F800
01F800
01F800
03F800
03F000
07F000
07E000
0FE000
1FC000
3FC000
3F8000
7F0000
7F0000
FE0000
FC0600
FC0F80
FC1F80
FC1F80
FC1F80
FC1F80
FC1F80
FC1F80
FE3F80
7FFF00
7FFF00
3FFE00
1FFE00
0FF800
03E000
ENDCHAR
STARTCHAR Agrave
ENCODING 192
SWIDTH 442 0
DWIDTH 27 0
BBX 22 52 0 0
BITMAP
038000
03F000
07FC00
03FF00
01FF80
00FFC0
003FE0
000FE0
0003C0
000000
000000
000000
007C00
00FC00
00FC00
00FE00
00FE00
00FE00
01FE00
01FE00
01FF00
01FF00
03FF00
03FF00
03FF80
03FF80
07FF80
07EF80
07EFC0
07EFC0
0FCFC0
0FCFC0
0FCFC0
0FC7E0
0FC7E0
1FFFE0
1FFFE0
1FFFF0
1FFFF0
3FFFF0
3FFFF0
3F03F8
3F01F8
3F01F8
7E01F8
7E01F8
7E00FC
7E00FC
FE00FC
FC00FC
FC00FC
78007C
ENDCHAR
STARTCHAR Aacute
ENCODING 193
SWIDTH 442 0
DWIDTH 27 0
BBX 22 52 0 0
BITMAP
000100
000FC0
003FC0
00FFC0
01FF80
07FE00
07FC00
07F000
07C000
000000
000000
000000
007C00
00FC00
00FC00
00FE00
00FE00
00FE00
01FE00
01FE00
01FF00
01FF00
03FF00
03FF00
03FF80
03FF80
07FF80
07EF80
07EFC0
07EFC0
0FCFC0
0FCFC0
0FCFC0
0FC7E0
0FC7E0
1FFFE0
1FFFE0
1FFFF0
1FFFF0
3FFFF0
3FFFF0
3F03F8
3F01F8
3F01F8
7E01F8
7E01F8
7E00FC
7E00FC
FE00FC
FC00FC
FC00FC
78007C
ENDCHAR
STARTCHAR Acircumflex
ENCODING 194
SWIDTH 442 0
DWIDTH 27 0
BBX 22 52 0 0
BITMAP
003C00
007E00
00FF00
01FF00
03FF80
07FFC0
07FFC0
07EFC0
07C7C0
000000
000000
000000
007C00
00FC00
00FC00
00FE00
00FE00
00FE00
01FE00
01FE00
01FF00
01FF00
03FF00
03FF00
03FF80
03FF80
07FF80
07EF80
07EFC0
07EFC0
0FCFC0
0FCFC0
0FCFC0
0FC7E0
0FC7E0
1FFFE0
1FFFE0
1FFFF0
1FFFF0
3FFFF0
3FFFF0
3F03F8
3F01F8
3F01F8
7E01F8
7E01F8
7E00FC
7E00FC
FE00FC
FC00FC
FC00FC
78007C
ENDCHAR
STARTCHAR Atilde
ENCODING 195
SWIDTH 442 0
DWIDTH 27 0
BBX 22 50 0 0
BITMAP
07F000
0FFDF8
1FFFF8
1FFFF8
3FFFF0
3FFFF0
1F3FE0
000F80
000000
000000
007C00
00FC00
00FC00
00FE00
00FE00
00FE00
01FE00
01FE00
01FF00
01FF00
03FF00
03FF00
03FF80
03FF80
07FF80
07EF80
07EFC0
07EFC0
0FCFC0
0FCFC0
0FCFC0
0FC7E0
0FC7E0
1FFFE0
1FFFE0
1FFFF0
1FFFF0
3FFFF0
3FFFF0
3F03F8
3F01F8
3F01F8
7E01F8
7E01F8
7E00FC
7E00FC
FE00FC
FC00FC
FC00FC
78007C
ENDCHAR
STARTCHAR Adieresis
ENCODING 196
SWIDTH 442 0
DWIDTH 27 0
BBX 22 50 0 0
BITMAP
038380
07C7C0
07EFC0
07EFC0
07EFC0
07C7C0
07C7C0
000000
000000
000000
007C00
00FC00
00FC00
00FE00
00FE00
00FE00
01FE00
01FE00
01FF00
01FF00
03FF00
03FF00
03FF80
03FF80
07FF80
07EF80
07EFC0
07EFC0
0FCFC0
0FCFC0
0FCFC0
0FC7E0
0FC7E0
1FFFE0
1FFFE0
1FFFF0
1FFFF0
3FFFF0
3FFFF0
3F03F8
3F01F8
3F01F8
7E01F8
7E01F8
7E00FC
7E00FC
FE00FC
FC00FC
FC00FC
78007C
ENDCHAR
STARTCHAR Aring
ENCODING 197
SWIDTH 442 0
DWIDTH 27 0
BBX 22 52 0 0
BITMAP
003800
007E00
00FF00
01EF00
01C700
01E700
00FF00
00FE00
007C00
000000
000000
000000
007C00
00FC00
00FC00
00FE00
00FE00
00FE00
01FE00
01FE00
01FF00
01FF00
03FF00
03FF00
03FF80
03FF80
07FF80
07EF80
07EFC0
07EFC0
0FCFC0
0FCFC0
0FCFC0
0FC7E0
0FC7E0
1FFFE0
1FFFE0
1FFFF0
1FFFF0
3FFFF0
3FFFF0
3F03F8
3F01F8
7F01F8
7E01F8
7E01F8
7E00FC
7E00FC
FE00FC
FC00FC
FC00FC
78007C
ENDCHAR
STARTCHAR AE
ENCODING 198
SWIDTH 665 0
DWIDTH 40 0
BBX 34 40 0 0
BITMAP
00007FFFC0
0000FFFFC0
0000FFFFC0
0000FFFFC0
0001FFFFC0
0001FFFF00
0003FE0000
0003FE0000
0007FE0000
0007FE0000
000FFE0000
000FFE0000
000FFE0000
001FFE0000
001FFE0000
003FFE0000
003F7E0000
007F7FFF80
007E7FFFC0
00FE7FFFC0
00FE7FFFC0
01FC7FFFC0
01FC7FFF80
01FFFE0000
03FFFE0000
03FFFE0000
07FFFE0000
07FFFE0000
0FFFFE0000
0FC07E0000
1FC07E0000
1F807E0000
3F807E0000
3F807E0000
3F007FFF80
7F007FFFC0
7E007FFFC0
FE007FFFC0
FC007FFFC0
78007FFF80
ENDCHAR
STARTCHAR Ccedilla
ENCODING 199
SWIDTH 394 0
DWIDTH 24 0
BBX 20 53 0 -13
BITMAP
07FC00
0FFF00
1FFF80
3FFFC0
7FFFC0
7FFFE0
7E0FE0
FE07E0
FC07E0
FC07F0
FC03F0
FC03F0
FC03F0
FC03E0
FC0000
FC0000
FC0000
FC0000
FC0000
FC0000
FC0000
FC0000
FC0000
FC0000
FC0000
FC01C0
FC03E0
FC03F0
FC03F0
FC03F0
FC07E0
FC07E0
FE07E0
7F0FE0
7FFFE0
7FFFC0
3FFF80
1FFF80
0FFE00
03F800
00F000
00F000
00F800
00FF00
00FF80
00FF80
00FFC0
0207C0
07FFC0
07FF80
07FF80
03FE00
003000
ENDCHAR
STARTCHAR Egrave
ENCODING 200
SWIDTH 353 0
DWIDTH 21 0
BBX 17 52 0 -1
BITMAP
1F8000
1FE000
1FF000
0FFC00
07FE00
01FF00
00FF00
003F00
000000
000000
000000
7FFF00
FFFF80
FFFF80
FFFF80
FFFF80
FFFF00
FC0000
FC0000
FC0000
FC0000
FC0000
FC0000
FC0000
FC0000
FC0000
FC0000
FC0000
FFFC00
FFFE00
FFFF00
FFFF00
FFFF00
FFFE00
FC0000
FC0000
FC0000
FC0000
FC0000
FC0000
FC0000
FC0000
FC0000
FC0000
FC0000
FC0000
FFFF80
FFFF80
FFFF80
FFFF80
FFFF80
3FFE00
ENDCHAR
STARTCHAR Eacute
ENCODING 201
SWIDTH 353 0
DWIDTH 21 0
BBX 17 52 0 0
BITMAP
001C00
007E00
01FF00
07FE00
0FFC00
1FF800
3FE000
3F8000
1E0000
000000
000000
000000
FFFF80
FFFF80
FFFF80
FFFF80
FFFF80
FFFF00
FC0000
FC0000
FC0000
FC0000
FC0000
FC0000
FC0000
FC0000
FC0000
FC0000
FC0000
FFFE00
FFFF00
FFFF00
FFFF00
FFFE00
FFFC00
FC0000
FC0000
FC0000
FC0000
FC0000
FC0000
FC0000
FC0000
FC0000
FC0000
FC0000
FFFF00
FFFF80
FFFF80
FFFF80
FFFF80
7FFF00
ENDCHAR
STARTCHAR Ecircumflex
ENCODING 202
SWIDTH 353 0
DWIDTH 21 0
BBX 17 52 0 0
BITMAP
01E000
03F000
07F800
0FF800
1FFC00
3FFE00
3FFE00
3F7E00
3E3E00
000000
000000
000000
FFFF80
FFFF80
FFFF80
FFFF80
FFFF80
FFFF00
FC0000
FC0000
FC0000
FC0000
FC0000
FC0000
FC0000
FC0000
FC0000
FC0000
FC0000
FFFE00
FFFF00
FFFF00
FFFF00
FFFE00
FFFC00
FC0000
FC0000
FC0000
FC0000
FC0000
FC0000
FC0000
FC0000
FC0000
FC0000
FC0000
FFFF00
FFFF80
FFFF80
FFFF80
FFFF80
7FFF00
ENDCHAR
STARTCHAR Edieresis
ENCODING 203
SWIDTH 353 0
DWIDTH 21 0
BBX 17 50 0 0
BITMAP
1C1C00
3F3F00
3F3F00
3F3F00
3F3F00
3F3F00
1E1E00
000000
000000
000000
FFFF80
FFFF80
FFFF80
FFFF80
FFFF80
FFFF00
FC0000
FC0000
FC0000
FC0000
FC0000
FC0000
FC0000
FC0000
FC0000
FC0000
FC0000
FFFE00
FFFF00
FFFF00
FFFF00
FFFE00
FFFC00
FC0000
FC0000
FC0000
FC0000
FC0000
FC0000
FC0000
FC0000
FC0000
FC0000
FC0000
FFFF00
FFFF80
FFFF80
FFFF80
FFFF80
7FFF00
ENDCHAR
STARTCHAR Igrave
ENCODING 204
SWIDTH 159 0
DWIDTH 10 0
BBX 14 52 -3 0
BITMAP
3000
FE00
FF80
7FC0
3FF0
1FF8
07FC
01FC
0078
0000
0000
0000
1F00
1F80
1F80
1F80
1F80
1F80
1F80
1F80
1F80
1F80
1F80
1F80
1F80
1F80
1F80
1F80
1F80
1F80
1F80
1F80
1F80
1F80
1F80
1F80
1F80
1F80
1F80
1F80
1F80
1F80
1F80
1F80
1F80
1F80
1F80
1F80
1F80
1F80
1F80
0F00
ENDCHAR
STARTCHAR Iacute
ENCODING 205
SWIDTH 159 0
DWIDTH 10 0
BBX 13 52 -3 0
BITMAP
0070
03F8
0FF8
1FF8
7FF0
FFC0
FF00
FE00
F000
0000
0000
0000
1F00
1F80
1F80
1F80
1F80
1F80
1F80
1F80
1F80
1F80
1F80
1F80
1F80
1F80
1F80
1F80
1F80
1F80
1F80
1F80
1F80
1F80
1F80
1F80
1F80
1F80
1F80
1F80
1F80
1F80
1F80
1F80
1F80
1F80
1F80
1F80
1F80
1F80
1F80
0F00
ENDCHAR
STARTCHAR Icircumflex
ENCODING 206
SWIDTH 159 0
DWIDTH 10 0
BBX 14 52 -4 0
BITMAP
0780
0FC0
1FE0
3FF0
3FF8
7FFC
FFFC
FEFC
7CF8
0000
0000
0000
0F80
0FC0
0FC0
0FC0
0FC0
0FC0
0FC0
0FC0
0FC0
0FC0
0FC0
0FC0
0FC0
0FC0
0FC0
0FC0
0FC0
0FC0
0FC0
0FC0
0FC0
0FC0
0FC0
0FC0
0FC0
0FC0
0FC0
0FC0
0FC0
0FC0
0FC0
0FC0
0FC0
0FC0
0FC0
0FC0
0FC0
0FC0
0FC0
0780
ENDCHAR
STARTCHAR Idieresis
ENCODING 207
SWIDTH 159 0
DWIDTH 10 0
BBX 13 50 -3 0
BITMAP
7070
F8F8
FDF8
FDF8
FDF8
F9F8
F8F8
0000
0000
0000
1F00
1F80
1F80
1F80
1F80
1F80
1F80
1F80
1F80
1F80
1F80
1F80
1F80
1F80
1F80
1F80
1F80
1F80
1F80
1F80
1F80
1F80
1F80
1F80
1F80
1F80
1F80
1F80
1F80
1F80
1F80
1F80
1F80
1F80
1F80
1F80
1F80
1F80
1F80
0F00
ENDCHAR
STARTCHAR Eth
ENCODING 208
SWIDTH 398 0
DWIDTH 24 0
BBX 24 40 -5 0
BITMAP
07FFC0
07FFF0
07FFF8
07FFFC
07FFFE
07FFFE
07E0FE
07E07E
07E07F
07E03F
07E03F
07E03F
07E03F
07E03F
07E03F
07E03F
07E03F
FFFFBF
FFFFBF
FFFFBF
FFFFBF
FFFFBF
7FFF3F
07E03F
07E03F
07E03F
07E03F
07E03F
07E03F
07E03F
07E03F
07E07F
07E07E
07E0FE
07FFFE
07FFFC
07FFFC
07FFF8
07FFF0
03FF80
ENDCHAR
STARTCHAR Ntilde
ENCODING 209
SWIDTH 410 0
DWIDTH 25 0
BBX 20 51 0 0
BITMAP
010000
0FE000
1FF3E0
3FFFF0
7FFFF0
7FFFE0
7FFFC0
7E7F80
001E00
000000
000000
F803F0
FC03F0
FC03F0
FE03F0
FE03F0
FE03F0
FF03F0
FF03F0
FF83F0
FF83F0
FF83F0
FFC3F0
FFC3F0
FFE3F0
FFE3F0
FFE3F0
FFF3F0
FFF3F0
FFFBF0
FDFBF0
FDFFF0
FDFFF0
FCFFF0
FCFFF0
FC7FF0
FC7FF0
FC7FF0
FC3FF0
FC3FF0
FC1FF0
FC1FF0
FC1FF0
FC0FF0
FC0FF0
FC07F0
FC07F0
FC07F0
FC03F0
FC03F0
7801E0
ENDCHAR
STARTCHAR Ograve
ENCODING 210
SWIDTH 406 0
DWIDTH 24 0
BBX 20 52 0 0
BITMAP
070000
0FE000
0FF800
0FFC00
07FF00
01FF80
007F80
003F80
000780
000000
000000
000000
07FE00
0FFF00
1FFF80
3FFFC0
7FFFC0
7FFFE0
7E0FE0
FE07E0
FC07F0
FC03F0
FC03F0
FC03F0
FC03F0
FC03F0
FC03F0
FC03F0
FC03F0
FC03F0
FC03F0
FC03F0
FC03F0
FC03F0
FC03F0
FC03F0
FC03F0
FC03F0
FC03F0
FC03F0
FC03F0
FC03F0
FC03F0
FE07E0
FE07E0
7F0FE0
7FFFE0
3FFFC0
3FFFC0
1FFF80
0FFF00
03F800
ENDCHAR
STARTCHAR Oacute
ENCODING 211
SWIDTH 406 0
DWIDTH 24 0
BBX 20 52 0 0
BITMAP
000E00
003F00
00FF00
03FF00
07FE00
1FF800
1FF000
1FC000
0F0000
000000
000000
000000
07FE00
0FFF00
1FFF80
3FFFC0
7FFFC0
7FFFE0
7E0FE0
FE07E0
FC07F0
FC03F0
FC03F0
FC03F0
FC03F0
FC03F0
FC03F0
FC03F0
FC03F0
FC03F0
FC03F0
FC03F0
FC03F0
FC03F0
FC03F0
FC03F0
FC03F0
FC03F0
FC03F0
FC03F0
FC03F0
FC03F0
FC03F0
FE07E0
FE07E0
7F0FE0
7FFFE0
3FFFC0
3FFFC0
1FFF80
0FFF00
03F800
ENDCHAR
STARTCHAR Ocircumflex
ENCODING 212
SWIDTH 406 0
DWIDTH 24 0
BBX 20 52 0 0
BITMAP
00F000
01F800
03FC00
07FE00
0FFF00
0FFF00
1FFF80
1F9F80
0F9F00
000000
000000
000000
07FE00
0FFF00
1FFF80
3FFFC0
7FFFC0
7FFFE0
7E0FE0
FE07E0
FC07F0
FC03F0
FC03F0
FC03F0
FC03F0
FC03F0
FC03F0
FC03F0
FC03F0
FC03F0
FC03F0
FC03F0
FC03F0
FC03F0
FC03F0
FC03F0
FC03F0
FC03F0
FC03F0
FC03F0
FC03F0
FC03F0
FC03F0
FE07E0
FE07E0
7F0FE0
7FFFE0
3FFFC0
3FFFC0
1FFF80
0FFF00
03F800
ENDCHAR
STARTCHAR Otilde
ENCODING 213
SWIDTH 406 0
DWIDTH 24 0
BBX 20 51 0 0
BITMAP
010000
0FE000
1FF7E0
3FFFE0
7FFFE0
7FFFE0
7FFFC0
7C7F80
003E00
000000
000000
07FE00
0FFF00
1FFF80
3FFFC0
7FFFC0
7FFFE0
7E0FE0
FE07E0
FC07F0
FC03F0
FC03F0
FC03F0
FC03F0
FC03F0
FC03F0
FC03F0
FC03F0
FC03F0
FC03F0
FC03F0
FC03F0
FC03F0
FC03F0
FC03F0
FC03F0
FC03F0
FC03F0
FC03F0
FC03F0
FC03F0
FC03F0
FE07E0
FE07E0
7F0FE0
7FFFE0
3FFFC0
3FFFC0
1FFF80
0FFF00
03F800
ENDCHAR
STARTCHAR Odieresis
ENCODING 214
SWIDTH 406 0
DWIDTH 24 0
BBX 20 50 0 0
BITMAP
070600
1F9F80
1F9F80
1F9F80
1F9F80
1F9F80
0F0F00
000000
000000
000000
07FE00
0FFF00
1FFF80
3FFFC0
7FFFC0
7FFFE0
7E0FE0
FE07E0
FC07F0
FC03F0
FC03F0
FC03F0
FC03F0
FC03F0
FC03F0
FC03F0
FC03F0
FC03F0
FC03F0
FC03F0
FC03F0
FC03F0
FC03F0
FC03F0
FC03F0
FC03F0
FC03F0
FC03F0
FC03F0
FC03F0
FC03F0
FE07E0
FE07E0
7F0FE0
7FFFE0
3FFFC0
3FFFC0
1FFF80
0FFF00
03F800
ENDCHAR
STARTCHAR multiply
ENCODING 215
SWIDTH 294 0
DWIDTH 18 0
BBX 14 15 0 13
BITMAP
3038
7C7C
FEFC
FFFC
FFFC
7FF8
3FF0
1FF0
3FF8
7FFC
FFFC
FFFC
FCFC
7878
3030
ENDCHAR
STARTCHAR Oslash
ENCODING 216
SWIDTH 406 0
DWIDTH 24 0
BBX 21 40 0 0
BITMAP
07FFF0
0FFFF8
1FFFF8
3FFFF0
7FFFF0
7FFFE0
7E0FE0
FE0FE0
FC0FF0
FC1FF0
FC1FF0
FC3FF0
FC3FF0
FC3FF0
FC7FF0
FC7FF0
FCFFF0
FCFFF0
FCFFF0
FDFFF0
FDFBF0
FDFBF0
FFFBF0
FFF3F0
FFF3F0
FFE3F0
FFE3F0
FFE3F0
FFC3F0
FFC3F0
FF83F0
FF87E0
FF07E0
7F0FE0
7FFFE0
7FFFC0
7FFFC0
FFFF80
FFFF00
7BF800
ENDCHAR
STARTCHAR Ugrave
ENCODING 217
SWIDTH 409 0
DWIDTH 25 0
BBX 19 51 0 0
BITMAP
0F8000
0FE000
0FF800
0FFE00
03FF00
01FF80
007F80
001F80
000000
000000
000000
F803E0
F807E0
FC07E0
FC07E0
FC07E0
FC07E0
FC07E0
FC07E0
FC07E0
FC07E0
FC07E0
FC07E0
FC07E0
FC07E0
FC07E0
FC07E0
FC07E0
FC07E0
FC07E0
FC07E0
FC07E0
FC07E0
FC07E0
FC07E0
FC07E0
FC07E0
FC07E0
FC07E0
FC07E0
FC07E0
FC07E0
FC07E0
FC07E0
FE0FE0
FFFFE0
7FFFC0
7FFFC0
3FFF80
1FFF00
07FC00
ENDCHAR
STARTCHAR Uacute
ENCODING 218
SWIDTH 409 0
DWIDTH 25 0
BBX 19 51 0 0
BITMAP
001F00
007F80
01FF80
03FF00
07FE00
0FF800
0FF000
0FC000
000000
000000
000000
F803E0
F807E0
FC07E0
FC07E0
FC07E0
FC07E0
FC07E0
FC07E0
FC07E0
FC07E0
FC07E0
FC07E0
FC07E0
FC07E0
FC07E0
FC07E0
FC07E0
FC07E0
FC07E0
FC07E0
FC07E0
FC07E0
FC07E0
FC07E0
FC07E0
FC07E0
FC07E0
FC07E0
FC07E0
FC07E0
FC07E0
FC07E0
FC07E0
FE0FE0
FFFFE0
7FFFC0
7FFFC0
3FFF80
1FFF00
07FC00
ENDCHAR
STARTCHAR Ucircumflex
ENCODING 219
SWIDTH 409 0
DWIDTH 25 0
BBX 19 51 0 0
BITMAP
01F000
03F800
07FC00
0FFC00
1FFE00
1FFF00
3FBF00
1F3F00
000000
000000
000000
F803E0
F807E0
FC07E0
FC07E0
FC07E0
FC07E0
FC07E0
FC07E0
FC07E0
FC07E0
FC07E0
FC07E0
FC07E0
FC07E0
FC07E0
FC07E0
FC07E0
FC07E0
FC07E0
FC07E0
FC07E0
FC07E0
FC07E0
FC07E0
FC07E0
FC07E0
FC07E0
FC07E0
FC07E0
FC07E0
FC07E0
FC07E0
FC07E0
FE0FE0
FFFFE0
7FFFC0
7FFFC0
3FFF80
1FFF00
07FC00
ENDCHAR
STARTCHAR Udieresis
ENCODING 220
SWIDTH 409 0
DWIDTH 25 0
BBX 19 49 0 0
BITMAP
0F1F00
1F9F80
1F9F80
1F9F80
1F9F80
1F9F00
000000
000000
000000
F803E0
F807E0
FC07E0
FC07E0
FC07E0
FC07E0
FC07E0
FC07E0
FC07E0
FC07E0
FC07E0
FC07E0
FC07E0
FC07E0
FC07E0
FC07E0
FC07E0
FC07E0
FC07E0
FC07E0
FC07E0
FC07E0
FC07E0
FC07E0
FC07E0
FC07E0
FC07E0
FC07E0
FC07E0
FC07E0
FC07E0
FC07E0
FC07E0
FE0FE0
FFFFE0
7FFFC0
7FFFC0
3FFF80
1FFF00
07FC00
ENDCHAR
STARTCHAR Yacute
ENCODING 221
SWIDTH 406 0
DWIDTH 24 0
BBX 22 52 -1 0
BITMAP
000380
001FC0
007FC0
00FFC0
03FF80
07FE00
07F800
07F000
078000
000000
000000
000000
FC00F8
FC01FC
FE01FC
7E01F8
7F03F8
7F03F0
3F87F0
3F87F0
1F8FE0
1FCFE0
0FDFC0
0FFFC0
0FFF80
07FF80
07FF80
03FF00
03FF00
01FE00
01FE00
01FC00
00FC00
00FC00
00FC00
00FC00
00FC00
00FC00
00FC00
00FC00
00FC00
00FC00
00FC00
00FC00
00FC00
00FC00
00FC00
00FC00
00FC00
00FC00
00FC00
007800
ENDCHAR
STARTCHAR Thorn
ENCODING 222
SWIDTH 386 0
DWIDTH 23 0
BBX 22 40 0 0
BITMAP
780000
FC0000
FC0000
FC0000
FC0000
FC0000
FC0000
FC0000
FC0000
FC0000
FFFE00
FFFF80
FFFFE0
FFFFF0
FFFFF0
FFFFF8
FC03F8
FC01FC
FC00FC
FC00FC
FC00FC
FC00FC
FC01FC
FC07F8
FFFFF8
FFFFF0
FFFFF0
FFFFE0
FFFF80
FFFE00
FC0000
FC0000
FC0000
FC0000
FC0000
FC0000
FC0000
FC0000
FC0000
F80000
ENDCHAR
STARTCHAR germandbls
ENCODING 223
SWIDTH 376 0
DWIDTH 23 0
BBX 19 39 0 0
BITMAP
07F000
1FFC00
3FFE00
3FFF00
7FFF00
7FFF80
FE1F80
FC1F80
FC1F80
FC0F80
FC0F80
FC0F80
FC1F80
FC1F80
FC1F80
FC3F80
FCFF00
FDFF00
FDFE00
FDFF00
FDFF80
FDFFC0
FC1FC0
FC0FE0
FC07E0
FC07E0
FC07E0
FC07E0
FC07E0
FC07E0
FC07E0
FC07E0
FC0FE0
FCFFC0
FDFFC0
FDFF80
FDFF80
F9FE00
79F800
ENDCHAR
STARTCHAR agrave
ENCODING 224
SWIDTH 442 0
DWIDTH 27 0
BBX 22 52 0 0
BITMAP
038000
03F000
07FC00
03FF00
01FF80
00FFC0
003FE0
000FE0
0003C0
000000
000000
000000
007C00
00FC00
00FC00
00FE00
00FE00
00FE00
01FE00
01FE00
01FF00
01FF00
03FF00
03FF00
03FF80
03FF80
07FF80
07EF80
07EFC0
07EFC0
0FCFC0
0FCFC0
0FCFC0
0FC7E0
0FC7E0
1FFFE0
1FFFE0
1FFFF0
1FFFF0
3FFFF0
3FFFF0
3F03F8
3F01F8
3F01F8
7E01F8
7E01F8
7E00FC
7E00FC
FE00FC
FC00FC
FC00FC
78007C
ENDCHAR
STARTCHAR aacute
ENCODING 225
SWIDTH 442 0
DWIDTH 27 0
BBX 22 52 0 0
BITMAP
000100
000FC0
003FC0
00FFC0
01FF80
07FE00
07FC00
07F000
07C000
000000
000000
000000
007C00
00FC00
00FC00
00FE00
00FE00
00FE00
01FE00
01FE00
01FF00
01FF00
03FF00
03FF00
03FF80
03FF80
07FF80
07EF80
07EFC0
07EFC0
0FCFC0
0FCFC0
0FCFC0
0FC7E0
0FC7E0
1FFFE0
1FFFE0
1FFFF0
1FFFF0
3FFFF0
3FFFF0
3F03F8
3F01F8
3F01F8
7E01F8
7E01F8
7E00FC
7E00FC
FE00FC
FC00FC
FC00FC
78007C
ENDCHAR
STARTCHAR acircumflex
ENCODING 226
SWIDTH 442 0
DWIDTH 27 0
BBX 22 52 0 0
BITMAP
003C00
007E00
00FF00
01FF00
03FF80
07FFC0
07FFC0
07EFC0
07C7C0
000000
000000
000000
007C00
00FC00
00FC00
00FE00
00FE00
00FE00
01FE00
01FE00
01FF00
01FF00
03FF00
03FF00
03FF80
03FF80
07FF80
07EF80
07EFC0
07EFC0
0FCFC0
0FCFC0
0FCFC0
0FC7E0
0FC7E0
1FFFE0
1FFFE0
1FFFF0
1FFFF0
3FFFF0
3FFFF0
3F03F8
3F01F8
3F01F8
7E01F8
7E01F8
7E00FC
7E00FC
FE00FC
FC00FC
FC00FC
78007C
ENDCHAR
STARTCHAR atilde
ENCODING 227
SWIDTH 442 0
DWIDTH 27 0
BBX 22 50 0 0
BITMAP
07F000
0FFDF8
1FFFF8
1FFFF8
3FFFF0
3FFFF0
1F3FE0
000F80
000000
000000
007C00
00FC00
00FC00
00FE00
00FE00
00FE00
01FE00
01FE00
01FF00
01FF00
03FF00
03FF00
03FF80
03FF80
07FF80
07EF80
07EFC0
07EFC0
0FCFC0
0FCFC0
0FCFC0
0FC7E0
0FC7E0
1FFFE0
1FFFE0
1FFFF0
1FFFF0
3FFFF0
3FFFF0
3F03F8
3F01F8
3F01F8
7E01F8
7E01F8
7E00FC
7E00FC
FE00FC
FC00FC
FC00FC
78007C
ENDCHAR
STARTCHAR adieresis
ENCODING 228
SWIDTH 442 0
DWIDTH 27 0
BBX 22 50 0 0
BITMAP
038380
07C7C0
07EFC0
07EFC0
07EFC0
07C7C0
07C7C0
000000
000000
000000
007C00
00FC00
00FC00
00FE00
00FE00
00FE00
01FE00
01FE00
01FF00
01FF00
03FF00
03FF00
03FF80
03FF80
07FF80
07EF80
07EFC0
07EFC0
0FCFC0
0FCFC0
0FCFC0
0FC7E0
0FC7E0
1FFFE0
1FFFE0
1FFFF0
1FFFF0
3FFFF0
3FFFF0
3F03F8
3F01F8
3F01F8
7E01F8
7E01F8
7E00FC
7E00FC
FE00FC
FC00FC
FC00FC
78007C
ENDCHAR
STARTCHAR aring
ENCODING 229
SWIDTH 442 0
DWIDTH 27 0
BBX 22 52 0 0
BITMAP
003800
007E00
00FF00
01EF00
01C700
01E700
00FF00
00FE00
007C00
000000
000000
000000
007C00
00FC00
00FC00
00FE00
00FE00
00FE00
01FE00
01FE00
01FF00
01FF00
03FF00
03FF00
03FF80
03FF80
07FF80
07EF80
07EFC0
07EFC0
0FCFC0
0FCFC0
0FCFC0
0FC7E0
0FC7E0
1FFFE0
1FFFE0
1FFFF0
1FFFF0
3FFFF0
3FFFF0
3F03F8
3F01F8
7F01F8
7E01F8
7E01F8
7E00FC
7E00FC
FE00FC
FC00FC
FC00FC
78007C
ENDCHAR
STARTCHAR ae
ENCODING 230
SWIDTH 665 0
DWIDTH 40 0
BBX 32 39 1 0
BITMAP
0000FFFE
0001FFFF
0001FFFF
0003FFFF
0003FFFF
0007FFFE
0007F800
0007F800
000FF800
000FF800
001FF800
001FF800
003FF800
003FF800
007FF800
007FF800
007FF800
00FFFFFF
00FDFFFF
01FDFFFF
01F9FFFF
03F9FFFF
03F1F800
07FFF800
07FFF800
07FFF800
0FFFF800
0FFFF800
1FC1F800
1F81F800
3F81F800
3F01F800
7F01F800
7E01FFFE
FE01FFFF
FC01FFFF
FC01FFFF
F801FFFF
F800FFFE
ENDCHAR
STARTCHAR ccedilla
ENCODING 231
SWIDTH 394 0
DWIDTH 24 0
BBX 20 53 0 -13
BITMAP
07FC00
0FFF00
1FFF80
3FFFC0
7FFFC0
7FFFE0
7E0FE0
FE07E0
FC07E0
FC07F0
FC03F0
FC03F0
FC03F0
FC03E0
FC0000
FC0000
FC0000
FC0000
FC0000
FC0000
FC0000
FC0000
FC0000
FC0000
FC0000
FC01C0
FC03E0
FC03F0
FC03F0
FC03F0
FC07E0
FC07E0
FE07E0
7F0FE0
7FFFE0
7FFFC0
3FFF80
1FFF80
0FFE00
03F800
00F000
00F000
00F800
00FF00
00FF80
00FF80
00FFC0
0207C0
07FFC0
07FF80
07FF80
03FE00
003000
ENDCHAR
STARTCHAR egrave
ENCODING 232
SWIDTH 353 0
DWIDTH 21 0
BBX 17 52 0 -1
BITMAP
1F8000
1FE000
1FF000
0FFC00
07FE00
01FF00
00FF00
003F00
000000
000000
000000
7FFF00
FFFF80
FFFF80
FFFF80
FFFF80
FFFF00
FC0000
FC0000
FC0000
FC0000
FC0000
FC0000
FC0000
FC0000
FC0000
FC0000
FC0000
FFFC00
FFFE00
FFFF00
FFFF00
FFFF00
FFFE00
FC0000
FC0000
FC0000
FC0000
FC0000
FC0000
FC0000
FC0000
FC0000
FC0000
FC0000
FC0000
FFFF80
FFFF80
FFFF80
FFFF80
FFFF80
3FFE00
ENDCHAR
STARTCHAR eacute
ENCODING 233
SWIDTH 353 0
DWIDTH 21 0
BBX 17 52 0 0
BITMAP
001C00
007E00
01FF00
07FE00
0FFC00
1FF800
3FE000
3F8000
1E0000
000000
000000
000000
FFFF80
FFFF80
FFFF80
FFFF80
FFFF80
FFFF00
FC0000
FC0000
FC0000
FC0000
FC0000
FC0000
FC0000
FC0000
FC0000
FC0000
FC0000
FFFE00
FFFF00
FFFF00
FFFF00
FFFE00
FFFC00
FC0000
FC0000
FC0000
FC0000
FC0000
FC0000
FC0000
FC0000
FC0000
FC0000
FC0000
FFFF00
FFFF80
FFFF80
FFFF80
FFFF80
7FFF00
ENDCHAR
STARTCHAR ecircumflex
ENCODING 234
SWIDTH 353 0
DWIDTH 21 0
BBX 17 52 0 0
BITMAP
01E000
03F000
07F800
0FF800
1FFC00
3FFE00
3FFE00
3F7E00
3E3E00
000000
000000
000000
FFFF80
FFFF80
FFFF80
FFFF80
FFFF80
FFFF00
FC0000
FC0000
FC0000
FC0000
FC0000
FC0000
FC0000
FC0000
FC0000
FC0000
FC0000
FFFE00
FFFF00
FFFF00
FFFF00
FFFE00
FFFC00
FC0000
FC0000
FC0000
FC0000
FC0000
FC0000
FC0000
FC0000
FC0000
FC0000
FC0000
FFFF00
FFFF80
FFFF80
FFFF80
FFFF80
7FFF00
ENDCHAR
STARTCHAR edieresis
ENCODING 235
SWIDTH 353 0
DWIDTH 21 0
BBX 17 50 0 0
BITMAP
1C1C00
3F3F00
3F3F00
3F3F00
3F3F00
3F3F00
1E1E00
000000
000000
000000
FFFF80
FFFF80
FFFF80
FFFF80
FFFF80
FFFF00
FC0000
FC0000
FC0000
FC0000
FC0000
FC0000
FC0000
FC0000
FC0000
FC0000
FC0000
FFFE00
FFFF00
FFFF00
FFFF00
FFFE00
FFFC00
FC0000
FC0000
FC0000
FC0000
FC0000
FC0000
FC0000
FC0000
FC0000
FC0000
FC0000
FFFF00
FFFF80
FFFF80
FFFF80
FFFF80
7FFF00
ENDCHAR
STARTCHAR igrave
ENCODING 236
SWIDTH 159 0
DWIDTH 10 0
BBX 14 52 -3 0
BITMAP
3000
FE00
FF80
7FC0
3FF0
1FF8
07FC
01FC
0078
0000
0000
0000
1F00
1F80
1F80
1F80
1F80
1F80
1F80
1F80
1F80
1F80
1F80
1F80
1F80
1F80
1F80
1F80
1F80
1F80
1F80
1F80
1F80
1F80
1F80
1F80
1F80
1F80
1F80
1F80
1F80
1F80
1F80
1F80
1F80
1F80
1F80
1F80
1F80
1F80
1F80
0F00
ENDCHAR
STARTCHAR iacute
ENCODING 237
SWIDTH 159 0
DWIDTH 10 0
BBX 13 52 -3 0
BITMAP
0070
03F8
0FF8
1FF8
7FF0
FFC0
FF00
FE00
F000
0000
0000
0000
1F00
1F80
1F80
1F80
1F80
1F80
1F80
1F80
1F80
1F80
1F80
1F80
1F80
1F80
1F80
1F80
1F80
1F80
1F80
1F80
1F80
1F80
1F80
1F80
1F80
1F80
1F80
1F80
1F80
1F80
1F80
1F80
1F80
1F80
1F80
1F80
1F80
1F80
1F80
0F00
ENDCHAR
STARTCHAR icircumflex
ENCODING 238
SWIDTH 159 0
DWIDTH 10 0
BBX 14 52 -4 0
BITMAP
0780
0FC0
1FE0
3FF0
3FF8
7FFC
FFFC
FEFC
7CF8
0000
0000
0000
0F80
0FC0
0FC0
0FC0
0FC0
0FC0
0FC0
0FC0
0FC0
0FC0
0FC0
0FC0
0FC0
0FC0
0FC0
0FC0
0FC0
0FC0
0FC0
0FC0
0FC0
0FC0
0FC0
0FC0
0FC0
0FC0
0FC0
0FC0
0FC0
0FC0
0FC0
0FC0
0FC0
0FC0
0FC0
0FC0
0FC0
0FC0
0FC0
0780
ENDCHAR
STARTCHAR idieresis
ENCODING 239
SWIDTH 159 0
DWIDTH 10 0
BBX 13 50 -3 0
BITMAP
7070
F8F8
FDF8
FDF8
FDF8
F9F8
F8F8
0000
0000
0000
1F00
1F80
1F80
1F80
1F80
1F80
1F80
1F80
1F80
1F80
1F80
1F80
1F80
1F80
1F80
1F80
1F80
1F80
1F80
1F80
1F80
1F80
1F80
1F80
1F80
1F80
1F80
1F80
1F80
1F80
1F80
1F80
1F80
1F80
1F80
1F80
1F80
1F80
1F80
0F00
ENDCHAR
STARTCHAR eth
ENCODING 240
SWIDTH 398 0
DWIDTH 24 0
BBX 23 39 -5 0
BITMAP
03FF80
07FFE0
07FFF0
07FFF8
07FFFC
07FFFC
07E0FE
07E07E
07E07E
07E07E
07E07E
07E03E
07E03E
07E03E
07E03E
07E03E
07E03E
7FFF3E
FFFFBE
FFFFBE
FFFFBE
FFFFBE
07FF3E
07E03E
07E03E
07E03E
07E03E
07E03E
07E07E
07E07E
07E07E
07E07E
07E0FE
07FFFC
07FFFC
07FFF8
07FFF0
07FFE0
03FF80
ENDCHAR
STARTCHAR ntilde
ENCODING 241
SWIDTH 410 0
DWIDTH 25 0
BBX 20 51 0 0
BITMAP
010000
0FE000
1FF3E0
3FFFF0
7FFFF0
7FFFE0
7FFFC0
7E7F80
001E00
000000
000000
F803F0
FC03F0
FC03F0
FE03F0
FE03F0
FE03F0
FF03F0
FF03F0
FF83F0
FF83F0
FF83F0
FFC3F0
FFC3F0
FFE3F0
FFE3F0
FFE3F0
FFF3F0
FFF3F0
FFFBF0
FDFBF0
FDFFF0
FDFFF0
FCFFF0
FCFFF0
FC7FF0
FC7FF0
FC7FF0
FC3FF0
FC3FF0
FC1FF0
FC1FF0
FC1FF0
FC0FF0
FC0FF0
FC07F0
FC07F0
FC07F0
FC03F0
FC03F0
7801E0
ENDCHAR
STARTCHAR ograve
ENCODING 242
SWIDTH 406 0
DWIDTH 24 0
BBX 20 52 0 0
BITMAP
070000
0FE000
0FF800
0FFC00
07FF00
01FF80
007F80
003F80
000780
000000
000000
000000
07FE00
0FFF00
1FFF80
3FFFC0
7FFFC0
7FFFE0
7E0FE0
FE07E0
FC07F0
FC03F0
FC03F0
FC03F0
FC03F0
FC03F0
FC03F0
FC03F0
FC03F0
FC03F0
FC03F0
FC03F0
FC03F0
FC03F0
FC03F0
FC03F0
FC03F0
FC03F0
FC03F0
FC03F0
FC03F0
FC03F0
FC03F0
FE07E0
FE07E0
7F0FE0
7FFFE0
3FFFC0
3FFFC0
1FFF80
0FFF00
03F800
ENDCHAR
STARTCHAR oacute
ENCODING 243
SWIDTH 406 0
DWIDTH 24 0
BBX 20 52 0 0
BITMAP
000700
003F80
00FF80
01FF80
07FF00
0FFC00
0FF000
0FE000
0F0000
000000
000000
000000
07FE00
0FFF00
1FFF80
3FFFC0
7FFFC0
7FFFE0
7E0FE0
FE07E0
FC07F0
FC03F0
FC03F0
FC03F0
FC03F0
FC03F0
FC03F0
FC03F0
FC03F0
FC03F0
FC03F0
FC03F0
FC03F0
FC03F0
FC03F0
FC03F0
FC03F0
FC03F0
FC03F0
FC03F0
FC03F0
FC03F0
FC03F0
FE07E0
FE07E0
7F0FE0
7FFFE0
3FFFC0
3FFFC0
1FFF80
0FFF00
03F800
ENDCHAR
STARTCHAR ocircumflex
ENCODING 244
SWIDTH 406 0
DWIDTH 24 0
BBX 20 52 0 0
BITMAP
00F000
01F800
03FC00
07FE00
0FFF00
0FFF00
1FFF80
1F9F80
0F9F00
000000
000000
000000
07FE00
0FFF00
1FFF80
3FFFC0
7FFFC0
7FFFE0
7E0FE0
FE07E0
FC07F0
FC03F0
FC03F0
FC03F0
FC03F0
FC03F0
FC03F0
FC03F0
FC03F0
FC03F0
FC03F0
FC03F0
FC03F0
FC03F0
FC03F0
FC03F0
FC03F0
FC03F0
FC03F0
FC03F0
FC03F0
FC03F0
FC03F0
FE07E0
FE07E0
7F0FE0
7FFFE0
3FFFC0
3FFFC0
1FFF80
0FFF00
03F800
ENDCHAR
STARTCHAR otilde
ENCODING 245
SWIDTH 406 0
DWIDTH 24 0
BBX 20 51 0 0
BITMAP
010000
0FE000
1FF7E0
3FFFE0
7FFFE0
7FFFE0
7FFFC0
7C7F80
003E00
000000
000000
07FE00
0FFF00
1FFF80
3FFFC0
7FFFC0
7FFFE0
7E0FE0
FE07E0
FC07F0
FC03F0
FC03F0
FC03F0
FC03F0
FC03F0
FC03F0
FC03F0
FC03F0
FC03F0
FC03F0
FC03F0
FC03F0
FC03F0
FC03F0
FC03F0
FC03F0
FC03F0
FC03F0
FC03F0
FC03F0
FC03F0
FC03F0
FE07E0
FE07E0
7F0FE0
7FFFE0
3FFFC0
3FFFC0
1FFF80
0FFF00
03F800
ENDCHAR
STARTCHAR odieresis
ENCODING 246
SWIDTH 406 0
DWIDTH 24 0
BBX 20 50 0 0
BITMAP
070600
1F9F80
1F9F80
1F9F80
1F9F80
1F9F80
0F0F00
000000
000000
000000
07FE00
0FFF00
1FFF80
3FFFC0
7FFFC0
7FFFE0
7E0FE0
FE07E0
FC07F0
FC03F0
FC03F0
FC03F0
FC03F0
FC03F0
FC03F0
FC03F0
FC03F0
FC03F0
FC03F0
FC03F0
FC03F0
FC03F0
FC03F0
FC03F0
FC03F0
FC03F0
FC03F0
FC03F0
FC03F0
FC03F0
FC03F0
FE07E0
FE07E0
7F0FE0
7FFFE0
3FFFC0
3FFFC0
1FFF80
0FFF00
03F800
ENDCHAR
STARTCHAR divide
ENCODING 247
SWIDTH 163 0
DWIDTH 10 0
BBX 6 23 0 9
BITMAP
78
FC
FC
FC
FC
FC
FC
F8
00
00
00
00
00
00
00
F8
FC
FC
FC
FC
FC
FC
78
ENDCHAR
STARTCHAR oslash
ENCODING 248
SWIDTH 406 0
DWIDTH 24 0
BBX 21 40 0 0
BITMAP
07FFF0
0FFFF8
1FFFF8
3FFFF0
7FFFF0
7FFFE0
7E0FE0
FE0FE0
FC0FF0
FC1FF0
FC1FF0
FC3FF0
FC3FF0
FC3FF0
FC7FF0
FC7FF0
FCFFF0
FCFFF0
FCFFF0
FDFFF0
FDFBF0
FDFBF0
FFFBF0
FFF3F0
FFF3F0
FFE3F0
FFE3F0
FFE3F0
FFC3F0
FFC3F0
FF83F0
FF87E0
FF07E0
7F0FE0
7FFFE0
7FFFC0
7FFFC0
FFFF80
FFFF00
7BF800
ENDCHAR
STARTCHAR ugrave
ENCODING 249
SWIDTH 409 0
DWIDTH 25 0
BBX 19 51 0 0
BITMAP
0F8000
0FE000
0FF800
0FFE00
03FF00
01FF80
007F80
001F80
000000
000000
000000
F803E0
F807E0
FC07E0
FC07E0
FC07E0
FC07E0
FC07E0
FC07E0
FC07E0
FC07E0
FC07E0
FC07E0
FC07E0
FC07E0
FC07E0
FC07E0
FC07E0
FC07E0
FC07E0
FC07E0
FC07E0
FC07E0
FC07E0
FC07E0
FC07E0
FC07E0
FC07E0
FC07E0
FC07E0
FC07E0
FC07E0
FC07E0
FC07E0
FE0FE0
FFFFE0
7FFFC0
7FFFC0
3FFF80
1FFF00
07FC00
ENDCHAR
STARTCHAR uacute
ENCODING 250
SWIDTH 409 0
DWIDTH 25 0
BBX 19 51 0 0
BITMAP
001F00
007F80
01FF80
03FF00
07FE00
0FF800
0FF000
0FC000
000000
000000
000000
F803E0
F807E0
FC07E0
FC07E0
FC07E0
FC07E0
FC07E0
FC07E0
FC07E0
FC07E0
FC07E0
FC07E0
FC07E0
FC07E0
FC07E0
FC07E0
FC07E0
FC07E0
FC07E0
FC07E0
FC07E0
FC07E0
FC07E0
FC07E0
FC07E0
FC07E0
FC07E0
FC07E0
FC07E0
FC07E0
FC07E0
FC07E0
FC07E0
FE0FE0
FFFFE0
7FFFC0
7FFFC0
3FFF80
1FFF00
07FC00
ENDCHAR
STARTCHAR ucircumflex
ENCODING 251
SWIDTH 409 0
DWIDTH 25 0
BBX 19 51 0 0
BITMAP
01F000
03F800
07FC00
0FFC00
1FFE00
1FFF00
3FBF00
1F3F00
000000
000000
000000
F803E0
F807E0
FC07E0
FC07E0
FC07E0
FC07E0
FC07E0
FC07E0
FC07E0
FC07E0
FC07E0
FC07E0
FC07E0
FC07E0
FC07E0
FC07E0
FC07E0
FC07E0
FC07E0
FC07E0
FC07E0
FC07E0
FC07E0
FC07E0
FC07E0
FC07E0
FC07E0
FC07E0
FC07E0
FC07E0
FC07E0
FC07E0
FC07E0
FE0FE0
FFFFE0
7FFFC0
7FFFC0
3FFF80
1FFF00
07FC00
ENDCHAR
STARTCHAR udieresis
ENCODING 252
SWIDTH 409 0
DWIDTH 25 0
BBX 19 49 0 0
BITMAP
0F1F00
1F9F80
1F9F80
1F9F80
1F9F80
1F9F00
000000
000000
000000
F803E0
F807E0
FC07E0
FC07E0
FC07E0
FC07E0
FC07E0
FC07E0
FC07E0
FC07E0
FC07E0
FC07E0
FC07E0
FC07E0
FC07E0
FC07E0
FC07E0
FC07E0
FC07E0
FC07E0
FC07E0
FC07E0
FC07E0
FC07E0
FC07E0
FC07E0
FC07E0
FC07E0
FC07E0
FC07E0
FC07E0
FC07E0
FC07E0
FE0FE0
FFFFE0
7FFFC0
7FFFC0
3FFF80
1FFF00
07FC00
ENDCHAR
STARTCHAR yacute
ENCODING 253
SWIDTH 406 0
DWIDTH 24 0
BBX 22 52 -1 0
BITMAP
000380
001FC0
007FC0
00FFC0
03FF80
07FE00
07F800
07F000
078000
000000
000000
000000
FC00F8
FC01FC
FE01FC
7E01F8
7F03F8
7F03F0
3F87F0
3F87F0
1F8FE0
1FCFE0
0FDFC0
0FFFC0
0FFF80
07FF80
07FF80
03FF00
03FF00
01FE00
01FE00
01FC00
00FC00
00FC00
00FC00
00FC00
00FC00
00FC00
00FC00
00FC00
00FC00
00FC00
00FC00
00FC00
00FC00
00FC00
00FC00
00FC00
00FC00
00FC00
00FC00
007800
ENDCHAR
STARTCHAR thorn
ENCODING 254
SWIDTH 386 0
DWIDTH 23 0
BBX 21 39 0 0
BITMAP
780000
FC0000
FC0000
FC0000
FC0000
FC0000
FC0000
FC0000
FC0000
FC0000
FFFE00
FFFF80
FFFFC0
FFFFE0
FFFFF0
FFFFF8
FC03F8
FC01F8
FC01F8
FC00F8
FC01F8
FC01F8
FC03F8
FFFFF8
FFFFF0
FFFFE0
FFFFC0
FFFF80
FFFC00
FC0000
FC0000
FC0000
FC0000
FC0000
FC0000
FC0000
FC0000
FC0000
780000
ENDCHAR
STARTCHAR ydieresis
ENCODING 255
SWIDTH 406 0
DWIDTH 24 0
BBX 22 50 -1 0
BITMAP
038300
0FCFC0
0FCFC0
0FCFC0
0FCFC0
0FCFC0
078780
000000
000000
000000
FC00F8
FC01FC
FE01FC
7E01F8
7F03F8
7F03F0
3F87F0
3F87F0
1F8FE0
1FCFE0
0FDFC0
0FFFC0
0FFF80
07FF80
07FF80
03FF00
03FF00
01FE00
01FE00
01FC00
00FC00
00FC00
00FC00
00FC00
00FC00
00FC00
00FC00
00FC00
00FC00
00FC00
00FC00
00FC00
00FC00
00FC00
00FC00
00FC00
00FC00
00FC00
00FC00
007800
ENDCHAR
STARTCHAR Amacron
ENCODING 256
SWIDTH 442 0
DWIDTH 27 0
BBX 22 49 0 0
BITMAP
07FF80
07FFC0
07FFC0
07FFC0
07FFC0
07FFC0
000000
000000
000000
007C00
00FC00
00FC00
00FE00
00FE00
00FE00
01FE00
01FE00
01FF00
01FF00
03FF00
03FF00
03FF80
03FF80
07FF80
07EF80
07EFC0
07EFC0
0FCFC0
0FCFC0
0FCFC0
0FC7E0
0FC7E0
1FFFE0
1FFFE0
1FFFF0
1FFFF0
3FFFF0
3FFFF0
3F03F8
3F01F8
3F01F8
7E01F8
7E01F8
7E00FC
7E00FC
FE00FC
FC00FC
FC00FC
78007C
ENDCHAR
STARTCHAR amacron
ENCODING 257
SWIDTH 442 0
DWIDTH 27 0
BBX 22 49 0 0
BITMAP
07FF80
07FFC0
07FFC0
07FFC0
07FFC0
07FFC0
000000
000000
000000
007C00
00FC00
00FC00
00FE00
00FE00
00FE00
01FE00
01FE00
01FF00
01FF00
03FF00
03FF00
03FF80
03FF80
07FF80
07EF80
07EFC0
07EFC0
0FCFC0
0FCFC0
0FCFC0
0FC7E0
0FC7E0
1FFFE0
1FFFE0
1FFFF0
1FFFF0
3FFFF0
3FFFF0
3F03F8
3F01F8
3F01F8
7E01F8
7E01F8
7E00FC
7E00FC
FE00FC
FC00FC
FC00FC
78007C
ENDCHAR
STARTCHAR Cacute
ENCODING 262
SWIDTH 394 0
DWIDTH 24 0
BBX 20 52 0 0
BITMAP
000700
003F80
007F80
01FF80
03FF00
0FFC00
0FF800
0FE000
070000
000000
000000
000000
07FC00
0FFF00
1FFF80
3FFFC0
7FFFC0
7FFFE0
7E0FE0
FE07E0
FC07E0
FC07F0
FC03F0
FC03F0
FC03F0
FC03E0
FC0000
FC0000
FC0000
FC0000
FC0000
FC0000
FC0000
FC0000
FC0000
FC0000
FC0000
FC01C0
FC03E0
FC03F0
FC03F0
FC03F0
FC07E0
FC07E0
FE07E0
7F0FE0
7FFFE0
7FFFC0
3FFF80
1FFF80
0FFE00
03F800
ENDCHAR
STARTCHAR cacute
ENCODING 263
SWIDTH 394 0
DWIDTH 24 0
BBX 20 52 0 0
BITMAP
000700
003F80
007F80
01FF80
03FF00
0FFC00
0FF800
0FE000
070000
000000
000000
000000
07FC00
0FFF00
1FFF80
3FFFC0
7FFFC0
7FFFE0
7E0FE0
FE07E0
FC07E0
FC07F0
FC03F0
FC03F0
FC03F0
FC03E0
FC0000
FC0000
FC0000
FC0000
FC0000
FC0000
FC0000
FC0000
FC0000
FC0000
FC0000
FC01C0
FC03E0
FC03F0
FC03F0
FC03F0
FC07E0
FC07E0
FE07E0
7F0FE0
7FFFE0
7FFFC0
3FFF80
1FFF80
0FFE00
03F800
ENDCHAR
STARTCHAR Ccircumflex
ENCODING 264
SWIDTH 394 0
DWIDTH 24 0
BBX 20 52 0 0
BITMAP
00F000
01F800
03FC00
07FE00
0FFE00
1FFF00
1FFF80
1FBF80
0F1F00
000000
000000
000000
07FC00
0FFF00
1FFF80
3FFFC0
7FFFC0
7FFFE0
7E0FE0
FE07E0
FC07E0
FC07F0
FC03F0
FC03F0
FC03F0
FC03E0
FC0000
FC0000
FC0000
FC0000
FC0000
FC0000
FC0000
FC0000
FC0000
FC0000
FC0000
FC01C0
FC03E0
FC03F0
FC03F0
FC03F0
FC07E0
FC07E0
FE07E0
7F0FE0
7FFFE0
7FFFC0
3FFF80
1FFF80
0FFE00
03F800
ENDCHAR
STARTCHAR ccircumflex
ENCODING 265
SWIDTH 394 0
DWIDTH 24 0
BBX 20 52 0 0
BITMAP
00F000
01F800
03FC00
07FE00
0FFE00
1FFF00
1FFF80
1FBF80
0F1F00
000000
000000
000000
07FC00
0FFF00
1FFF80
3FFFC0
7FFFC0
7FFFE0
7E0FE0
FE07E0
FC07E0
FC07F0
FC03F0
FC03F0
FC03F0
FC03E0
FC0000
FC0000
FC0000
FC0000
FC0000
FC0000
FC0000
FC0000
FC0000
FC0000
FC0000
FC01C0
FC03E0
FC03F0
FC03F0
FC03F0
FC07E0
FC07E0
FE07E0
7F0FE0
7FFFE0
7FFFC0
3FFF80
1FFF80
0FFE00
03F800
ENDCHAR
STARTCHAR Cdotaccent
ENCODING 266
SWIDTH 394 0
DWIDTH 24 0
BBX 20 49 0 0
BITMAP
01F000
01F800
01F800
01F800
01F800
01F000
000000
000000
000000
07FC00
0FFF00
1FFF80
3FFFC0
7FFFC0
7FFFE0
7E0FE0
FE07E0
FC07E0
FC07F0
FC03F0
FC03F0
FC03F0
FC03E0
FC0000
FC0000
FC0000
FC0000
FC0000
FC0000
FC0000
FC0000
FC0000
FC0000
FC0000
FC01C0
FC03E0
FC03F0
FC03F0
FC03F0
FC07E0
FC07E0
FE07E0
7F0FE0
7FFFE0
7FFFC0
3FFF80
1FFF80
0FFE00
03F800
ENDCHAR
STARTCHAR cdotaccent
ENCODING 267
SWIDTH 394 0
DWIDTH 24 0
BBX 20 49 0 0
BITMAP
01F000
01F800
01F800
01F800
01F800
01F000
000000
000000
000000
07FC00
0FFF00
1FFF80
3FFFC0
7FFFC0
7FFFE0
7E0FE0
FE07E0
FC07E0
FC07F0
FC03F0
FC03F0
FC03F0
FC03E0
FC0000
FC0000
FC0000
FC0000
FC0000
FC0000
FC0000
FC0000
FC0000
FC0000
FC0000
FC01C0
FC03E0
FC03F0
FC03F0
FC03F0
FC07E0
FC07E0
FE07E0
7F0FE0
7FFFE0
7FFFC0
3FFF80
1FFF80
0FFE00
03F800
ENDCHAR
STARTCHAR Ccaron
ENCODING 268
SWIDTH 394 0
DWIDTH 24 0
BBX 20 52 0 0
BITMAP
0F0F00
1F9F80
1FFF80
1FFF00
0FFF00
07FE00
03FC00
01F800
00F000
000000
000000
000000
07FC00
0FFF00
1FFF80
3FFFC0
7FFFC0
7FFFE0
7E0FE0
FE07E0
FC07E0
FC07F0
FC03F0
FC03F0
FC03F0
FC03E0
FC0000
FC0000
FC0000
FC0000
FC0000
FC0000
FC0000
FC0000
FC0000
FC0000
FC0000
FC01C0
FC03E0
FC03F0
FC03F0
FC03F0
FC07E0
FC07E0
FE07E0
7F0FE0
7FFFE0
7FFFC0
3FFF80
1FFF80
0FFE00
03F800
ENDCHAR
STARTCHAR ccaron
ENCODING 269
SWIDTH 394 0
DWIDTH 24 0
BBX 20 52 0 0
BITMAP
0F0F00
1F9F80
1FFF80
1FFF00
0FFF00
07FE00
03FC00
01F800
00F000
000000
000000
000000
07FC00
0FFF00
1FFF80
3FFFC0
7FFFC0
7FFFE0
7E0FE0
FE07E0
FC07E0
FC07F0
FC03F0
FC03F0
FC03F0
FC03E0
FC0000
FC0000
FC0000
FC0000
FC0000
FC0000
FC0000
FC0000
FC0000
FC0000
FC0000
FC01C0
FC03E0
FC03F0
FC03F0
FC03F0
FC07E0
FC07E0
FE07E0
7F0FE0
7FFFE0
7FFFC0
3FFF80
1FFF80
0FFE00
03F800
ENDCHAR
STARTCHAR Dcaron
ENCODING 270
SWIDTH 398 0
DWIDTH 24 0
BBX 19 52 0 0
BITMAP
1E3C00
3F7E00
3F7F00
3FFE00
1FFC00
0FFC00
07F800
07F000
03E000
000000
000000
000000
7FFC00
FFFE00
FFFF00
FFFF80
FFFFC0
FFFFC0
FC1FC0
FC0FE0
FC07E0
FC07E0
FC07E0
FC07E0
FC07E0
FC07E0
FC07E0
FC07E0
FC07E0
FC07E0
FC07E0
FC07E0
FC07E0
FC07E0
FC07E0
FC07E0
FC07E0
FC07E0
FC07E0
FC07E0
FC07E0
FC07E0
FC07E0
FC0FE0
FC0FE0
FC1FC0
FFFFC0
FFFF80
FFFF80
FFFF00
FFFE00
7FF000
ENDCHAR
STARTCHAR dcaron
ENCODING 271
SWIDTH 398 0
DWIDTH 24 0
BBX 19 52 0 0
BITMAP
1E3C00
3F7E00
3F7F00
3FFE00
1FFC00
0FFC00
07F800
07F000
03E000
000000
000000
000000
7FFC00
FFFE00
FFFF00
FFFF80
FFFFC0
FFFFC0
FC1FC0
FC0FE0
FC07E0
FC07E0
FC07E0
FC07E0
FC07E0
FC07E0
FC07E0
FC07E0
FC07E0
FC07E0
FC07E0
FC07E0
FC07E0
FC07E0
FC07E0
FC07E0
FC07E0
FC07E0
FC07E0
FC07E0
FC07E0
FC07E0
FC07E0
FC0FE0
FC0FE0
FC1FC0
FFFFC0
FFFF80
FFFF80
FFFF00
FFFE00
7FF000
ENDCHAR
STARTCHAR Dcroat
ENCODING 272
SWIDTH 418 0
DWIDTH 25 0
BBX 23 40 -1 0
BITMAP
07FFC0
0FFFF0
0FFFF8
0FFFF8
0FFFFC
0FFFFC
0FC0FE
0FC0FE
0FC07E
0FC07E
0FC07E
0FC07E
0FC07E
0FC07E
0FC07E
0FC07E
0FC07E
7FFE7E
FFFE7E
FFFE7E
FFFE7E
FFFE7E
7FFC7E
0FC07E
0FC07E
0FC07E
0FC07E
0FC07E
0FC07E
0FC07E
0FC07E
0FC07E
0FC0FE
0FC1FE
0FFFFC
0FFFFC
0FFFF8
0FFFF0
07FFE0
07FF80
ENDCHAR
STARTCHAR dcroat
ENCODING 273
SWIDTH 418 0
DWIDTH 25 0
BBX 23 39 -1 0
BITMAP
07FF00
07FFC0
07FFF0
07FFF8
07FFF8
07FFFC
07C1FC
07C0FC
07C07E
07C07E
07C07E
07C07E
07C07E
07C07E
07C07E
07C07E
07C07E
7FFE7E
FFFE7E
FFFE7E
FFFE7E
7FFE7E
07C07E
07C07E
07C07E
07C07E
07C07E
07C07E
07C07E
07C07E
07C07E
07C0FC
07C1FC
07FFFC
07FFF8
07FFF8
07FFF0
07FFE0
07FF00
ENDCHAR
STARTCHAR Emacron
ENCODING 274
SWIDTH 353 0
DWIDTH 21 0
BBX 17 49 0 0
BITMAP
1FFE00
3FFE00
3FFF00
3FFF00
3FFE00
1FFE00
000000
000000
000000
FFFF80
FFFF80
FFFF80
FFFF80
FFFF80
FFFF00
FC0000
FC0000
FC0000
FC0000
FC0000
FC0000
FC0000
FC0000
FC0000
FC0000
FC0000
FFFE00
FFFF00
FFFF00
FFFF00
FFFE00
FFFC00
FC0000
FC0000
FC0000
FC0000
FC0000
FC0000
FC0000
FC0000
FC0000
FC0000
FC0000
FFFF00
FFFF80
FFFF80
FFFF80
FFFF80
7FFF00
ENDCHAR
STARTCHAR emacron
ENCODING 275
SWIDTH 353 0
DWIDTH 21 0
BBX 17 49 0 0
BITMAP
1FFE00
3FFE00
3FFF00
3FFF00
3FFE00
1FFE00
000000
000000
000000
FFFF80
FFFF80
FFFF80
FFFF80
FFFF80
FFFF00
FC0000
FC0000
FC0000
FC0000
FC0000
FC0000
FC0000
FC0000
FC0000
FC0000
FC0000
FFFE00
FFFF00
FFFF00
FFFF00
FFFE00
FFFC00
FC0000
FC0000
FC0000
FC0000
FC0000
FC0000
FC0000
FC0000
FC0000
FC0000
FC0000
FFFF00
FFFF80
FFFF80
FFFF80
FFFF80
7FFF00
ENDCHAR
STARTCHAR Ebreve
ENCODING 276
SWIDTH 353 0
DWIDTH 21 0
BBX 17 51 0 0
BITMAP
3C3C00
7E3E00
7FFE00
7FFE00
3FFE00
3FFC00
1FF800
07F000
000000
000000
000000
FFFF80
FFFF80
FFFF80
FFFF80
FFFF80
FFFF00
FC0000
FC0000
FC0000
FC0000
FC0000
FC0000
FC0000
FC0000
FC0000
FC0000
FC0000
FFFE00
FFFF00
FFFF00
FFFF00
FFFE00
FFFC00
FC0000
FC0000
FC0000
FC0000
FC0000
FC0000
FC0000
FC0000
FC0000
FC0000
FC0000
FFFF00
FFFF80
FFFF80
FFFF80
FFFF80
7FFF00
ENDCHAR
STARTCHAR ebreve
ENCODING 277
SWIDTH 353 0
DWIDTH 21 0
BBX 17 51 0 0
BITMAP
3C3C00
7E3E00
7FFE00
7FFE00
3FFE00
3FFC00
1FF800
07F000
000000
000000
000000
FFFF80
FFFF80
FFFF80
FFFF80
FFFF80
FFFF00
FC0000
FC0000
FC0000
FC0000
FC0000
FC0000
FC0000
FC0000
FC0000
FC0000
FC0000
FFFE00
FFFF00
FFFF00
FFFF00
FFFE00
FFFC00
FC0000
FC0000
FC0000
FC0000
FC0000
FC0000
FC0000
FC0000
FC0000
FC0000
FC0000
FFFF00
FFFF80
FFFF80
FFFF80
FFFF80
7FFF00
ENDCHAR
STARTCHAR Edotaccent
ENCODING 278
SWIDTH 353 0
DWIDTH 21 0
BBX 17 49 0 0
BITMAP
01F000
03F000
03F000
03F000
03F000
01F000
000000
000000
000000
FFFF80
FFFF80
FFFF80
FFFF80
FFFF80
FFFF00
FC0000
FC0000
FC0000
FC0000
FC0000
FC0000
FC0000
FC0000
FC0000
FC0000
FC0000
FFFE00
FFFF00
FFFF00
FFFF00
FFFE00
FFFC00
FC0000
FC0000
FC0000
FC0000
FC0000
FC0000
FC0000
FC0000
FC0000
FC0000
FC0000
FFFF00
FFFF80
FFFF80
FFFF80
FFFF80
7FFF00
ENDCHAR
STARTCHAR edotaccent
ENCODING 279
SWIDTH 353 0
DWIDTH 21 0
BBX 17 49 0 0
BITMAP
01F000
03F000
03F000
03F000
03F000
01F000
000000
000000
000000
FFFF80
FFFF80
FFFF80
FFFF80
FFFF80
FFFF00
FC0000
FC0000
FC0000
FC0000
FC0000
FC0000
FC0000
FC0000
FC0000
FC0000
FC0000
FFFE00
FFFF00
FFFF00
FFFF00
FFFE00
FFFC00
FC0000
FC0000
FC0000
FC0000
FC0000
FC0000
FC0000
FC0000
FC0000
FC0000
FC0000
FFFF00
FFFF80
FFFF80
FFFF80
FFFF80
7FFF00
ENDCHAR
STARTCHAR Ecaron
ENCODING 282
SWIDTH 353 0
DWIDTH 21 0
BBX 17 52 0 0
BITMAP
1E1E00
3F3F00
3FFF00
3FFE00
1FFE00
0FFC00
07F800
03F000
01E000
000000
000000
000000
FFFF80
FFFF80
FFFF80
FFFF80
FFFF80
FFFF00
FC0000
FC0000
FC0000
FC0000
FC0000
FC0000
FC0000
FC0000
FC0000
FC0000
FC0000
FFFE00
FFFF00
FFFF00
FFFF00
FFFE00
FFFC00
FC0000
FC0000
FC0000
FC0000
FC0000
FC0000
FC0000
FC0000
FC0000
FC0000
FC0000
FFFF00
FFFF80
FFFF80
FFFF80
FFFF80
7FFF00
ENDCHAR
STARTCHAR ecaron
ENCODING 283
SWIDTH 353 0
DWIDTH 21 0
BBX 17 52 0 0
BITMAP
1E1E00
3F3F00
3FFF00
3FFE00
1FFE00
0FFC00
07F800
03F000
01E000
000000
000000
000000
FFFF80
FFFF80
FFFF80
FFFF80
FFFF80
FFFF00
FC0000
FC0000
FC0000
FC0000
FC0000
FC0000
FC0000
FC0000
FC0000
FC0000
FC0000
FFFE00
FFFF00
FFFF00
FFFF00
FFFE00
FFFC00
FC0000
FC0000
FC0000
FC0000
FC0000
FC0000
FC0000
FC0000
FC0000
FC0000
FC0000
FFFF00
FFFF80
FFFF80
FFFF80
FFFF80
7FFF00
ENDCHAR
STARTCHAR Gcircumflex
ENCODING 284
SWIDTH 402 0
DWIDTH 24 0
BBX 20 52 0 0
BITMAP
00F000
01F800
03FC00
07FE00
0FFE00
1FFF00
1FFF80
1FBF80
0F1F00
000000
000000
000000
07FE00
0FFF00
1FFF80
3FFFC0
7FFFE0
7FFFE0
7E07E0
FE07E0
FC03F0
FC03F0
FC03F0
FC03F0
FC03F0
FC03E0
FC0000
FC0000
FC0000
FC0000
FC0000
FC0000
FC3FE0
FC7FF0
FC7FF0
FC7FF0
FC3FF0
FC1FF0
FC03F0
FC03F0
FC03F0
FC03F0
FC03F0
FC07F0
FE07E0
7F0FE0
7FFFE0
7FFFC0
3FFFC0
1FFF80
0FFF00
03FC00
ENDCHAR
STARTCHAR gcircumflex
ENCODING 285
SWIDTH 402 0
DWIDTH 24 0
BBX 20 52 0 0
BITMAP
00F000
01F800
03FC00
07FC00
0FFE00
1FFF00
1FFF00
1FBF00
1F1F00
000000
000000
000000
07FE00
0FFF00
1FFF80
3FFFC0
7FFFE0
7FFFE0
7E07E0
FE07E0
FC03F0
FC03F0
FC03F0
FC03F0
FC03F0
FC03E0
FC0000
FC0000
FC0000
FC0000
FC0000
FC0000
FC3FE0
FC7FF0
FC7FF0
FC7FF0
FC3FF0
FC1FF0
FC03F0
FC03F0
FC03F0
FC03F0
FC03F0
FC07F0
FE07E0
7F0FE0
7FFFE0
7FFFC0
3FFFC0
1FFF80
0FFF00
03FC00
ENDCHAR
STARTCHAR Gbreve
ENCODING 286
SWIDTH 402 0
DWIDTH 24 0
BBX 20 51 0 0
BITMAP
1F0F00
1F9F80
1FFF80
1FFF80
1FFF00
0FFF00
07FE00
03F800
000000
000000
000000
07FE00
0FFF00
1FFF80
3FFFC0
7FFFE0
7FFFE0
7E07E0
FE07E0
FC03F0
FC03F0
FC03F0
FC03F0
FC03F0
FC03E0
FC0000
FC0000
FC0000
FC0000
FC0000
FC0000
FC3FE0
FC7FF0
FC7FF0
FC7FF0
FC3FF0
FC1FF0
FC03F0
FC03F0
FC03F0
FC03F0
FC03F0
FC07F0
FE07E0
7F0FE0
7FFFE0
7FFFC0
3FFFC0
1FFF80
0FFF00
03FC00
ENDCHAR
STARTCHAR gbreve
ENCODING 287
SWIDTH 402 0
DWIDTH 24 0
BBX 20 51 0 0
BITMAP
0F0F00
1F9F80
1FFF80
1FFF80
1FFF00
0FFF00
07FE00
01F800
000000
000000
000000
07FE00
0FFF00
1FFF80
3FFFC0
7FFFE0
7FFFE0
7E07E0
FE07E0
FC03F0
FC03F0
FC03F0
FC03F0
FC03F0
FC03E0
FC0000
FC0000
FC0000
FC0000
FC0000
FC0000
FC3FE0
FC7FF0
FC7FF0
FC7FF0
FC3FF0
FC1FF0
FC03F0
FC03F0
FC03F0
FC03F0
FC03F0
FC07F0
FE07E0
7F0FE0
7FFFE0
7FFFC0
3FFFC0
1FFF80
0FFF00
03FC00
ENDCHAR
STARTCHAR Gdotaccent
ENCODING 288
SWIDTH 402 0
DWIDTH 24 0
BBX 20 49 0 0
BITMAP
00F800
01F800
01F800
01F800
01F800
00F800
000000
000000
000000
07FE00
0FFF00
1FFF80
3FFFC0
7FFFE0
7FFFE0
7E07E0
FE07E0
FC03F0
FC03F0
FC03F0
FC03F0
FC03F0
FC03E0
FC0000
FC0000
FC0000
FC0000
FC0000
FC0000
FC3FE0
FC7FF0
FC7FF0
FC7FF0
FC3FF0
FC1FF0
FC03F0
FC03F0
FC03F0
FC03F0
FC03F0
FC07F0
FE07E0
7F0FE0
7FFFE0
7FFFC0
3FFFC0
1FFF80
0FFF00
03FC00
ENDCHAR
STARTCHAR gdotaccent
ENCODING 289
SWIDTH 402 0
DWIDTH 24 0
BBX 20 49 0 0
BITMAP
00F800
01F800
01F800
01F800
01F800
00F800
000000
000000
000000
07FE00
0FFF00
1FFF80
3FFFC0
7FFFE0
7FFFE0
7E07E0
FE07E0
FC03F0
FC03F0
FC03F0
FC03F0
FC03F0
FC03E0
FC0000
FC0000
FC0000
FC0000
FC0000
FC0000
FC3FE0
FC7FF0
FC7FF0
FC7FF0
FC3FF0
FC1FF0
FC03F0
FC03F0
FC03F0
FC03F0
FC03F0
FC07F0
FE07E0
7F0FE0
7FFFE0
7FFFC0
3FFFC0
1FFF80
0FFF00
03FC00
ENDCHAR
STARTCHAR Gcommaaccent
ENCODING 290
SWIDTH 402 0
DWIDTH 24 0
BBX 20 52 0 -11
BITMAP
01F000
07FE00
1FFF80
3FFFC0
3FFFC0
7FFFE0
7F0FE0
FE07E0
FE07F0
FC07F0
FC03F0
FC03F0
FC03F0
FC03F0
FC01E0
FC0000
FC0000
FC0000
FC0000
FC0000
FC1FC0
FC3FE0
FC7FF0
FC7FF0
FC7FF0
FC3FF0
FC03F0
FC03F0
FC03F0
FC03F0
FC03F0
FC03F0
FE07F0
7E07E0
7F9FE0
7FFFE0
3FFFC0
3FFFC0
1FFF80
07FE00
00F000
000000
000000
007800
00F800
00FC00
00FC00
00FC00
00FC00
00FC00
00F800
007800
ENDCHAR
STARTCHAR gcommaaccent
ENCODING 291
SWIDTH 402 0
DWIDTH 24 0
BBX 20 52 0 -11
BITMAP
01F000
07FE00
1FFF80
3FFFC0
3FFFC0
7FFFE0
7F0FE0
FE07E0
FE07F0
FC07F0
FC03F0
FC03F0
FC03F0
FC03F0
FC01E0
FC0000
FC0000
FC0000
FC0000
FC0000
FC1FC0
FC3FE0
FC7FF0
FC7FF0
FC7FF0
FC3FF0
FC03F0
FC03F0
FC03F0
FC03F0
FC03F0
FC03F0
FE07F0
7E07E0
7F9FE0
7FFFE0
3FFFC0
3FFFC0
1FFF80
07FE00
00F000
000000
000000
007800
00F800
00FC00
00FC00
00FC00
00FC00
00FC00
00F800
007800
ENDCHAR
STARTCHAR Hcircumflex
ENCODING 292
SWIDTH 394 0
DWIDTH 24 0
BBX 19 52 0 0
BITMAP
01E000
03F000
07F800
07FC00
0FFE00
1FFF00
3FFF00
3FBF00
1F1E00
000000
000000
000000
FC07C0
FC07E0
FC07E0
FC07E0
FC07E0
FC07E0
FC07E0
FC07E0
FC07E0
FC07E0
FC07E0
FC07E0
FC07E0
FC07E0
FC07E0
FC07E0
FC07E0
FFFFE0
FFFFE0
FFFFE0
FFFFE0
FFFFE0
FFFFE0
FC07E0
FC07E0
FC07E0
FC07E0
FC07E0
FC07E0
FC07E0
FC07E0
FC07E0
FC07E0
FC07E0
FC07E0
FC07E0
FC07E0
FC07E0
FC07E0
7803C0
ENDCHAR
STARTCHAR hcircumflex
ENCODING 293
SWIDTH 394 0
DWIDTH 24 0
BBX 19 52 0 0
BITMAP
01E000
03F000
07F800
07FC00
0FFE00
1FFF00
3FFF00
3FBF00
1F1E00
000000
000000
000000
FC07C0
FC07E0
FC07E0
FC07E0
FC07E0
FC07E0
FC07E0
FC07E0
FC07E0
FC07E0
FC07E0
FC07E0
FC07E0
FC07E0
FC07E0
FC07E0
FC07E0
FFFFE0
FFFFE0
FFFFE0
FFFFE0
FFFFE0
FFFFE0
FC07E0
FC07E0
FC07E0
FC07E0
FC07E0
FC07E0
FC07E0
FC07E0
FC07E0
FC07E0
FC07E0
FC07E0
FC07E0
FC07E0
FC07E0
FC07E0
7803C0
ENDCHAR
STARTCHAR Itilde
ENCODING 296
SWIDTH 159 0
DWIDTH 10 0
BBX 19 51 -7 0
BITMAP
020000
1FC000
3FE7E0
7FFFE0
7FFFE0
FFFFC0
FFFFC0
7CFF80
003E00
000000
000000
01F000
01F800
01F800
01F800
01F800
01F800
01F800
01F800
01F800
01F800
01F800
01F800
01F800
01F800
01F800
01F800
01F800
01F800
01F800
01F800
01F800
01F800
01F800
01F800
01F800
01F800
01F800
01F800
01F800
01F800
01F800
01F800
01F800
01F800
01F800
01F800
01F800
01F800
01F800
00F000
ENDCHAR
STARTCHAR itilde
ENCODING 297
SWIDTH 159 0
DWIDTH 10 0
BBX 19 51 -7 0
BITMAP
020000
1FC000
3FE7E0
7FFFE0
7FFFE0
FFFFC0
FFFFC0
7CFF80
003E00
000000
000000
01F000
01F800
01F800
01F800
01F800
01F800
01F800
01F800
01F800
01F800
01F800
01F800
01F800
01F800
01F800
01F800
01F800
01F800
01F800
01F800
01F800
01F800
01F800
01F800
01F800
01F800
01F800
01F800
01F800
01F800
01F800
01F800
01F800
01F800
01F800
01F800
01F800
01F800
01F800
00F000
ENDCHAR
STARTCHAR Imacron
ENCODING 298
SWIDTH 159 0
DWIDTH 10 0
BBX 13 49 -4 0
BITMAP
7FF8
FFF8
FFF8
FFF8
FFF8
FFF8
0000
0000
0000
0F80
0FC0
0FC0
0FC0
0FC0
0FC0
0FC0
0FC0
0FC0
0FC0
0FC0
0FC0
0FC0
0FC0
0FC0
0FC0
0FC0
0FC0
0FC0
0FC0
0FC0
0FC0
0FC0
0FC0
0FC0
0FC0
0FC0
0FC0
0FC0
0FC0
0FC0
0FC0
0FC0
0FC0
0FC0
0FC0
0FC0
0FC0
0FC0
0780
ENDCHAR
STARTCHAR imacron
ENCODING 299
SWIDTH 159 0
DWIDTH 10 0
BBX 13 49 -4 0
BITMAP
7FF8
FFF8
FFF8
FFF8
FFF8
FFF8
0000
0000
0000
0F80
0FC0
0FC0
0FC0
0FC0
0FC0
0FC0
0FC0
0FC0
0FC0
0FC0
0FC0
0FC0
0FC0
0FC0
0FC0
0FC0
0FC0
0FC0
0FC0
0FC0
0FC0
0FC0
0FC0
0FC0
0FC0
0FC0
0FC0
0FC0
0FC0
0FC0
0FC0
0FC0
0FC0
0FC0
0FC0
0FC0
0FC0
0FC0
0780
ENDCHAR
STARTCHAR Ibreve
ENCODING 300
SWIDTH 159 0
DWIDTH 10 0
BBX 15 51 -5 0
BITMAP
7C3C
7E7E
FFFE
7FFC
7FFC
3FFC
1FF8
07E0
0000
0000
0000
07C0
07E0
07E0
07E0
07E0
07E0
07E0
07E0
07E0
07E0
07E0
07E0
07E0
07E0
07E0
07E0
07E0
07E0
07E0
07E0
07E0
07E0
07E0
07E0
07E0
07E0
07E0
07E0
07E0
07E0
07E0
07E0
07E0
07E0
07E0
07E0
07E0
07E0
07E0
03C0
ENDCHAR
STARTCHAR ibreve
ENCODING 301
SWIDTH 159 0
DWIDTH 10 0
BBX 15 51 -5 0
BITMAP
7C3C
7E7E
FFFE
7FFC
7FFC
3FFC
1FF8
07E0
0000
0000
0000
07C0
07E0
07E0
07E0
07E0
07E0
07E0
07E0
07E0
07E0
07E0
07E0
07E0
07E0
07E0
07E0
07E0
07E0
07E0
07E0
07E0
07E0
07E0
07E0
07E0
07E0
07E0
07E0
07E0
07E0
07E0
07E0
07E0
07E0
07E0
07E0
07E0
07E0
07E0
03C0
ENDCHAR
STARTCHAR Idotaccent
ENCODING 304
SWIDTH 159 0
DWIDTH 10 0
BBX 6 49 0 0
BITMAP
F8
FC
FC
FC
FC
F8
00
00
00
F8
FC
FC
FC
FC
FC
FC
FC
FC
FC
FC
FC
FC
FC
FC
FC
FC
FC
FC
FC
FC
FC
FC
FC
FC
FC
FC
FC
FC
FC
FC
FC
FC
FC
FC
FC
FC
FC
FC
78
ENDCHAR
STARTCHAR dotlessi
ENCODING 305
SWIDTH 159 0
DWIDTH 10 0
BBX 6 39 0 0
BITMAP
78
7C
FC
FC
FC
FC
FC
FC
FC
FC
FC
FC
FC
FC
FC
FC
FC
FC
FC
FC
FC
FC
FC
FC
FC
FC
FC
FC
FC
FC
FC
FC
FC
FC
FC
FC
FC
7C
78
ENDCHAR
STARTCHAR Jcircumflex
ENCODING 308
SWIDTH 374 0
DWIDTH 22 0
BBX 24 52 -1 0
BITMAP
0001E0
0003F0
0007F8
000FFC
001FFE
001FFE
003FFF
003F3F
001F3E
000000
000000
000000
0007E0
0007E0
0007E0
0007E0
0007E0
0007E0
0007E0
0007E0
0007E0
0007E0
0007E0
0007E0
0007E0
0007E0
0007E0
0007E0
0007E0
0007E0
0007E0
0007E0
0007E0
0007E0
0007E0
0007E0
0007E0
0007E0
7807E0
7C07E0
FC07E0
FC07E0
FE07E0
7E07E0
7E0FE0
7F0FE0
7FFFC0
3FFFC0
3FFF80
1FFF80
0FFE00
03F800
ENDCHAR
STARTCHAR jcircumflex
ENCODING 309
SWIDTH 374 0
DWIDTH 22 0
BBX 24 52 -1 0
BITMAP
0001E0
0003F0
0007F8
000FFC
001FFE
001FFE
003FFF
003F3F
001F3E
000000
000000
000000
0007E0
0007E0
0007E0
0007E0
0007E0
0007E0
0007E0
0007E0
0007E0
0007E0
0007E0
0007E0
0007E0
0007E0
0007E0
0007E0
0007E0
0007E0
0007E0
0007E0
0007E0
0007E0
0007E0
0007E0
0007E0
0007E0
7807E0
7C07E0
FC07E0
FC07E0
FE07E0
7E07E0
7E0FE0
7F0FE0
7FFFC0
3FFFC0
3FFF80
1FFF80
0FFE00
03F800
ENDCHAR
STARTCHAR Kcommaaccent
ENCODING 310
SWIDTH 388 0
DWIDTH 23 0
BBX 21 51 0 -11
BITMAP
FC01F0
FC03F8
FC07F8
FC07F0
FC0FE0
FC0FE0
FC1FC0
FC3FC0
FC3F80
FC7F00
FC7F00
FCFE00
FDFC00
FDFC00
FFF800
FFF800
FFF000
FFE000
FFE000
FFE000
FFE000
FFF000
FFF000
FFF800
FFF800
FDFC00
FCFE00
FCFE00
FC7F00
FC7F00
FC3F80
FC3F80
FC1FC0
FC0FE0
FC0FE0
FC07F0
FC07F0
FC03F8
FC03F8
7801F0
000000
000000
006000
01F800
01F800
01F800
01F800
01F800
01F800
01F800
00F000
ENDCHAR
STARTCHAR kcommaaccent
ENCODING 311
SWIDTH 388 0
DWIDTH 23 0
BBX 21 51 0 -11
BITMAP
FC01F0
FC03F8
FC07F8
FC07F0
FC0FE0
FC0FE0
FC1FC0
FC3FC0
FC3F80
FC7F00
FC7F00
FCFE00
FDFC00
FDFC00
FFF800
FFF800
FFF000
FFE000
FFE000
FFE000
FFE000
FFF000
FFF000
FFF800
FFF800
FDFC00
FCFE00
FCFE00
FC7F00
FC7F00
FC3F80
FC3F80
FC1FC0
FC0FE0
FC0FE0
FC07F0
FC07F0
FC03F8
FC03F8
7801F0
000000
000000
006000
01F800
01F800
01F800
01F800
01F800
01F800
01F800
00F000
ENDCHAR
STARTCHAR Lacute
ENCODING 313
SWIDTH 335 0
DWIDTH 20 0
BBX 21 52 -4 0
BITMAP
007000
03F800
0FF800
1FF800
7FF000
FFC000
FF0000
FE0000
F00000
000000
000000
000000
0F8000
0FC000
0FC000
0FC000
0FC000
0FC000
0FC000
0FC000
0FC000
0FC000
0FC000
0FC000
0FC000
0FC000
0FC000
0FC000
0FC000
0FC000
0FC000
0FC000
0FC000
0FC000
0FC000
0FC000
0FC000
0FC000
0FC000
0FC000
0FC000
0FC000
0FC000
0FC000
0FC000
0FC000
0FFFF0
0FFFF8
0FFFF8
0FFFF8
0FFFF8
0FFFF0
ENDCHAR
STARTCHAR lacute
ENCODING 314
SWIDTH 335 0
DWIDTH 20 0
BBX 21 52 -4 0
BITMAP
007000
03F800
0FF800
1FF800
7FF000
FFC000
FF0000
FE0000
F00000
000000
000000
000000
0F8000
0FC000
0FC000
0FC000
0FC000
0FC000
0FC000
0FC000
0FC000
0FC000
0FC000
0FC000
0FC000
0FC000
0FC000
0FC000
0FC000
0FC000
0FC000
0FC000
0FC000
0FC000
0FC000
0FC000
0FC000
0FC000
0FC000
0FC000
0FC000
0FC000
0FC000
0FC000
0FC000
0FC000
0FFFF0
0FFFF8
0FFFF8
0FFFF8
0FFFF8
0FFFF0
ENDCHAR
STARTCHAR Lcommaaccent
ENCODING 315
SWIDTH 335 0
DWIDTH 20 0
BBX 17 51 0 -11
BITMAP
F80000
FC0000
FC0000
FC0000
FC0000
FC0000
FC0000
FC0000
FC0000
FC0000
FC0000
FC0000
FC0000
FC0000
FC0000
FC0000
FC0000
FC0000
FC0000
FC0000
FC0000
FC0000
FC0000
FC0000
FC0000
FC0000
FC0000
FC0000
FC0000
FC0000
FC0000
FC0000
FC0000
FC0000
FFFF00
FFFF80
FFFF80
FFFF80
FFFF80
FFFF00
000000
000000
018000
07E000
07E000
07E000
07E000
07E000
07E000
07E000
03C000
ENDCHAR
STARTCHAR lcommaaccent
ENCODING 316
SWIDTH 335 0
DWIDTH 20 0
BBX 17 51 0 -11
BITMAP
F80000
FC0000
FC0000
FC0000
FC0000
FC0000
FC0000
FC0000
FC0000
FC0000
FC0000
FC0000
FC0000
FC0000
FC0000
FC0000
FC0000
FC0000
FC0000
FC0000
FC0000
FC0000
FC0000
FC0000
FC0000
FC0000
FC0000
FC0000
FC0000
FC0000
FC0000
FC0000
FC0000
FC0000
FFFF00
FFFF80
FFFF80
FFFF80
FFFF80
FFFF00
000000
000000
018000
07E000
07E000
07E000
07E000
07E000
07E000
07E000
03C000
ENDCHAR
STARTCHAR Lcaron
ENCODING 317
SWIDTH 335 0
DWIDTH 20 0
BBX 21 45 -4 2
BITMAP
FCF800
FDF800
FFF800
7FF800
7FF000
3FE000
1FC000
0FC000
0FC000
0FC000
0FC000
0FC000
0FC000
0FC000
0FC000
0FC000
0FC000
0FC000
0FC000
0FC000
0FC000
0FC000
0FC000
0FC000
0FC000
0FC000
0FC000
0FC000
0FC000
0FC000
0FC000
0FC000
0FC000
0FC000
0FC000
0FC000
0FC000
0FC000
0FC000
0FFFF0
0FFFF8
0FFFF8
0FFFF8
0FFFF8
07FFF0
ENDCHAR
STARTCHAR Lslash
ENCODING 321
SWIDTH 414 0
DWIDTH 25 0
BBX 24 40 -4 0
BITMAP
01F000
01F800
01F800
01F800
01F800
01F800
01F800
01F800
01F800
01F800
01F800
01F800
01F9E0
01FBF0
01FFF0
01FFF0
01FFF0
01FFE0
01FFC0
01FF80
01FF00
03FE00
07FC00
0FF800
1FF800
3FF800
7FF800
FFF800
FFF800
FFF800
7DF800
39F800
01F800
01F800
01FFFE
01FFFF
01FFFF
01FFFF
01FFFF
01FFFE
ENDCHAR
STARTCHAR lslash
ENCODING 322
SWIDTH 414 0
DWIDTH 25 0
BBX 23 39 -4 0
BITMAP
00E000
01F000
01F800
01F800
01F800
01F800
01F800
01F800
01F800
01F800
01F800
01F800
01F9C0
01FBE0
01FFF0
01FFF0
01FFE0
01FFC0
01FF80
01FF00
01FE00
03FC00
07F800
0FF800
1FF800
3FF800
7FF800
FFF800
FFF800
FDF800
79F800
11F800
01F800
01F800
01FFFE
01FFFE
01FFFE
01FFFE
01FFFE
ENDCHAR
STARTCHAR Nacute
ENCODING 323
SWIDTH 410 0
DWIDTH 25 0
BBX 20 52 0 0
BITMAP
000E00
003F00
00FF00
03FF00
07FE00
1FF800
1FF000
1FC000
0F0000
000000
000000
000000
F803F0
FC03F0
FC03F0
FE03F0
FE03F0
FE03F0
FF03F0
FF03F0
FF83F0
FF83F0
FF83F0
FFC3F0
FFC3F0
FFE3F0
FFE3F0
FFE3F0
FFF3F0
FFF3F0
FFFBF0
FDFBF0
FDFFF0
FDFFF0
FCFFF0
FCFFF0
FC7FF0
FC7FF0
FC7FF0
FC3FF0
FC3FF0
FC1FF0
FC1FF0
FC1FF0
FC0FF0
FC0FF0
FC07F0
FC07F0
FC07F0
FC03F0
FC03F0
7801E0
ENDCHAR
STARTCHAR nacute
ENCODING 324
SWIDTH 410 0
DWIDTH 25 0
BBX 20 52 0 0
BITMAP
000E00
003F00
00FF00
03FF00
07FE00
1FF800
1FF000
1FC000
0F0000
000000
000000
000000
F803F0
FC03F0
FC03F0
FE03F0
FE03F0
FE03F0
FF03F0
FF03F0
FF83F0
FF83F0
FF83F0
FFC3F0
FFC3F0
FFE3F0
FFE3F0
FFE3F0
FFF3F0
FFF3F0
FFFBF0
FDFBF0
FDFFF0
FDFFF0
FCFFF0
FCFFF0
FC7FF0
FC7FF0
FC7FF0
FC3FF0
FC3FF0
FC1FF0
FC1FF0
FC1FF0
FC0FF0
FC0FF0
FC07F0
FC07F0
FC07F0
FC03F0
FC03F0
7801E0
ENDCHAR
STARTCHAR Ncommaaccent
ENCODING 325
SWIDTH 410 0
DWIDTH 25 0
BBX 20 51 0 -11
BITMAP
F803F0
FC03F0
FC03F0
FE03F0
FE03F0
FE03F0
FF03F0
FF03F0
FF83F0
FF83F0
FF83F0
FFC3F0
FFC3F0
FFE3F0
FFE3F0
FFE3F0
FFF3F0
FFF3F0
FFFBF0
FDFBF0
FDFFF0
FDFFF0
FCFFF0
FCFFF0
FC7FF0
FC7FF0
FC7FF0
FC3FF0
FC3FF0
FC1FF0
FC1FF0
FC1FF0
FC0FF0
FC0FF0
FC07F0
FC07F0
FC07F0
FC03F0
FC03F0
7801E0
000000
000000
003000
00FC00
00FC00
00FC00
00FC00
00FC00
00FC00
00FC00
00F800
ENDCHAR
STARTCHAR ncommaaccent
ENCODING 326
SWIDTH 410 0
DWIDTH 25 0
BBX 20 51 0 -11
BITMAP
F803F0
FC03F0
FC03F0
FE03F0
FE03F0
FE03F0
FF03F0
FF03F0
FF83F0
FF83F0
FF83F0
FFC3F0
FFC3F0
FFE3F0
FFE3F0
FFE3F0
FFF3F0
FFF3F0
FFFBF0
FDFBF0
FDFFF0
FDFFF0
FCFFF0
FCFFF0
FC7FF0
FC7FF0
FC7FF0
FC3FF0
FC3FF0
FC1FF0
FC1FF0
FC1FF0
FC0FF0
FC0FF0
FC07F0
FC07F0
FC07F0
FC03F0
FC03F0
7801E0
000000
000000
003000
00FC00
00FC00
00FC00
00FC00
00FC00
00FC00
00FC00
00F800
ENDCHAR
STARTCHAR Ncaron
ENCODING 327
SWIDTH 410 0
DWIDTH 25 0
BBX 20 52 0 0
BITMAP
0F0F00
1F9F80
1FFF80
1FFF00
0FFF00
07FE00
03FC00
01F800
00F000
000000
000000
000000
F803F0
FC03F0
FC03F0
FE03F0
FE03F0
FE03F0
FF03F0
FF03F0
FF83F0
FF83F0
FF83F0
FFC3F0
FFC3F0
FFE3F0
FFE3F0
FFE3F0
FFF3F0
FFF3F0
FFFBF0
FDFBF0
FDFFF0
FDFFF0
FCFFF0
FCFFF0
FC7FF0
FC7FF0
FC7FF0
FC3FF0
FC3FF0
FC1FF0
FC1FF0
FC1FF0
FC0FF0
FC0FF0
FC07F0
FC07F0
FC07F0
FC03F0
FC03F0
7801E0
ENDCHAR
STARTCHAR ncaron
ENCODING 328
SWIDTH 410 0
DWIDTH 25 0
BBX 20 52 0 0
BITMAP
0F0F00
1F9F80
1FFF80
1FFF00
0FFF00
07FE00
03FC00
01F800
00F000
000000
000000
000000
F803F0
FC03F0
FC03F0
FE03F0
FE03F0
FE03F0
FF03F0
FF03F0
FF83F0
FF83F0
FF83F0
FFC3F0
FFC3F0
FFE3F0
FFE3F0
FFE3F0
FFF3F0
FFF3F0
FFFBF0
FDFBF0
FDFFF0
FDFFF0
FCFFF0
FCFFF0
FC7FF0
FC7FF0
FC7FF0
FC3FF0
FC3FF0
FC1FF0
FC1FF0
FC1FF0
FC0FF0
FC0FF0
FC07F0
FC07F0
FC07F0
FC03F0
FC03F0
7801E0
ENDCHAR
STARTCHAR Omacron
ENCODING 332
SWIDTH 406 0
DWIDTH 24 0
BBX 20 49 0 0
BITMAP
0FFF00
1FFF00
1FFF00
1FFF00
1FFF00
0FFF00
000000
000000
000000
07FE00
0FFF00
1FFF80
3FFFC0
7FFFC0
7FFFE0
7E0FE0
FE07E0
FC07F0
FC03F0
FC03F0
FC03F0
FC03F0
FC03F0
FC03F0
FC03F0
FC03F0
FC03F0
FC03F0
FC03F0
FC03F0
FC03F0
FC03F0
FC03F0
FC03F0
FC03F0
FC03F0
FC03F0
FC03F0
FC03F0
FC03F0
FE07E0
FE07E0
7F0FE0
7FFFE0
3FFFC0
3FFFC0
1FFF80
0FFF00
03F800
ENDCHAR
STARTCHAR omacron
ENCODING 333
SWIDTH 406 0
DWIDTH 24 0
BBX 20 49 0 0
BITMAP
0FFF00
1FFF00
1FFF00
1FFF00
1FFF00
0FFF00
000000
000000
000000
07FE00
0FFF00
1FFF80
3FFFC0
7FFFC0
7FFFE0
7E0FE0
FE07E0
FC07F0
FC03F0
FC03F0
FC03F0
FC03F0
FC03F0
FC03F0
FC03F0
FC03F0
FC03F0
FC03F0
FC03F0
FC03F0
FC03F0
FC03F0
FC03F0
FC03F0
FC03F0
FC03F0
FC03F0
FC03F0
FC03F0
FC03F0
FE07E0
FE07E0
7F0FE0
7FFFE0
3FFFC0
3FFFC0
1FFF80
0FFF00
03F800
ENDCHAR
STARTCHAR Obreve
ENCODING 334
SWIDTH 406 0
DWIDTH 24 0
BBX 20 51 0 0
BITMAP
0F0F00
1F9F80
1FFF80
1FFF80
1FFF00
0FFF00
07FE00
01F800
000000
000000
000000
07FE00
0FFF00
1FFF80
3FFFC0
7FFFC0
7FFFE0
7E0FE0
FE07E0
FC07F0
FC03F0
FC03F0
FC03F0
FC03F0
FC03F0
FC03F0
FC03F0
FC03F0
FC03F0
FC03F0
FC03F0
FC03F0
FC03F0
FC03F0
FC03F0
FC03F0
FC03F0
FC03F0
FC03F0
FC03F0
FC03F0
FC03F0
FE07E0
FE07E0
7F0FE0
7FFFE0
3FFFC0
3FFFC0
1FFF80
0FFF00
03F800
ENDCHAR
STARTCHAR obreve
ENCODING 335
SWIDTH 406 0
DWIDTH 24 0
BBX 20 51 0 0
BITMAP
0F0F00
1F9F80
1FFF80
1FFF80
1FFF00
0FFF00
07FE00
01F800
000000
000000
000000
07FE00
0FFF00
1FFF80
3FFFC0
7FFFC0
7FFFE0
7E0FE0
FE07E0
FC07F0
FC03F0
FC03F0
FC03F0
FC03F0
FC03F0
FC03F0
FC03F0
FC03F0
FC03F0
FC03F0
FC03F0
FC03F0
FC03F0
FC03F0
FC03F0
FC03F0
FC03F0
FC03F0
FC03F0
FC03F0
FC03F0
FC03F0
FE07E0
FE07E0
7F0FE0
7FFFE0
3FFFC0
3FFFC0
1FFF80
0FFF00
03F800
ENDCHAR
STARTCHAR OE
ENCODING 338
SWIDTH 544 0
DWIDTH 33 0
BBX 27 40 0 0
BITMAP
00FFFFE0
03FFFFE0
07FFFFE0
0FFFFFE0
1FFFFFE0
3FFFFFC0
3FBF0000
7F3F0000
7E3F0000
7E3F0000
FC3F0000
FC3F0000
FC3F0000
FC3F0000
FC3F0000
FC3F0000
FC3F0000
FC3FFFE0
FC3FFFE0
FC3FFFE0
FC3FFFE0
FC3FFFE0
FC3FFFC0
FC3F0000
FC3F0000
FC3F0000
FC3F0000
FC3F0000
FC3F0000
FE3F0000
7E3F0000
7F3F0000
7F3F0000
3FFF0000
3FFFFFC0
1FFFFFE0
1FFFFFE0
0FFFFFE0
03FFFFE0
00FFFFE0
ENDCHAR
STARTCHAR oe
ENCODING 339
SWIDTH 544 0
DWIDTH 33 0
BBX 26 39 1 0
BITMAP
00FFFF80
03FFFFC0
0FFFFFC0
1FFFFFC0
3FFFFFC0
7FFFFF80
7F7E0000
FE7E0000
FC7E0000
FC7E0000
F87E0000
F87E0000
F87E0000
F87E0000
F87E0000
F87E0000
F87E0000
F87FFF80
F87FFFC0
F87FFFC0
F87FFFC0
F87FFF80
F87E0000
F87E0000
F87E0000
F87E0000
F87E0000
F87E0000
FC7E0000
FC7E0000
FC7E0000
FE7E0000
7F7E0000
7FFFFF80
3FFFFFC0
3FFFFFC0
1FFFFFC0
07FFFFC0
01FFFF80
ENDCHAR
STARTCHAR Racute
ENCODING 340
SWIDTH 398 0
DWIDTH 24 0
BBX 20 52 0 -1
BITMAP
001F00
00FF00
01FF00
07FE00
0FFC00
1FF000
1FE000
1F8000
000000
000000
000000
7FF800
FFFF00
FFFF80
FFFFC0
FFFFC0
FFFFE0
FC0FE0
FC07E0
FC07F0
FC03F0
FC03F0
FC03F0
FC03F0
FC03F0
FC07F0
FC07F0
FC0FE0
FC7FE0
FFFFE0
FFFFC0
FFFF80
FFFF80
FFFFC0
FFFFC0
FC0FE0
FC07E0
FC07E0
FC07E0
FC07E0
FC07E0
FC07E0
FC07E0
FC07E0
FC07E0
FC07E0
FC07E0
FC07E0
FC07E0
FC07E0
FC03E0
380180
ENDCHAR
STARTCHAR racute
ENCODING 341
SWIDTH 398 0
DWIDTH 24 0
BBX 20 52 0 -1
BITMAP
001F00
00FF00
01FF00
07FE00
0FFC00
1FF000
1FE000
1F8000
000000
000000
000000
7FF800
FFFF00
FFFF80
FFFFC0
FFFFC0
FFFFE0
FC0FE0
FC07E0
FC07F0
FC03F0
FC03F0
FC03F0
FC03F0
FC03F0
FC07F0
FC07F0
FC0FE0
FC7FE0
FFFFE0
FFFFC0
FFFF80
FFFF80
FFFFC0
FFFFC0
FC0FE0
FC07E0
FC07E0
FC07E0
FC07E0
FC07E0
FC07E0
FC07E0
FC07E0
FC07E0
FC07E0
FC07E0
FC07E0
FC07E0
FC07E0
FC03E0
380180
ENDCHAR
STARTCHAR Rcommaaccent
ENCODING 342
SWIDTH 398 0
DWIDTH 24 0
BBX 20 52 0 -12
BITMAP
7FF800
FFFF00
FFFF80
FFFFC0
FFFFC0
FFFFE0
FC0FE0
FC07E0
FC07F0
FC03F0
FC03F0
FC03F0
FC03F0
FC03F0
FC07F0
FC07F0
FC0FE0
FC7FE0
FFFFE0
FFFFC0
FFFF80
FFFF80
FFFFC0
FFFFC0
FC0FE0
FC07E0
FC07E0
FC07E0
FC07E0
FC07E0
FC07E0
FC07E0
FC07E0
FC07E0
FC07E0
FC07E0
FC07E0
FC07E0
FC07E0
FC03E0
380180
000000
000000
01F000
01F800
01F800
01F800
01F800
01F800
01F800
01F800
00E000
ENDCHAR
STARTCHAR rcommaaccent
ENCODING 343
SWIDTH 398 0
DWIDTH 24 0
BBX 20 52 0 -12
BITMAP
7FF800
FFFF00
FFFF80
FFFFC0
FFFFC0
FFFFE0
FC0FE0
FC07E0
FC07F0
FC03F0
FC03F0
FC03F0
FC03F0
FC03F0
FC07F0
FC07F0
FC0FE0
FC7FE0
FFFFE0
FFFFC0
FFFF80
FFFF80
FFFFC0
FFFFC0
FC0FE0
FC07E0
FC07E0
FC07E0
FC07E0
FC07E0
FC07E0
FC07E0
FC07E0
FC07E0
FC07E0
FC07E0
FC07E0
FC07E0
FC07E0
FC03E0
380180
000000
000000
01F000
01F800
01F800
01F800
01F800
01F800
01F800
01F800
00E000
ENDCHAR
STARTCHAR Rcaron
ENCODING 344
SWIDTH 398 0
DWIDTH 24 0
BBX 20 52 0 -1
BITMAP
3F3E00
3F7F00
3FFF00
1FFE00
1FFC00
0FF800
07F000
03F000
000000
000000
000000
7FF800
FFFF00
FFFF80
FFFFC0
FFFFC0
FFFFE0
FC0FE0
FC07E0
FC07F0
FC03F0
FC03F0
FC03F0
FC03F0
FC03F0
FC07F0
FC07F0
FC0FE0
FC7FE0
FFFFE0
FFFFC0
FFFF80
FFFF80
FFFFC0
FFFFC0
FC0FE0
FC07E0
FC07E0
FC07E0
FC07E0
FC07E0
FC07E0
FC07E0
FC07E0
FC07E0
FC07E0
FC07E0
FC07E0
FC07E0
FC07E0
FC03E0
380180
ENDCHAR
STARTCHAR rcaron
ENCODING 345
SWIDTH 398 0
DWIDTH 24 0
BBX 20 52 0 -1
BITMAP
3F3E00
3F7F00
3FFF00
1FFE00
1FFC00
0FF800
07F000
03F000
000000
000000
000000
7FF800
FFFF00
FFFF80
FFFFC0
FFFFC0
FFFFE0
FC0FE0
FC07E0
FC07F0
FC03F0
FC03F0
FC03F0
FC03F0
FC03F0
FC07F0
FC07F0
FC0FE0
FC7FE0
FFFFE0
FFFFC0
FFFF80
FFFF80
FFFFC0
FFFFC0
FC0FE0
FC07E0
FC07E0
FC07E0
FC07E0
FC07E0
FC07E0
FC07E0
FC07E0
FC07E0
FC07E0
FC07E0
FC07E0
FC07E0
FC07E0
FC03E0
380180
ENDCHAR
STARTCHAR Sacute
ENCODING 346
SWIDTH 398 0
DWIDTH 24 0
BBX 20 51 0 0
BITMAP
001F00
007F00
01FF00
07FF00
0FFC00
1FF800
1FE000
1F8000
000000
000000
000000
03F800
0FFF00
1FFF80
3FFFC0
7FFFC0
7FFFE0
7F0FE0
FE07E0
FC07F0
FC03F0
FC03F0
FC03F0
FC03F0
FE03F0
7F01E0
7F8000
3FC000
3FE000
1FF000
0FFC00
07FE00
03FF00
00FF80
007FC0
003FC0
001FE0
780FE0
FC07F0
FC07F0
FC03F0
FC03F0
FC03F0
FE07F0
7E07E0
7FFFE0
7FFFE0
3FFFC0
3FFFC0
1FFF80
07FE00
ENDCHAR
STARTCHAR sacute
ENCODING 347
SWIDTH 398 0
DWIDTH 24 0
BBX 20 51 0 0
BITMAP
001F00
007F00
01FF00
07FF00
0FFC00
1FF800
1FE000
1F8000
000000
000000
000000
03F800
0FFF00
1FFF80
3FFFC0
7FFFC0
7FFFE0
7F0FE0
FE07E0
FC07F0
FC03F0
FC03F0
FC03F0
FC03F0
FE03F0
7F01E0
7F8000
3FC000
3FE000
1FF000
0FFC00
07FE00
03FF00
00FF80
007FC0
003FC0
001FE0
780FE0
FC07F0
FC07F0
FC03F0
FC03F0
FC03F0
FE07F0
7E07E0
7FFFE0
7FFFE0
3FFFC0
3FFFC0
1FFF80
07FE00
ENDCHAR
STARTCHAR Scircumflex
ENCODING 348
SWIDTH 398 0
DWIDTH 24 0
BBX 20 51 0 0
BITMAP
01F800
03FC00
03FC00
07FE00
0FFF00
1FFF80
1FFF80
1F9F80
000000
000000
000000
03F800
0FFF00
1FFF80
3FFFC0
7FFFC0
7FFFE0
7F0FE0
FE07E0
FC07F0
FC03F0
FC03F0
FC03F0
FC03F0
FE03F0
7F01E0
7F8000
3FC000
3FE000
1FF000
0FFC00
07FE00
03FF00
00FF80
007FC0
003FC0
001FE0
780FE0
FC07F0
FC07F0
FC03F0
FC03F0
FC03F0
FE07F0
7E07E0
7FFFE0
7FFFE0
3FFFC0
3FFFC0
1FFF80
07FE00
ENDCHAR
STARTCHAR scircumflex
ENCODING 349
SWIDTH 398 0
DWIDTH 24 0
BBX 20 51 0 0
BITMAP
01F800
03FC00
03FC00
07FE00
0FFF00
1FFF80
1FFF80
1F9F80
000000
000000
000000
03F800
0FFF00
1FFF80
3FFFC0
7FFFC0
7FFFE0
7F0FE0
FE07E0
FC07F0
FC03F0
FC03F0
FC03F0
FC03F0
FE03F0
7F01E0
7F8000
3FC000
3FE000
1FF000
0FFC00
07FE00
03FF00
00FF80
007FC0
003FC0
001FE0
780FE0
FC07F0
FC07F0
FC03F0
FC03F0
FC03F0
FE07F0
7E07E0
7FFFE0
7FFFE0
3FFFC0
3FFFC0
1FFF80
07FE00
ENDCHAR
STARTCHAR Scedilla
ENCODING 350
SWIDTH 398 0
DWIDTH 24 0
BBX 20 53 0 -13
BITMAP
03F800
0FFF00
1FFF80
3FFFC0
7FFFC0
7FFFE0
7F0FE0
FE07E0
FC07F0
FC03F0
FC03F0
FC03F0
FC03F0
FE03F0
7F01E0
7F8000
3FC000
3FE000
1FF000
0FFC00
07FE00
03FF00
00FF80
007FC0
003FC0
001FE0
780FE0
FC07F0
FC07F0
FC03F0
FC03F0
FC03F0
FE07F0
7E07E0
7FFFE0
7FFFE0
3FFFC0
3FFFC0
1FFF80
07FE00
00F000
00F000
00F000
00FE00
00FF80
00FF80
00FFC0
007FC0
07DFC0
07FFC0
07FF80
03FF00
01FE00
ENDCHAR
STARTCHAR scedilla
ENCODING 351
SWIDTH 398 0
DWIDTH 24 0
BBX 20 53 0 -13
BITMAP
03F800
0FFF00
1FFF80
3FFFC0
7FFFC0
7FFFE0
7F0FE0
FE07E0
FC07F0
FC03F0
FC03F0
FC03F0
FC03F0
FE03F0
7F01E0
7F8000
3FC000
3FE000
1FF000
0FFC00
07FE00
03FF00
00FF80
007FC0
003FC0
001FE0
780FE0
FC07F0
FC07F0
FC03F0
FC03F0
FC03F0
FE07F0
7E07E0
7FFFE0
7FFFE0
3FFFC0
3FFFC0
1FFF80
07FE00
00F000
00F000
00F000
00FE00
00FF80
00FF80
00FFC0
007FC0
07DFC0
07FFC0
07FF80
03FF00
01FE00
ENDCHAR
STARTCHAR Scaron
ENCODING 352
SWIDTH 398 0
DWIDTH 24 0
BBX 20 51 0 0
BITMAP
0F9F80
1FDF80
1FFF80
0FFF00
07FE00
03FE00
03FC00
01F800
000000
000000
000000
03F800
0FFF00
1FFF80
3FFFC0
7FFFC0
7FFFE0
7F0FE0
FE07E0
FC07F0
FC03F0
FC03F0
FC03F0
FC03F0
FE03F0
7F01E0
7F8000
3FC000
3FE000
1FF000
0FFC00
07FE00
03FF00
00FF80
007FC0
003FC0
001FE0
780FE0
FC07F0
FC07F0
FC03F0
FC03F0
FC03F0
FE07F0
7E07E0
7FFFE0
7FFFE0
3FFFC0
3FFFC0
1FFF80
07FE00
ENDCHAR
STARTCHAR scaron
ENCODING 353
SWIDTH 398 0
DWIDTH 24 0
BBX 20 51 0 0
BITMAP
0F9F80
1FDF80
1FFF80
0FFF00
07FE00
03FE00
03FC00
01F800
000000
000000
000000
03F800
0FFF00
1FFF80
3FFFC0
7FFFC0
7FFFE0
7F0FE0
FE07E0
FC07F0
FC03F0
FC03F0
FC03F0
FC03F0
FE03F0
7F01E0
7F8000
3FC000
3FE000
1FF000
0FFC00
07FE00
03FF00
00FF80
007FC0
003FC0
001FE0
780FE0
FC07F0
FC07F0
FC03F0
FC03F0
FC03F0
FE07F0
7E07E0
7FFFE0
7FFFE0
3FFFC0
3FFFC0
1FFF80
07FE00
ENDCHAR
STARTCHAR Tcommaaccent
ENCODING 354
SWIDTH 401 0
DWIDTH 24 0
BBX 20 52 0 -12
BITMAP
7FFFE0
FFFFF0
FFFFF0
FFFFF0
FFFFF0
7FFFE0
01F800
01F800
01F800
01F800
01F800
01F800
01F800
01F800
01F800
01F800
01F800
01F800
01F800
01F800
01F800
01F800
01F800
01F800
01F800
01F800
01F800
01F800
01F800
01F800
01F800
01F800
01F800
01F800
01F800
01F800
01F800
01F800
01F800
01F000
000000
000000
000000
00F000
01F800
01F800
01F800
01F800
01F800
01F800
01F800
00F000
ENDCHAR
STARTCHAR tcommaaccent
ENCODING 355
SWIDTH 401 0
DWIDTH 24 0
BBX 20 52 0 -12
BITMAP
7FFFE0
FFFFF0
FFFFF0
FFFFF0
FFFFF0
7FFFE0
01F800
01F800
01F800
01F800
01F800
01F800
01F800
01F800
01F800
01F800
01F800
01F800
01F800
01F800
01F800
01F800
01F800
01F800
01F800
01F800
01F800
01F800
01F800
01F800
01F800
01F800
01F800
01F800
01F800
01F800
01F800
01F800
01F800
01F000
000000
000000
000000
00F000
01F800
01F800
01F800
01F800
01F800
01F800
01F800
00F000
ENDCHAR
STARTCHAR Tcaron
ENCODING 356
SWIDTH 401 0
DWIDTH 24 0
BBX 20 51 0 0
BITMAP
0F9F80
1FDF80
1FFF80
0FFF00
07FE00
03FE00
03FC00
01F800
000000
000000
000000
7FFFE0
FFFFF0
FFFFF0
FFFFF0
FFFFF0
7FFFE0
01F800
01F800
01F800
01F800
01F800
01F800
01F800
01F800
01F800
01F800
01F800
01F800
01F800
01F800
01F800
01F800
01F800
01F800
01F800
01F800
01F800
01F800
01F800
01F800
01F800
01F800
01F800
01F800
01F800
01F800
01F800
01F800
01F800
01F000
ENDCHAR
STARTCHAR tcaron
ENCODING 357
SWIDTH 401 0
DWIDTH 24 0
BBX 20 51 0 0
BITMAP
0F9F80
1FDF80
1FFF80
0FFF00
07FE00
03FE00
03FC00
01F800
000000
000000
000000
7FFFE0
FFFFF0
FFFFF0
FFFFF0
FFFFF0
7FFFE0
01F800
01F800
01F800
01F800
01F800
01F800
01F800
01F800
01F800
01F800
01F800
01F800
01F800
01F800
01F800
01F800
01F800
01F800
01F800
01F800
01F800
01F800
01F800
01F800
01F800
01F800
01F800
01F800
01F800
01F800
01F800
01F800
01F800
01F000
ENDCHAR
STARTCHAR Utilde
ENCODING 360
SWIDTH 409 0
DWIDTH 25 0
BBX 19 50 0 0
BITMAP
0F8000
3FE7C0
7FFFE0
7FFFE0
FFFFC0
FFFFC0
FDFF80
387F00
000000
000000
F803E0
F807E0
FC07E0
FC07E0
FC07E0
FC07E0
FC07E0
FC07E0
FC07E0
FC07E0
FC07E0
FC07E0
FC07E0
FC07E0
FC07E0
FC07E0
FC07E0
FC07E0
FC07E0
FC07E0
FC07E0
FC07E0
FC07E0
FC07E0
FC07E0
FC07E0
FC07E0
FC07E0
FC07E0
FC07E0
FC07E0
FC07E0
FC07E0
FE0FE0
FFFFE0
7FFFC0
7FFFC0
3FFF80
1FFF00
07FC00
ENDCHAR
STARTCHAR utilde
ENCODING 361
SWIDTH 409 0
DWIDTH 25 0
BBX 19 50 0 0
BITMAP
1FC000
3FE7C0
7FFFE0
7FFFE0
FFFFC0
FFFFC0
7CFF80
003E00
000000
000000
F803E0
FC07E0
FC07E0
FC07E0
FC07E0
FC07E0
FC07E0
FC07E0
FC07E0
FC07E0
FC07E0
FC07E0
FC07E0
FC07E0
FC07E0
FC07E0
FC07E0
FC07E0
FC07E0
FC07E0
FC07E0
FC07E0
FC07E0
FC07E0
FC07E0
FC07E0
FC07E0
FC07E0
FC07E0
FC07E0
FC07E0
FC07E0
FC07E0
FE0FE0
FFFFC0
7FFFC0
3FFF80
3FFF80
0FFE00
03F800
ENDCHAR
STARTCHAR Umacron
ENCODING 362
SWIDTH 409 0
DWIDTH 25 0
BBX 19 48 0 0
BITMAP
1FFF00
1FFF00
1FFF00
1FFF00
1FFF00
000000
000000
000000
F803E0
F807E0
FC07E0
FC07E0
FC07E0
FC07E0
FC07E0
FC07E0
FC07E0
FC07E0
FC07E0
FC07E0
FC07E0
FC07E0
FC07E0
FC07E0
FC07E0
FC07E0
FC07E0
FC07E0
FC07E0
FC07E0
FC07E0
FC07E0
FC07E0
FC07E0
FC07E0
FC07E0
FC07E0
FC07E0
FC07E0
FC07E0
FC07E0
FE0FE0
FFFFE0
7FFFC0
7FFFC0
3FFF80
1FFF00
07FC00
ENDCHAR
STARTCHAR umacron
ENCODING 363
SWIDTH 409 0
DWIDTH 25 0
BBX 19 49 0 0
BITMAP
0FFF00
1FFF00
1FFF80
1FFF80
1FFF00
0FFF00
000000
000000
000000
F803E0
FC07E0
FC07E0
FC07E0
FC07E0
FC07E0
FC07E0
FC07E0
FC07E0
FC07E0
FC07E0
FC07E0
FC07E0
FC07E0
FC07E0
FC07E0
FC07E0
FC07E0
FC07E0
FC07E0
FC07E0
FC07E0
FC07E0
FC07E0
FC07E0
FC07E0
FC07E0
FC07E0
FC07E0
FC07E0
FC07E0
FC07E0
FC07E0
FE0FE0
FFFFC0
7FFFC0
3FFF80
3FFF80
0FFE00
03F800
ENDCHAR
STARTCHAR Ubreve
ENCODING 364
SWIDTH 409 0
DWIDTH 25 0
BBX 19 51 0 0
BITMAP
060800
1F1F00
3FBF00
3FFF00
3FFF00
1FFF00
0FFE00
07FC00
000000
000000
000000
F803E0
F807E0
FC07E0
FC07E0
FC07E0
FC07E0
FC07E0
FC07E0
FC07E0
FC07E0
FC07E0
FC07E0
FC07E0
FC07E0
FC07E0
FC07E0
FC07E0
FC07E0
FC07E0
FC07E0
FC07E0
FC07E0
FC07E0
FC07E0
FC07E0
FC07E0
FC07E0
FC07E0
FC07E0
FC07E0
FC07E0
FC07E0
FC07E0
FE0FE0
FFFFE0
7FFFC0
7FFFC0
3FFF80
1FFF00
07FC00
ENDCHAR
STARTCHAR ubreve
ENCODING 365
SWIDTH 409 0
DWIDTH 25 0
BBX 19 51 0 0
BITMAP
1F1F00
3F1F00
3FFF80
3FFF00
1FFF00
1FFF00
0FFE00
03F800
000000
000000
000000
F803E0
FC07E0
FC07E0
FC07E0
FC07E0
FC07E0
FC07E0
FC07E0
FC07E0
FC07E0
FC07E0
FC07E0
FC07E0
FC07E0
FC07E0
FC07E0
FC07E0
FC07E0
FC07E0
FC07E0
FC07E0
FC07E0
FC07E0
FC07E0
FC07E0
FC07E0
FC07E0
FC07E0
FC07E0
FC07E0
FC07E0
FC07E0
FC07E0
FE0FE0
FFFFC0
7FFFC0
3FFF80
3FFF80
0FFE00
03F800
ENDCHAR
STARTCHAR Uring
ENCODING 366
SWIDTH 409 0
DWIDTH 25 0
BBX 19 51 0 0
BITMAP
01F000
03F800
07FC00
073C00
071C00
07FC00
03F800
03F000
004000
000000
000000
F803E0
F807E0
FC07E0
FC07E0
FC07E0
FC07E0
FC07E0
FC07E0
FC07E0
FC07E0
FC07E0
FC07E0
FC07E0
FC07E0
FC07E0
FC07E0
FC07E0
FC07E0
FC07E0
FC07E0
FC07E0
FC07E0
FC07E0
FC07E0
FC07E0
FC07E0
FC07E0
FC07E0
FC07E0
FC07E0
FC07E0
FC07E0
FC07E0
FE0FE0
FFFFE0
7FFFC0
7FFFC0
3FFF80
1FFF00
07FC00
ENDCHAR
STARTCHAR uring
ENCODING 367
SWIDTH 409 0
DWIDTH 25 0
BBX 19 52 0 0
BITMAP
00E000
03F800
03F800
07BC00
071C00
071C00
07FC00
03F800
01F000
000000
000000
000000
F803E0
FC07E0
FC07E0
FC07E0
FC07E0
FC07E0
FC07E0
FC07E0
FC07E0
FC07E0
FC07E0
FC07E0
FC07E0
FC07E0
FC07E0
FC07E0
FC07E0
FC07E0
FC07E0
FC07E0
FC07E0
FC07E0
FC07E0
FC07E0
FC07E0
FC07E0
FC07E0
FC07E0
FC07E0
FC07E0
FC07E0
FC07E0
FC07E0
FE0FE0
FFFFC0
7FFFC0
3FFF80
3FFF80
0FFE00
03F800
ENDCHAR
STARTCHAR Wcircumflex
ENCODING 372
SWIDTH 560 0
DWIDTH 34 0
BBX 29 52 0 0
BITMAP
00078000
000FC000
001FE000
003FF000
007FF800
007FF800
00FFFC00
00FCFC00
007CF800
00000000
00000000
00000000
F80F81F8
FC0F81F8
FC1F81F8
FC1FC1F8
FC1FC3F8
FC1FC3F0
7E1FC3F0
7E1FC3F0
7E3FC3F0
7E3FE3F0
7E3FE3F0
7E3FE7F0
7F3FE7E0
3F3FE7E0
3F7FE7E0
3F7FF7E0
3F7FF7E0
3F7FF7E0
3F7FFFC0
1FFDFFC0
1FFDFFC0
1FFDFFC0
1FFDFFC0
1FFDFFC0
1FFDFF80
0FF9FF80
0FF8FF80
0FF8FF80
0FF8FF80
0FF8FF80
0FF8FF00
07F0FF00
07F07F00
07F07F00
07F07F00
07F07F00
07F07F00
03E07E00
03E03E00
03C03C00
ENDCHAR
STARTCHAR wcircumflex
ENCODING 373
SWIDTH 560 0
DWIDTH 34 0
BBX 29 52 0 0
BITMAP
00078000
000FC000
001FE000
003FF000
007FF800
007FF800
00FFFC00
00FCFC00
007CF800
00000000
00000000
00000000
F80F81F8
FC0F81F8
FC1F81F8
FC1FC1F8
FC1FC3F8
FC1FC3F0
7E1FC3F0
7E1FC3F0
7E3FC3F0
7E3FE3F0
7E3FE3F0
7E3FE7F0
7F3FE7E0
3F3FE7E0
3F7FE7E0
3F7FF7E0
3F7FF7E0
3F7FF7E0
3F7FFFC0
1FFDFFC0
1FFDFFC0
1FFDFFC0
1FFDFFC0
1FFDFFC0
1FFDFF80
0FF9FF80
0FF8FF80
0FF8FF80
0FF8FF80
0FF8FF80
0FF8FF00
07F0FF00
07F07F00
07F07F00
07F07F00
07F07F00
07F07F00
03E07E00
03E03E00
03C03C00
ENDCHAR
STARTCHAR Ycircumflex
ENCODING 374
SWIDTH 406 0
DWIDTH 24 0
BBX 22 52 -1 0
BITMAP
007800
00FC00
01FE00
03FF00
03FF80
07FF80
0FFFC0
0FCFC0
07CF80
000000
000000
000000
FC00F8
FC01FC
FE01FC
7E01F8
7F03F8
7F03F0
3F87F0
3F87F0
1F8FE0
1FCFE0
0FDFC0
0FFFC0
0FFF80
07FF80
07FF80
03FF00
03FF00
01FE00
01FE00
01FC00
00FC00
00FC00
00FC00
00FC00
00FC00
00FC00
00FC00
00FC00
00FC00
00FC00
00FC00
00FC00
00FC00
00FC00
00FC00
00FC00
00FC00
00FC00
00FC00
007800
ENDCHAR
STARTCHAR ycircumflex
ENCODING 375
SWIDTH 406 0
DWIDTH 24 0
BBX 22 52 -1 0
BITMAP
007800
00FC00
01FE00
03FF00
03FF80
07FF80
0FFFC0
0FCFC0
07CF80
000000
000000
000000
FC00F8
FC01FC
FE01FC
7E01F8
7F03F8
7F03F0
3F87F0
3F87F0
1F8FE0
1FCFE0
0FDFC0
0FFFC0
0FFF80
07FF80
07FF80
03FF00
03FF00
01FE00
01FE00
01FC00
00FC00
00FC00
00FC00
00FC00
00FC00
00FC00
00FC00
00FC00
00FC00
00FC00
00FC00
00FC00
00FC00
00FC00
00FC00
00FC00
00FC00
00FC00
00FC00
007800
ENDCHAR
STARTCHAR Ydieresis
ENCODING 376
SWIDTH 406 0
DWIDTH 24 0
BBX 22 50 -1 0
BITMAP
038300
0FCFC0
0FCFC0
0FCFC0
0FCFC0
0FCFC0
078780
000000
000000
000000
FC00F8
FC01FC
FE01FC
7E01F8
7F03F8
7F03F0
3F87F0
3F87F0
1F8FE0
1FCFE0
0FDFC0
0FFFC0
0FFF80
07FF80
07FF80
03FF00
03FF00
01FE00
01FE00
01FC00
00FC00
00FC00
00FC00
00FC00
00FC00
00FC00
00FC00
00FC00
00FC00
00FC00
00FC00
00FC00
00FC00
00FC00
00FC00
00FC00
00FC00
00FC00
00FC00
007800
ENDCHAR
STARTCHAR Zacute
ENCODING 377
SWIDTH 411 0
DWIDTH 25 0
BBX 20 52 0 0
BITMAP
000600
003F80
00FF80
03FF00
07FE00
0FFC00
1FF000
1FC000
0F0000
000000
000000
000000
FFFFE0
FFFFF0
FFFFF0
FFFFF0
FFFFE0
7FFFE0
000FE0
000FC0
001FC0
001F80
003F80
003F80
003F00
007F00
007E00
00FE00
00FC00
01FC00
01FC00
01F800
03F800
03F000
07F000
07F000
07E000
0FE000
0FC000
1FC000
1F8000
3F8000
3F8000
3F0000
7F0000
7E0000
FFFFE0
FFFFE0
FFFFF0
FFFFF0
FFFFE0
7FFFE0
ENDCHAR
STARTCHAR zacute
ENCODING 378
SWIDTH 411 0
DWIDTH 25 0
BBX 20 52 0 0
BITMAP
000600
003F80
00FF80
03FF00
07FE00
0FFC00
1FF000
1FC000
0F0000
000000
000000
000000
FFFFE0
FFFFF0
FFFFF0
FFFFF0
FFFFE0
7FFFE0
000FE0
000FC0
001FC0
001F80
003F80
003F80
003F00
007F00
007E00
00FE00
00FC00
01FC00
01FC00
01F800
03F800
03F000
07F000
07F000
07E000
0FE000
0FC000
1FC000
1F8000
3F8000
3F8000
3F0000
7F0000
7E0000
FFFFE0
FFFFE0
FFFFF0
FFFFF0
FFFFE0
7FFFE0
ENDCHAR
STARTCHAR Zdotaccent
ENCODING 379
SWIDTH 411 0
DWIDTH 25 0
BBX 20 49 0 0
BITMAP
01F000
01F800
01F800
01F800
01F800
01F000
000000
000000
000000
FFFFE0
FFFFF0
FFFFF0
FFFFF0
FFFFE0
7FFFE0
000FE0
000FC0
001FC0
001F80
003F80
003F80
003F00
007F00
007E00
00FE00
00FC00
01FC00
01FC00
01F800
03F800
03F000
07F000
07F000
07E000
0FE000
0FC000
1FC000
1F8000
3F8000
3F8000
3F0000
7F0000
7E0000
FFFFE0
FFFFE0
FFFFF0
FFFFF0
FFFFE0
7FFFE0
ENDCHAR
STARTCHAR zdotaccent
ENCODING 380
SWIDTH 411 0
DWIDTH 25 0
BBX 20 49 0 0
BITMAP
01F000
01F800
01F800
01F800
01F800
01F000
000000
000000
000000
FFFFE0
FFFFF0
FFFFF0
FFFFF0
FFFFE0
7FFFE0
000FE0
000FC0
001FC0
001F80
003F80
003F80
003F00
007F00
007E00
00FE00
00FC00
01FC00
01FC00
01F800
03F800
03F000
07F000
07F000
07E000
0FE000
0FC000
1FC000
1F8000
3F8000
3F8000
3F0000
7F0000
7E0000
FFFFE0
FFFFE0
FFFFF0
FFFFF0
FFFFE0
7FFFE0
ENDCHAR
STARTCHAR Zcaron
ENCODING 381
SWIDTH 419 0
DWIDTH 25 0
BBX 20 52 0 0
BITMAP
0F1E00
1FBF00
1FBF00
1FFF00
0FFE00
07FC00
07FC00
03F800
01F000
000000
000000
000000
FFFFE0
FFFFF0
FFFFF0
FFFFF0
FFFFE0
7FFFE0
000FE0
000FC0
001FC0
001F80
003F80
003F80
003F00
007F00
007E00
00FE00
00FC00
01FC00
01FC00
01F800
03F800
03F000
07F000
07F000
07E000
0FE000
0FC000
1FC000
1F8000
3F8000
3F8000
3F0000
7F0000
7E0000
FFFFE0
FFFFE0
FFFFF0
FFFFF0
FFFFE0
7FFFE0
ENDCHAR
STARTCHAR zcaron
ENCODING 382
SWIDTH 419 0
DWIDTH 25 0
BBX 20 52 0 0
BITMAP
0F1E00
1FBF00
1FBF00
1FFF00
0FFE00
07FC00
07FC00
03F800
01F000
000000
000000
000000
FFFFE0
FFFFF0
FFFFF0
FFFFF0
FFFFE0
7FFFE0
000FE0
000FC0
001FC0
001F80
003F80
003F80
003F00
007F00
007E00
00FE00
00FC00
01FC00
01FC00
01F800
03F800
03F000
07F000
07F000
07E000
0FE000
0FC000
1FC000
1F8000
3F8000
3F8000
3F0000
7F0000
7E0000
FFFFE0
FFFFE0
FFFFF0
FFFFF0
FFFFE0
7FFFE0
ENDCHAR
STARTCHAR AEacute
ENCODING 508
SWIDTH 665 0
DWIDTH 40 0
BBX 34 52 0 0
BITMAP
000001C000
000007E000
00001FE000
00007FE000
0000FFC000
0003FF0000
0003FE0000
0003F80000
0001E00000
0000000000
0000000000
0000000000
00007FFFC0
0000FFFFC0
0000FFFFC0
0000FFFFC0
0001FFFFC0
0001FFFF00
0003FE0000
0003FE0000
0007FE0000
0007FE0000
000FFE0000
000FFE0000
000FFE0000
001FFE0000
001FFE0000
003FFE0000
003F7E0000
007F7FFF80
007E7FFFC0
00FE7FFFC0
00FE7FFFC0
01FC7FFFC0
01FC7FFF80
01FFFE0000
03FFFE0000
03FFFE0000
07FFFE0000
07FFFE0000
0FFFFE0000
0FC07E0000
1FC07E0000
1F807E0000
3F807E0000
3F807E0000
3F007FFF80
7F007FFFC0
7E007FFFC0
FE007FFFC0
FC007FFFC0
78007FFF80
ENDCHAR
STARTCHAR aeacute
ENCODING 509
SWIDTH 665 0
DWIDTH 40 0
BBX 34 52 0 0
BITMAP
000001C000
000007E000
00001FE000
00007FE000
0000FFC000
0003FF0000
0003FE0000
0003F80000
0001E00000
0000000000
0000000000
0000000000
00007FFFC0
0000FFFFC0
0000FFFFC0
0000FFFFC0
0001FFFFC0
0001FFFF00
0003FE0000
0003FE0000
0007FE0000
0007FE0000
000FFE0000
000FFE0000
000FFE0000
001FFE0000
001FFE0000
003FFE0000
003F7E0000
007F7FFF80
007E7FFFC0
00FE7FFFC0
00FE7FFFC0
01FC7FFFC0
01FC7FFF80
01FFFE0000
03FFFE0000
03FFFE0000
07FFFE0000
07FFFE0000
0FFFFE0000
0FC07E0000
1FC07E0000
1F807E0000
3F807E0000
3F807E0000
3F007FFF80
7F007FFFC0
7E007FFFC0
FE007FFFC0
FC007FFFC0
78007FFF80
ENDCHAR
STARTCHAR Oslashacute
ENCODING 510
SWIDTH 406 0
DWIDTH 24 0
BBX 21 52 0 0
BITMAP
000E00
003F00
00FF00
03FF00
07FE00
0FFC00
1FF000
1FC000
0F0000
000000
000000
000000
07FFF0
0FFFF8
1FFFF8
3FFFF0
7FFFF0
7FFFE0
7FFFE0
FFFFE0
FFFFF0
FFFFF0
FFFFF0
FFFFF0
FFFFF0
FFFFF0
FFFFF0
FFFFF0
FFFFF0
FFFFF0
FFFFF0
FFFFF0
FFFFF0
FFFFF0
FFFFF0
FFFFF0
FFFFF0
FFFFF0
FFFFF0
FFFFF0
FFFFF0
FFFFF0
FFFFF0
FFFFE0
FFFFE0
7FFFE0
7FFFE0
7FFFC0
7FFFC0
FFFF80
FFFF00
7BF800
ENDCHAR
STARTCHAR oslashacute
ENCODING 511
SWIDTH 406 0
DWIDTH 24 0
BBX 21 40 0 0
BITMAP
07FFF0
0FFFF8
1FFFF8
3FFFF0
7FFFF0
7FFFE0
7FFFE0
FFFFE0
FFFFF0
FFFFF0
FFFFF0
FFFFF0
FFFFF0
FFFFF0
FFFFF0
FFFFF0
FFFFF0
FFFFF0
FFFFF0
FFFFF0
FFFFF0
FFFFF0
FFFFF0
FFFFF0
FFFFF0
FFFFF0
FFFFF0
FFFFF0
FFFFF0
FFFFF0
FFFFF0
FFFFE0
FFFFE0
7FFFE0
7FFFE0
7FFFC0
7FFFC0
FFFF80
FFFF00
7BF800
ENDCHAR
STARTCHAR circumflex
ENCODING 710
SWIDTH 237 0
DWIDTH 14 0
BBX 14 9 -1 43
BITMAP
0780
0FC0
0FE0
1FF0
3FF8
7FFC
FFFC
FEFC
7C7C
ENDCHAR
STARTCHAR caron
ENCODING 711
SWIDTH 232 0
DWIDTH 14 0
BBX 14 9 -1 43
BITMAP
3878
7EFC
FEFC
7FFC
3FF8
3FF0
1FF0
0FE0
07C0
ENDCHAR
STARTCHAR breve
ENCODING 728
SWIDTH 241 0
DWIDTH 14 0
BBX 14 8 0 43
BITMAP
7878
FCFC
FFFC
FFFC
FFF8
7FF8
3FF0
0FC0
ENDCHAR
STARTCHAR dotaccent
ENCODING 729
SWIDTH 82 0
DWIDTH 5 0
BBX 6 7 -1 42
BITMAP
78
FC
FC
FC
FC
FC
38
ENDCHAR
STARTCHAR ring
ENCODING 730
SWIDTH 140 0
DWIDTH 8 0
BBX 9 9 -1 43
BITMAP
1E00
7F00
7F80
F780
E380
F380
7F80
7F00
3E00
ENDCHAR
STARTCHAR tilde
ENCODING 732
SWIDTH 319 0
DWIDTH 19 0
BBX 18 9 0 42
BITMAP
060000
1FC000
7FE7C0
7FFFC0
FFFFC0
FFFFC0
FFFF80
F8FF00
007E00
ENDCHAR
STARTCHAR Wgrave
ENCODING 7808
SWIDTH 560 0
DWIDTH 34 0
BBX 29 52 0 0
BITMAP
00380000
007F0000
007F8000
007FE000
003FF000
000FFC00
0007FC00
0001FC00
00003800
00000000
00000000
00000000
F80F81F8
FC0F81F8
FC1F81F8
FC1FC1F8
FC1FC3F8
FC1FC3F0
7E1FC3F0
7E1FC3F0
7E3FC3F0
7E3FE3F0
7E3FE3F0
7E3FE7F0
7F3FE7E0
3F3FE7E0
3F7FE7E0
3F7FF7E0
3F7FF7E0
3F7FF7E0
3F7FFFC0
1FFDFFC0
1FFDFFC0
1FFDFFC0
1FFDFFC0
1FFDFFC0
1FFDFF80
0FF9FF80
0FF8FF80
0FF8FF80
0FF8FF80
0FF8FF80
0FF8FF00
07F0FF00
07F07F00
07F07F00
07F07F00
07F07F00
07F07F00
03E07E00
03E03E00
03C03C00
ENDCHAR
STARTCHAR wgrave
ENCODING 7809
SWIDTH 560 0
DWIDTH 34 0
BBX 29 52 0 0
BITMAP
00380000
007F0000
007F8000
007FE000
003FF000
000FFC00
0007FC00
0001FC00
00003800
00000000
00000000
00000000
F80F81F8
FC0F81F8
FC1F81F8
FC1FC1F8
FC1FC3F8
FC1FC3F0
7E1FC3F0
7E1FC3F0
7E3FC3F0
7E3FE3F0
7E3FE3F0
7E3FE7F0
7F3FE7E0
3F3FE7E0
3F7FE7E0
3F7FF7E0
3F7FF7E0
3F7FF7E0
3F7FFFC0
1FFDFFC0
1FFDFFC0
1FFDFFC0
1FFDFFC0
1FFDFFC0
1FFDFF80
0FF9FF80
0FF8FF80
0FF8FF80
0FF8FF80
0FF8FF80
0FF8FF00
07F0FF00
07F07F00
07F07F00
07F07F00
07F07F00
07F07F00
03E07E00
03E03E00
03C03C00
ENDCHAR
STARTCHAR Wacute
ENCODING 7810
SWIDTH 560 0
DWIDTH 34 0
BBX 29 52 0 0
BITMAP
00007000
0001F800
0007FC00
001FF800
003FF000
007FE000
00FF8000
00FE0000
00780000
00000000
00000000
00000000
F80F81F8
FC0F81F8
FC1F81F8
FC1FC1F8
FC1FC3F8
FC1FC3F0
7E1FC3F0
7E1FC3F0
7E3FC3F0
7E3FE3F0
7E3FE3F0
7E3FE7F0
7F3FE7E0
3F3FE7E0
3F7FE7E0
3F7FF7E0
3F7FF7E0
3F7FF7E0
3F7FFFC0
1FFDFFC0
1FFDFFC0
1FFDFFC0
1FFDFFC0
1FFDFFC0
1FFDFF80
0FF9FF80
0FF8FF80
0FF8FF80
0FF8FF80
0FF8FF80
0FF8FF00
07F0FF00
07F07F00
07F07F00
07F07F00
07F07F00
07F07F00
03E07E00
03E03E00
03C03C00
ENDCHAR
STARTCHAR wacute
ENCODING 7811
SWIDTH 560 0
DWIDTH 34 0
BBX 29 52 0 0
BITMAP
00007000
0001F800
0007FC00
001FF800
003FF000
007FE000
00FF8000
00FE0000
00780000
00000000
00000000
00000000
F80F81F8
FC0F81F8
FC1F81F8
FC1FC1F8
FC1FC3F8
FC1FC3F0
7E1FC3F0
7E1FC3F0
7E3FC3F0
7E3FE3F0
7E3FE3F0
7E3FE7F0
7F3FE7E0
3F3FE7E0
3F7FE7E0
3F7FF7E0
3F7FF7E0
3F7FF7E0
3F7FFFC0
1FFDFFC0
1FFDFFC0
1FFDFFC0
1FFDFFC0
1FFDFFC0
1FFDFF80
0FF9FF80
0FF8FF80
0FF8FF80
0FF8FF80
0FF8FF80
0FF8FF00
07F0FF00
07F07F00
07F07F00
07F07F00
07F07F00
07F07F00
03E07E00
03E03E00
03C03C00
ENDCHAR
STARTCHAR Wdieresis
ENCODING 7812
SWIDTH 560 0
DWIDTH 34 0
BBX 29 50 0 0
BITMAP
00707000
00FCFC00
00FCFC00
00FCFC00
00FCFC00
00FCFC00
00787800
00000000
00000000
00000000
F80F81F8
FC0F81F8
FC1F81F8
FC1FC1F8
FC1FC3F8
FC1FC3F0
7E1FC3F0
7E1FC3F0
7E3FC3F0
7E3FE3F0
7E3FE3F0
7E3FE7F0
7F3FE7E0
3F3FE7E0
3F7FE7E0
3F7FF7E0
3F7FF7E0
3F7FF7E0
3F7FFFC0
1FFDFFC0
1FFDFFC0
1FFDFFC0
1FFDFFC0
1FFDFFC0
1FFDFF80
0FF9FF80
0FF8FF80
0FF8FF80
0FF8FF80
0FF8FF80
0FF8FF00
07F0FF00
07F07F00
07F07F00
07F07F00
07F07F00
07F07F00
03E07E00
03E03E00
03C03C00
ENDCHAR
STARTCHAR wdieresis
ENCODING 7813
SWIDTH 560 0
DWIDTH 34 0
BBX 29 50 0 0
BITMAP
00707000
00FCFC00
00FCFC00
00FCFC00
00FCFC00
00FCFC00
00787800
00000000
00000000
00000000
F80F81F8
FC0F81F8
FC1F81F8
FC1FC1F8
FC1FC3F8
FC1FC3F0
7E1FC3F0
7E1FC3F0
7E3FC3F0
7E3FE3F0
7E3FE3F0
7E3FE7F0
7F3FE7E0
3F3FE7E0
3F7FE7E0
3F7FF7E0
3F7FF7E0
3F7FF7E0
3F7FFFC0
1FFDFFC0
1FFDFFC0
1FFDFFC0
1FFDFFC0
1FFDFFC0
1FFDFF80
0FF9FF80
0FF8FF80
0FF8FF80
0FF8FF80
0FF8FF80
0FF8FF00
07F0FF00
07F07F00
07F07F00
07F07F00
07F07F00
07F07F00
03E07E00
03E03E00
03C03C00
ENDCHAR
STARTCHAR Ygrave
ENCODING 7922
SWIDTH 406 0
DWIDTH 24 0
BBX 22 52 -1 0
BITMAP
038000
07F000
07FC00
07FE00
03FF80
00FFC0
003FC0
001FC0
0003C0
000000
000000
000000
FC00F8
FC01FC
FE01FC
7E01F8
7F03F8
7F03F0
3F87F0
3F87F0
1F8FE0
1FCFE0
0FDFC0
0FFFC0
0FFF80
07FF80
07FF80
03FF00
03FF00
01FE00
01FE00
01FC00
00FC00
00FC00
00FC00
00FC00
00FC00
00FC00
00FC00
00FC00
00FC00
00FC00
00FC00
00FC00
00FC00
00FC00
00FC00
00FC00
00FC00
00FC00
00FC00
007800
ENDCHAR
STARTCHAR ygrave
ENCODING 7923
SWIDTH 406 0
DWIDTH 24 0
BBX 22 52 -1 0
BITMAP
038000
07F000
07FC00
07FE00
03FF80
00FFC0
003FC0
001FC0
0003C0
000000
000000
000000
FC00F8
FC01FC
FE01FC
7E01F8
7F03F8
7F03F0
3F87F0
3F87F0
1F8FE0
1FCFE0
0FDFC0
0FFFC0
0FFF80
07FF80
07FF80
03FF00
03FF00
01FE00
01FE00
01FC00
00FC00
00FC00
00FC00
00FC00
00FC00
00FC00
00FC00
00FC00
00FC00
00FC00
00FC00
00FC00
00FC00
00FC00
00FC00
00FC00
00FC00
00FC00
00FC00
007800
ENDCHAR
STARTCHAR endash
ENCODING 8211
SWIDTH 349 0
DWIDTH 21 0
BBX 18 6 0 17
BITMAP
7FFF80
FFFF80
FFFFC0
FFFFC0
FFFF80
7FFF80
ENDCHAR
STARTCHAR emdash
ENCODING 8212
SWIDTH 349 0
DWIDTH 21 0
BBX 18 6 0 17
BITMAP
7FFF80
FFFF80
FFFFC0
FFFFC0
FFFF80
7FFF80
ENDCHAR
STARTCHAR quoteleft
ENCODING 8216
SWIDTH 131 0
DWIDTH 8 0
BBX 6 9 0 31
BITMAP
F8
FC
FC
FC
FC
FC
FC
FC
78
ENDCHAR
STARTCHAR quoteright
ENCODING 8217
SWIDTH 131 0
DWIDTH 8 0
BBX 6 9 0 31
BITMAP
F8
FC
FC
FC
FC
FC
FC
FC
78
ENDCHAR
STARTCHAR quotedblleft
ENCODING 8220
SWIDTH 200 0
DWIDTH 12 0
BBX 9 9 0 31
BITMAP
7F00
FF80
FF80
FF80
FF80
FF80
FF80
FF80
7F00
ENDCHAR
STARTCHAR quotedblright
ENCODING 8221
SWIDTH 200 0
DWIDTH 12 0
BBX 9 9 0 31
BITMAP
7F00
FF80
FF80
FF80
FF80
FF80
FF80
FF80
7F00
ENDCHAR
STARTCHAR bullet
ENCODING 8226
SWIDTH 155 0
DWIDTH 9 0
BBX 8 8 0 18
BITMAP
7E
FF
FF
FF
FF
FF
7E
3C
ENDCHAR
STARTCHAR fraction
ENCODING 8260
SWIDTH 260 0
DWIDTH 16 0
BBX 20 40 -3 0
BITMAP
0001F0
0003F0
0003F0
0007F0
0007E0
0007E0
000FE0
000FC0
001FC0
001F80
001F80
003F80
003F00
007F00
007E00
007E00
00FE00
00FC00
01FC00
01F800
01F800
03F800
03F000
07F000
07E000
07E000
0FE000
0FC000
1FC000
1F8000
1F8000
3F8000
3F0000
7F0000
7E0000
7E0000
FE0000
FC0000
FC0000
780000
ENDCHAR
STARTCHAR Euro
ENCODING 8364
SWIDTH 370 0
DWIDTH 22 0
BBX 22 40 -2 0
BITMAP
007FC0
01FFF0
03FFF8
07FFF8
0FFFFC
0FFFF8
0FE0F8
1FC070
1FC000
1F8000
1F8000
1F8000
1F8000
7FFF00
FFFF80
FFFFC0
FFFFC0
FFFFC0
7FFF80
1F8000
1F8000
1F8000
1F8000
FFFF80
FFFFC0
FFFFC0
FFFFC0
FFFF80
7FFF00
1F8000
1F8000
1FC020
1FC078
0FE0FC
0FFFFC
07FFFC
07FFF8
03FFF0
00FFE0
003F80
ENDCHAR
STARTCHAR trademark
ENCODING 8482
SWIDTH 650 0
DWIDTH 39 0
BBX 36 17 0 23
BITMAP
7FFE1E00F0
7FFF1E00F0
FFFF1F01F0
FFFF1F01F0
7FFF1F83F0
03E01F83F0
03E01FC7F0
03E01FC7F0
03E01FEFF0
03E01EEFF0
03E01EFEF0
03E01EFEF0
03E01E7EF0
03E01E7CF0
03E01E7CF0
03E01E7CF0
01C0003870
ENDCHAR
STARTCHAR commaaccent
ENCODING 63171
SWIDTH 260 0
DWIDTH 16 0
BBX 6 9 4 -11
BITMAP
78
FC
FC
FC
FC
FC
FC
FC
78
ENDCHAR
STARTCHAR Acute
ENCODING 63177
SWIDTH 247 0
DWIDTH 15 0
BBX 13 9 0 43
BITMAP
0070
03F8
07F8
1FF8
3FF0
FFC0
FF80
FE00
7000
ENDCHAR
STARTCHAR Caron
ENCODING 63178
SWIDTH 232 0
DWIDTH 14 0
BBX 14 9 -1 43
BITMAP
3878
7EFC
FEFC
7FFC
3FF8
3FF0
1FF0
0FE0
07C0
ENDCHAR
STARTCHAR Dieresis
ENCODING 63179
SWIDTH 229 0
DWIDTH 14 0
BBX 14 7 -1 43
BITMAP
3838
7C7C
FCFC
FCFC
FCFC
FCFC
7C7C
ENDCHAR
STARTCHAR Grave
ENCODING 63182
SWIDTH 222 0
DWIDTH 13 0
BBX 13 8 0 43
BITMAP
7C00
FF00
FFC0
7FE0
3FF0
0FF8
03F8
00F8
ENDCHAR
STARTCHAR Macron
ENCODING 63184
SWIDTH 231 0
DWIDTH 14 0
BBX 13 6 0 43
BITMAP
7FF0
FFF8
FFF8
FFF8
FFF8
FFF8
ENDCHAR
STARTCHAR uniF8FF
ENCODING 63743
SWIDTH 0 0
DWIDTH 0 0
BBX 1 1 0 0
BITMAP
00
ENDCHAR
STARTCHAR .notdef
ENCODING -1
SWIDTH 210 0
DWIDTH 13 0
BBX 1 1 0 0
BITMAP
00
ENDCHAR
STARTCHAR Ring
ENCODING -1
SWIDTH 140 0
DWIDTH 8 0
BBX 9 9 -1 43
BITMAP
1E00
7F00
7F80
F780
E380
F380
7F80
7F00
3E00
ENDCHAR
STARTCHAR Tilde
ENCODING -1
SWIDTH 319 0
DWIDTH 19 0
BBX 18 9 0 38
BITMAP
060000
1FC000
7FE7C0
7FFFC0
FFFFC0
FFFFC0
FFFF80
F8FF00
007E00
ENDCHAR
STARTCHAR Circumflex
ENCODING -1
SWIDTH 237 0
DWIDTH 14 0
BBX 14 9 -1 43
BITMAP
0780
0FC0
0FE0
1FF0
3FF8
7FFC
FFFC
FEFC
7C7C
ENDCHAR
STARTCHAR Cedilla
ENCODING -1
SWIDTH 201 0
DWIDTH 12 0
BBX 13 14 -1 -13
BITMAP
1F00
1F00
1F00
1F80
1FF0
1FF0
1FF8
1FF8
40F8
FFF8
7FF8
7FF0
3FE0
0700
ENDCHAR
STARTCHAR commaaccent.cap
ENCODING -1
SWIDTH 260 0
DWIDTH 16 0
BBX 6 8 4 -11
BITMAP
FC
FC
FC
FC
FC
FC
FC
78
ENDCHAR
STARTCHAR Breve
ENCODING -1
SWIDTH 241 0
DWIDTH 14 0
BBX 14 8 0 43
BITMAP
7878
FCFC
FFFC
FFFC
FFF8
7FF8
3FF0
0FC0
ENDCHAR
ENDFONT
